<mxfile host="app.diagrams.net" agent="Mozilla/5.0 (Windows NT 10.0; Win64; x64) AppleWebKit/537.36 (KHTML, like Gecko) Chrome/129.0.0.0 Safari/537.36" version="24.7.16" pages="3">
  <diagram name="Page-1" id="4bd5d27a-524c-7e24-5d5f-89a86ee4fca1">
    <mxGraphModel dx="17600" dy="6820" grid="1" gridSize="10" guides="1" tooltips="1" connect="1" arrows="1" fold="1" page="1" pageScale="1" pageWidth="1100" pageHeight="850" background="none" math="0" shadow="0">
      <root>
        <mxCell id="0" />
        <mxCell id="1" parent="0" />
        <mxCell id="ibsxyXEcNVTKywFEW7vz-4" value="" style="whiteSpace=wrap;html=1;aspect=fixed;strokeWidth=4;" parent="1" vertex="1">
          <mxGeometry x="502" y="2035" width="985" height="985" as="geometry" />
        </mxCell>
        <mxCell id="ibsxyXEcNVTKywFEW7vz-26" value="" style="group;strokeWidth=4;strokeColor=default;" parent="1" vertex="1" connectable="0">
          <mxGeometry x="1079.5" y="2035" width="407.5" height="407" as="geometry" />
        </mxCell>
        <mxCell id="ibsxyXEcNVTKywFEW7vz-7" value="" style="whiteSpace=wrap;html=1;aspect=fixed;strokeWidth=4;" parent="ibsxyXEcNVTKywFEW7vz-26" vertex="1">
          <mxGeometry width="407" height="407" as="geometry" />
        </mxCell>
        <mxCell id="ibsxyXEcNVTKywFEW7vz-25" value="" style="verticalLabelPosition=bottom;html=1;verticalAlign=top;align=center;shape=mxgraph.floorplan.doorLeft;aspect=fixed;rotation=-90;strokeWidth=3;" parent="ibsxyXEcNVTKywFEW7vz-26" vertex="1">
          <mxGeometry x="2.5" y="322" width="80" height="85" as="geometry" />
        </mxCell>
        <mxCell id="ibsxyXEcNVTKywFEW7vz-81" value="" style="shape=mxgraph.cisco.computers_and_peripherals.terminal;html=1;pointerEvents=1;dashed=0;fillColor=#036897;strokeColor=#ffffff;strokeWidth=2;verticalLabelPosition=bottom;verticalAlign=top;align=center;outlineConnect=0;" parent="ibsxyXEcNVTKywFEW7vz-26" vertex="1">
          <mxGeometry x="60.5" y="135" width="49.7" height="44" as="geometry" />
        </mxCell>
        <mxCell id="ibsxyXEcNVTKywFEW7vz-82" value="" style="shape=mxgraph.cisco.computers_and_peripherals.terminal;html=1;pointerEvents=1;dashed=0;fillColor=#036897;strokeColor=#ffffff;strokeWidth=2;verticalLabelPosition=bottom;verticalAlign=top;align=center;outlineConnect=0;" parent="ibsxyXEcNVTKywFEW7vz-26" vertex="1">
          <mxGeometry x="60.5" y="30" width="49.7" height="44" as="geometry" />
        </mxCell>
        <mxCell id="ibsxyXEcNVTKywFEW7vz-144" style="edgeStyle=orthogonalEdgeStyle;rounded=0;orthogonalLoop=1;jettySize=auto;html=1;exitX=0.25;exitY=0;exitDx=0;exitDy=0;strokeWidth=5;fillColor=#b1ddf0;strokeColor=#10739e;endArrow=none;endFill=0;entryX=0.639;entryY=0.003;entryDx=0;entryDy=0;entryPerimeter=0;" parent="ibsxyXEcNVTKywFEW7vz-26" source="ibsxyXEcNVTKywFEW7vz-83" target="ibsxyXEcNVTKywFEW7vz-7" edge="1">
          <mxGeometry relative="1" as="geometry">
            <mxPoint x="262.6228070175439" y="5" as="targetPoint" />
          </mxGeometry>
        </mxCell>
        <mxCell id="ibsxyXEcNVTKywFEW7vz-145" style="edgeStyle=orthogonalEdgeStyle;rounded=0;orthogonalLoop=1;jettySize=auto;html=1;endArrow=none;endFill=0;fillColor=#b1ddf0;strokeColor=#10739e;strokeWidth=5;" parent="ibsxyXEcNVTKywFEW7vz-26" source="ibsxyXEcNVTKywFEW7vz-83" target="ibsxyXEcNVTKywFEW7vz-82" edge="1">
          <mxGeometry relative="1" as="geometry">
            <Array as="points">
              <mxPoint x="231" y="52" />
              <mxPoint x="231" y="52" />
            </Array>
          </mxGeometry>
        </mxCell>
        <mxCell id="ibsxyXEcNVTKywFEW7vz-146" style="edgeStyle=orthogonalEdgeStyle;rounded=0;orthogonalLoop=1;jettySize=auto;html=1;endArrow=none;endFill=0;fillColor=#b1ddf0;strokeColor=#10739e;strokeWidth=5;" parent="ibsxyXEcNVTKywFEW7vz-26" source="ibsxyXEcNVTKywFEW7vz-83" target="ibsxyXEcNVTKywFEW7vz-81" edge="1">
          <mxGeometry relative="1" as="geometry">
            <Array as="points">
              <mxPoint x="251" y="50" />
              <mxPoint x="251" y="157" />
            </Array>
          </mxGeometry>
        </mxCell>
        <mxCell id="ibsxyXEcNVTKywFEW7vz-83" value="" style="image;html=1;image=img/lib/clip_art/networking/Switch_128x128.png" parent="ibsxyXEcNVTKywFEW7vz-26" vertex="1">
          <mxGeometry x="252.5" y="30" width="40" height="40" as="geometry" />
        </mxCell>
        <mxCell id="ibsxyXEcNVTKywFEW7vz-17" value="&lt;font style=&quot;font-size: 34px;&quot;&gt;&lt;b&gt;Customer Care&lt;/b&gt;&lt;/font&gt;" style="text;html=1;align=center;verticalAlign=middle;whiteSpace=wrap;rounded=0;" parent="ibsxyXEcNVTKywFEW7vz-26" vertex="1">
          <mxGeometry x="150.5" y="335" width="130" height="30" as="geometry" />
        </mxCell>
        <mxCell id="iA_pLaTAwGUdi6S3K2DN-8" value="" style="image;html=1;image=img/lib/clip_art/computers/Printer_128x128.png;aspect=fixed;" vertex="1" parent="ibsxyXEcNVTKywFEW7vz-26">
          <mxGeometry x="60.5" y="220" width="60" height="60" as="geometry" />
        </mxCell>
        <mxCell id="iA_pLaTAwGUdi6S3K2DN-9" style="edgeStyle=orthogonalEdgeStyle;rounded=0;orthogonalLoop=1;jettySize=auto;html=1;endArrow=none;endFill=0;strokeWidth=5;fillColor=#b1ddf0;strokeColor=#10739e;" edge="1" parent="ibsxyXEcNVTKywFEW7vz-26" target="iA_pLaTAwGUdi6S3K2DN-8" source="ibsxyXEcNVTKywFEW7vz-83">
          <mxGeometry relative="1" as="geometry">
            <mxPoint x="250.5" y="75" as="sourcePoint" />
            <mxPoint x="120" y="275" as="targetPoint" />
            <Array as="points">
              <mxPoint x="251" y="60" />
              <mxPoint x="251" y="250" />
            </Array>
          </mxGeometry>
        </mxCell>
        <mxCell id="ibsxyXEcNVTKywFEW7vz-24" value="" style="group;strokeWidth=4;strokeColor=default;" parent="1" vertex="1" connectable="0">
          <mxGeometry x="503.5" y="2035" width="409.5" height="407" as="geometry" />
        </mxCell>
        <mxCell id="ibsxyXEcNVTKywFEW7vz-5" value="" style="whiteSpace=wrap;html=1;aspect=fixed;" parent="ibsxyXEcNVTKywFEW7vz-24" vertex="1">
          <mxGeometry width="407" height="407" as="geometry" />
        </mxCell>
        <mxCell id="ibsxyXEcNVTKywFEW7vz-8" value="" style="verticalLabelPosition=bottom;html=1;verticalAlign=top;align=center;shape=mxgraph.floorplan.doorRight;aspect=fixed;rotation=90;strokeWidth=3;" parent="ibsxyXEcNVTKywFEW7vz-24" vertex="1">
          <mxGeometry x="327" y="322" width="80" height="85" as="geometry" />
        </mxCell>
        <mxCell id="ibsxyXEcNVTKywFEW7vz-74" value="" style="image;html=1;image=img/lib/clip_art/networking/Wireless_Router_128x128.png" parent="ibsxyXEcNVTKywFEW7vz-24" vertex="1">
          <mxGeometry x="346.5" y="25" width="45" height="45" as="geometry" />
        </mxCell>
        <mxCell id="ibsxyXEcNVTKywFEW7vz-75" value="" style="shape=mxgraph.cisco.computers_and_peripherals.terminal;html=1;pointerEvents=1;dashed=0;fillColor=#036897;strokeColor=#ffffff;strokeWidth=2;verticalLabelPosition=bottom;verticalAlign=top;align=center;outlineConnect=0;" parent="ibsxyXEcNVTKywFEW7vz-24" vertex="1">
          <mxGeometry x="6.5" y="90" width="49.7" height="44" as="geometry" />
        </mxCell>
        <mxCell id="ibsxyXEcNVTKywFEW7vz-76" value="" style="shape=mxgraph.cisco.computers_and_peripherals.terminal;html=1;pointerEvents=1;dashed=0;fillColor=#036897;strokeColor=#ffffff;strokeWidth=2;verticalLabelPosition=bottom;verticalAlign=top;align=center;outlineConnect=0;" parent="ibsxyXEcNVTKywFEW7vz-24" vertex="1">
          <mxGeometry x="6.5" y="20" width="49.7" height="44" as="geometry" />
        </mxCell>
        <mxCell id="ibsxyXEcNVTKywFEW7vz-77" value="" style="shape=mxgraph.cisco.computers_and_peripherals.terminal;html=1;pointerEvents=1;dashed=0;fillColor=#036897;strokeColor=#ffffff;strokeWidth=2;verticalLabelPosition=bottom;verticalAlign=top;align=center;outlineConnect=0;" parent="ibsxyXEcNVTKywFEW7vz-24" vertex="1">
          <mxGeometry x="6.5" y="165" width="49.7" height="44" as="geometry" />
        </mxCell>
        <mxCell id="ibsxyXEcNVTKywFEW7vz-79" value="" style="shape=mxgraph.cisco.computers_and_peripherals.laptop;html=1;pointerEvents=1;dashed=0;fillColor=#036897;strokeColor=#ffffff;strokeWidth=2;verticalLabelPosition=bottom;verticalAlign=top;align=center;outlineConnect=0;" parent="ibsxyXEcNVTKywFEW7vz-24" vertex="1">
          <mxGeometry x="327.00000000000006" y="125" width="60.49" height="41" as="geometry" />
        </mxCell>
        <mxCell id="ibsxyXEcNVTKywFEW7vz-141" style="edgeStyle=orthogonalEdgeStyle;rounded=0;orthogonalLoop=1;jettySize=auto;html=1;endArrow=none;endFill=0;strokeWidth=5;fillColor=#b1ddf0;strokeColor=#10739e;" parent="ibsxyXEcNVTKywFEW7vz-24" source="ibsxyXEcNVTKywFEW7vz-80" target="ibsxyXEcNVTKywFEW7vz-76" edge="1">
          <mxGeometry relative="1" as="geometry">
            <Array as="points">
              <mxPoint x="167" y="42" />
              <mxPoint x="167" y="42" />
            </Array>
          </mxGeometry>
        </mxCell>
        <mxCell id="ibsxyXEcNVTKywFEW7vz-142" style="edgeStyle=orthogonalEdgeStyle;rounded=0;orthogonalLoop=1;jettySize=auto;html=1;exitX=0;exitY=0.75;exitDx=0;exitDy=0;endArrow=none;endFill=0;strokeWidth=5;fillColor=#b1ddf0;strokeColor=#10739e;" parent="ibsxyXEcNVTKywFEW7vz-24" source="ibsxyXEcNVTKywFEW7vz-80" target="ibsxyXEcNVTKywFEW7vz-75" edge="1">
          <mxGeometry relative="1" as="geometry">
            <Array as="points">
              <mxPoint x="177" y="105" />
            </Array>
          </mxGeometry>
        </mxCell>
        <mxCell id="ibsxyXEcNVTKywFEW7vz-143" style="edgeStyle=orthogonalEdgeStyle;rounded=0;orthogonalLoop=1;jettySize=auto;html=1;exitX=0;exitY=1;exitDx=0;exitDy=0;endArrow=none;endFill=0;strokeWidth=5;fillColor=#b1ddf0;strokeColor=#10739e;" parent="ibsxyXEcNVTKywFEW7vz-24" source="ibsxyXEcNVTKywFEW7vz-80" target="ibsxyXEcNVTKywFEW7vz-77" edge="1">
          <mxGeometry relative="1" as="geometry">
            <Array as="points">
              <mxPoint x="177" y="185" />
            </Array>
          </mxGeometry>
        </mxCell>
        <mxCell id="ibsxyXEcNVTKywFEW7vz-80" value="" style="image;html=1;image=img/lib/clip_art/networking/Switch_128x128.png" parent="ibsxyXEcNVTKywFEW7vz-24" vertex="1">
          <mxGeometry x="176.5" y="20" width="40" height="40" as="geometry" />
        </mxCell>
        <mxCell id="ibsxyXEcNVTKywFEW7vz-138" value="" style="endArrow=none;html=1;rounded=0;entryX=0.5;entryY=0;entryDx=0;entryDy=0;fillColor=#b1ddf0;strokeColor=#10739e;strokeWidth=5;" parent="ibsxyXEcNVTKywFEW7vz-24" source="ibsxyXEcNVTKywFEW7vz-80" target="ibsxyXEcNVTKywFEW7vz-5" edge="1">
          <mxGeometry width="50" height="50" relative="1" as="geometry">
            <mxPoint x="206.5" y="85" as="sourcePoint" />
            <mxPoint x="256.5" y="35" as="targetPoint" />
          </mxGeometry>
        </mxCell>
        <mxCell id="ibsxyXEcNVTKywFEW7vz-139" value="" style="endArrow=none;html=1;rounded=0;fillColor=#b1ddf0;strokeColor=#10739e;strokeWidth=5;entryX=0.908;entryY=0.001;entryDx=0;entryDy=0;entryPerimeter=0;" parent="ibsxyXEcNVTKywFEW7vz-24" source="ibsxyXEcNVTKywFEW7vz-74" target="ibsxyXEcNVTKywFEW7vz-5" edge="1">
          <mxGeometry width="50" height="50" relative="1" as="geometry">
            <mxPoint x="365" y="25" as="sourcePoint" />
            <mxPoint x="366.5" y="5" as="targetPoint" />
          </mxGeometry>
        </mxCell>
        <mxCell id="ibsxyXEcNVTKywFEW7vz-16" value="&lt;font style=&quot;font-size: 34px;&quot;&gt;&lt;b&gt;Sales &amp;amp; Marketing&lt;/b&gt;&lt;/font&gt;" style="text;html=1;align=center;verticalAlign=middle;whiteSpace=wrap;rounded=0;" parent="ibsxyXEcNVTKywFEW7vz-24" vertex="1">
          <mxGeometry x="146.5" y="315" width="130" height="30" as="geometry" />
        </mxCell>
        <mxCell id="iA_pLaTAwGUdi6S3K2DN-5" value="" style="sketch=0;pointerEvents=1;shadow=0;dashed=0;html=1;strokeColor=default;fillColor=#434445;aspect=fixed;labelPosition=center;verticalLabelPosition=bottom;verticalAlign=top;align=center;outlineConnect=0;shape=mxgraph.vvd.wi_fi;rotation=-225;strokeWidth=2;" vertex="1" parent="ibsxyXEcNVTKywFEW7vz-24">
          <mxGeometry x="351.25" y="84.25" width="31.5" height="31.5" as="geometry" />
        </mxCell>
        <mxCell id="iA_pLaTAwGUdi6S3K2DN-6" value="" style="image;html=1;image=img/lib/clip_art/computers/Printer_128x128.png;aspect=fixed;" vertex="1" parent="ibsxyXEcNVTKywFEW7vz-24">
          <mxGeometry x="6.5" y="235" width="60" height="60" as="geometry" />
        </mxCell>
        <mxCell id="iA_pLaTAwGUdi6S3K2DN-7" style="edgeStyle=orthogonalEdgeStyle;rounded=0;orthogonalLoop=1;jettySize=auto;html=1;endArrow=none;endFill=0;strokeWidth=5;fillColor=#b1ddf0;strokeColor=#10739e;" edge="1" parent="ibsxyXEcNVTKywFEW7vz-24" source="ibsxyXEcNVTKywFEW7vz-80" target="iA_pLaTAwGUdi6S3K2DN-6">
          <mxGeometry relative="1" as="geometry">
            <mxPoint x="187" y="165" as="sourcePoint" />
            <mxPoint x="66" y="290" as="targetPoint" />
            <Array as="points">
              <mxPoint x="177" y="265" />
            </Array>
          </mxGeometry>
        </mxCell>
        <mxCell id="ibsxyXEcNVTKywFEW7vz-10" value="" style="verticalLabelPosition=bottom;html=1;verticalAlign=top;align=center;shape=mxgraph.floorplan.couch;rotation=-90;strokeWidth=3;" parent="1" vertex="1">
          <mxGeometry x="440" y="2670" width="266" height="122" as="geometry" />
        </mxCell>
        <mxCell id="ibsxyXEcNVTKywFEW7vz-13" value="" style="verticalLabelPosition=bottom;html=1;verticalAlign=top;align=center;shape=mxgraph.floorplan.doorDouble;aspect=fixed;rotation=-180;strokeWidth=3;" parent="1" vertex="1">
          <mxGeometry x="916" y="2933" width="160" height="85" as="geometry" />
        </mxCell>
        <mxCell id="ibsxyXEcNVTKywFEW7vz-14" value="&lt;font style=&quot;font-size: 34px;&quot;&gt;&lt;b&gt;Lobby&lt;/b&gt;&lt;/font&gt;" style="text;html=1;align=center;verticalAlign=middle;whiteSpace=wrap;rounded=0;" parent="1" vertex="1">
          <mxGeometry x="929.5" y="2762" width="130" height="30" as="geometry" />
        </mxCell>
        <mxCell id="ibsxyXEcNVTKywFEW7vz-15" value="&lt;font style=&quot;font-size: 34px;&quot;&gt;&lt;b&gt;Ground Floor&lt;/b&gt;&lt;/font&gt;" style="text;html=1;align=center;verticalAlign=middle;whiteSpace=wrap;rounded=0;" parent="1" vertex="1">
          <mxGeometry x="872.5" y="3080" width="244" height="30" as="geometry" />
        </mxCell>
        <mxCell id="ibsxyXEcNVTKywFEW7vz-19" value="" style="whiteSpace=wrap;html=1;aspect=fixed;strokeWidth=4;" parent="1" vertex="1">
          <mxGeometry x="1572" y="2033" width="985" height="985" as="geometry" />
        </mxCell>
        <mxCell id="ibsxyXEcNVTKywFEW7vz-21" value="&lt;font style=&quot;font-size: 34px;&quot;&gt;&lt;b&gt;First Floor&lt;/b&gt;&lt;/font&gt;" style="text;html=1;align=center;verticalAlign=middle;whiteSpace=wrap;rounded=0;" parent="1" vertex="1">
          <mxGeometry x="1964" y="3070" width="244" height="30" as="geometry" />
        </mxCell>
        <mxCell id="ibsxyXEcNVTKywFEW7vz-27" value="" style="group;strokeColor=default;strokeWidth=4;" parent="1" vertex="1" connectable="0">
          <mxGeometry x="2148" y="2035" width="407.5" height="407" as="geometry" />
        </mxCell>
        <mxCell id="ibsxyXEcNVTKywFEW7vz-28" value="" style="whiteSpace=wrap;html=1;aspect=fixed;" parent="ibsxyXEcNVTKywFEW7vz-27" vertex="1">
          <mxGeometry x="0.5" width="407" height="407" as="geometry" />
        </mxCell>
        <mxCell id="ibsxyXEcNVTKywFEW7vz-29" value="" style="verticalLabelPosition=bottom;html=1;verticalAlign=top;align=center;shape=mxgraph.floorplan.doorLeft;aspect=fixed;rotation=-90;strokeWidth=3;" parent="ibsxyXEcNVTKywFEW7vz-27" vertex="1">
          <mxGeometry x="2.5" y="322" width="80" height="85" as="geometry" />
        </mxCell>
        <mxCell id="ibsxyXEcNVTKywFEW7vz-51" value="&lt;font style=&quot;font-size: 34px;&quot;&gt;&lt;b&gt;Legal&lt;/b&gt;&lt;/font&gt;" style="text;html=1;align=center;verticalAlign=middle;whiteSpace=wrap;rounded=0;" parent="ibsxyXEcNVTKywFEW7vz-27" vertex="1">
          <mxGeometry x="139" y="188.5" width="130" height="30" as="geometry" />
        </mxCell>
        <mxCell id="ibsxyXEcNVTKywFEW7vz-89" value="" style="shape=mxgraph.cisco.computers_and_peripherals.terminal;html=1;pointerEvents=1;dashed=0;fillColor=#036897;strokeColor=#ffffff;strokeWidth=2;verticalLabelPosition=bottom;verticalAlign=top;align=center;outlineConnect=0;" parent="ibsxyXEcNVTKywFEW7vz-27" vertex="1">
          <mxGeometry x="139" y="43" width="49.7" height="44" as="geometry" />
        </mxCell>
        <mxCell id="ibsxyXEcNVTKywFEW7vz-156" style="edgeStyle=orthogonalEdgeStyle;rounded=0;orthogonalLoop=1;jettySize=auto;html=1;exitX=0.5;exitY=0;exitDx=0;exitDy=0;endArrow=none;endFill=0;strokeWidth=5;fillColor=#b1ddf0;strokeColor=#10739e;" parent="ibsxyXEcNVTKywFEW7vz-27" source="ibsxyXEcNVTKywFEW7vz-90" target="ibsxyXEcNVTKywFEW7vz-28" edge="1">
          <mxGeometry relative="1" as="geometry">
            <Array as="points">
              <mxPoint x="242" y="15" />
              <mxPoint x="242" y="15" />
            </Array>
          </mxGeometry>
        </mxCell>
        <mxCell id="ibsxyXEcNVTKywFEW7vz-157" style="edgeStyle=orthogonalEdgeStyle;rounded=0;orthogonalLoop=1;jettySize=auto;html=1;exitX=0;exitY=0.5;exitDx=0;exitDy=0;endArrow=none;endFill=0;strokeWidth=5;fillColor=#b1ddf0;strokeColor=#10739e;" parent="ibsxyXEcNVTKywFEW7vz-27" source="ibsxyXEcNVTKywFEW7vz-90" target="ibsxyXEcNVTKywFEW7vz-89" edge="1">
          <mxGeometry relative="1" as="geometry">
            <Array as="points">
              <mxPoint x="229" y="65" />
            </Array>
          </mxGeometry>
        </mxCell>
        <mxCell id="ibsxyXEcNVTKywFEW7vz-90" value="" style="image;html=1;image=img/lib/clip_art/networking/Switch_128x128.png" parent="ibsxyXEcNVTKywFEW7vz-27" vertex="1">
          <mxGeometry x="229" y="43" width="40" height="40" as="geometry" />
        </mxCell>
        <mxCell id="ibsxyXEcNVTKywFEW7vz-30" value="" style="group;strokeColor=default;strokeWidth=4;" parent="1" vertex="1" connectable="0">
          <mxGeometry x="1572" y="2035" width="409.5" height="407" as="geometry" />
        </mxCell>
        <mxCell id="ibsxyXEcNVTKywFEW7vz-31" value="" style="whiteSpace=wrap;html=1;aspect=fixed;" parent="ibsxyXEcNVTKywFEW7vz-30" vertex="1">
          <mxGeometry width="407" height="407" as="geometry" />
        </mxCell>
        <mxCell id="ibsxyXEcNVTKywFEW7vz-32" value="" style="verticalLabelPosition=bottom;html=1;verticalAlign=top;align=center;shape=mxgraph.floorplan.doorRight;aspect=fixed;rotation=90;strokeWidth=3;" parent="ibsxyXEcNVTKywFEW7vz-30" vertex="1">
          <mxGeometry x="327" y="322" width="80" height="85" as="geometry" />
        </mxCell>
        <mxCell id="ibsxyXEcNVTKywFEW7vz-42" value="&lt;font style=&quot;font-size: 34px;&quot;&gt;&lt;b&gt;Human Resource&lt;/b&gt;&lt;/font&gt;" style="text;html=1;align=center;verticalAlign=middle;whiteSpace=wrap;rounded=0;" parent="ibsxyXEcNVTKywFEW7vz-30" vertex="1">
          <mxGeometry x="138.5" y="325" width="130" height="30" as="geometry" />
        </mxCell>
        <mxCell id="ibsxyXEcNVTKywFEW7vz-86" value="" style="shape=mxgraph.cisco.computers_and_peripherals.terminal;html=1;pointerEvents=1;dashed=0;fillColor=#036897;strokeColor=#ffffff;strokeWidth=2;verticalLabelPosition=bottom;verticalAlign=top;align=center;outlineConnect=0;" parent="ibsxyXEcNVTKywFEW7vz-30" vertex="1">
          <mxGeometry x="108" y="105" width="49.7" height="44" as="geometry" />
        </mxCell>
        <mxCell id="ibsxyXEcNVTKywFEW7vz-87" value="" style="shape=mxgraph.cisco.computers_and_peripherals.terminal;html=1;pointerEvents=1;dashed=0;fillColor=#036897;strokeColor=#ffffff;strokeWidth=2;verticalLabelPosition=bottom;verticalAlign=top;align=center;outlineConnect=0;" parent="ibsxyXEcNVTKywFEW7vz-30" vertex="1">
          <mxGeometry x="108" y="34" width="49.7" height="44" as="geometry" />
        </mxCell>
        <mxCell id="ibsxyXEcNVTKywFEW7vz-153" style="edgeStyle=orthogonalEdgeStyle;rounded=0;orthogonalLoop=1;jettySize=auto;html=1;endArrow=none;endFill=0;strokeWidth=6;fillColor=#b1ddf0;strokeColor=#10739e;" parent="ibsxyXEcNVTKywFEW7vz-30" source="ibsxyXEcNVTKywFEW7vz-88" edge="1">
          <mxGeometry relative="1" as="geometry">
            <mxPoint x="308" y="5" as="targetPoint" />
            <Array as="points">
              <mxPoint x="308" />
            </Array>
          </mxGeometry>
        </mxCell>
        <mxCell id="ibsxyXEcNVTKywFEW7vz-154" style="edgeStyle=orthogonalEdgeStyle;rounded=0;orthogonalLoop=1;jettySize=auto;html=1;exitX=0;exitY=0.5;exitDx=0;exitDy=0;endArrow=none;endFill=0;strokeWidth=5;fillColor=#b1ddf0;strokeColor=#10739e;" parent="ibsxyXEcNVTKywFEW7vz-30" source="ibsxyXEcNVTKywFEW7vz-88" target="ibsxyXEcNVTKywFEW7vz-87" edge="1">
          <mxGeometry relative="1" as="geometry">
            <Array as="points">
              <mxPoint x="287" y="60" />
            </Array>
          </mxGeometry>
        </mxCell>
        <mxCell id="ibsxyXEcNVTKywFEW7vz-155" style="edgeStyle=orthogonalEdgeStyle;rounded=0;orthogonalLoop=1;jettySize=auto;html=1;exitX=0.25;exitY=1;exitDx=0;exitDy=0;endArrow=none;endFill=0;strokeWidth=5;fillColor=#b1ddf0;strokeColor=#10739e;" parent="ibsxyXEcNVTKywFEW7vz-30" source="ibsxyXEcNVTKywFEW7vz-88" target="ibsxyXEcNVTKywFEW7vz-86" edge="1">
          <mxGeometry relative="1" as="geometry">
            <Array as="points">
              <mxPoint x="297" y="125" />
            </Array>
          </mxGeometry>
        </mxCell>
        <mxCell id="ibsxyXEcNVTKywFEW7vz-88" value="" style="image;html=1;image=img/lib/clip_art/networking/Switch_128x128.png" parent="ibsxyXEcNVTKywFEW7vz-30" vertex="1">
          <mxGeometry x="287" y="38" width="40" height="40" as="geometry" />
        </mxCell>
        <mxCell id="iA_pLaTAwGUdi6S3K2DN-10" value="" style="image;html=1;image=img/lib/clip_art/computers/Printer_128x128.png;aspect=fixed;" vertex="1" parent="ibsxyXEcNVTKywFEW7vz-30">
          <mxGeometry x="108" y="173.5" width="60" height="60" as="geometry" />
        </mxCell>
        <mxCell id="iA_pLaTAwGUdi6S3K2DN-11" style="edgeStyle=orthogonalEdgeStyle;rounded=0;orthogonalLoop=1;jettySize=auto;html=1;endArrow=none;endFill=0;strokeWidth=5;fillColor=#b1ddf0;strokeColor=#10739e;" edge="1" parent="ibsxyXEcNVTKywFEW7vz-30" target="iA_pLaTAwGUdi6S3K2DN-10" source="ibsxyXEcNVTKywFEW7vz-88">
          <mxGeometry relative="1" as="geometry">
            <mxPoint x="301" y="85" as="sourcePoint" />
            <mxPoint x="168" y="300" as="targetPoint" />
            <Array as="points">
              <mxPoint x="298" y="205" />
            </Array>
          </mxGeometry>
        </mxCell>
        <mxCell id="ibsxyXEcNVTKywFEW7vz-39" value="" style="group;rotation=90;strokeWidth=4;strokeColor=default;" parent="1" vertex="1" connectable="0">
          <mxGeometry x="1668.5" y="2511.5" width="410" height="607" as="geometry" />
        </mxCell>
        <mxCell id="ibsxyXEcNVTKywFEW7vz-41" value="" style="verticalLabelPosition=bottom;html=1;verticalAlign=top;align=center;shape=mxgraph.floorplan.doorLeft;aspect=fixed;rotation=90;strokeWidth=3;" parent="ibsxyXEcNVTKywFEW7vz-39" vertex="1">
          <mxGeometry x="451.4965074135091" y="98.5" width="54.03624382207578" height="57.41350906095552" as="geometry" />
        </mxCell>
        <mxCell id="ibsxyXEcNVTKywFEW7vz-52" value="&lt;font style=&quot;font-size: 34px;&quot;&gt;&lt;b&gt;Finance&lt;/b&gt;&lt;/font&gt;" style="text;html=1;align=center;verticalAlign=middle;whiteSpace=wrap;rounded=0;" parent="ibsxyXEcNVTKywFEW7vz-39" vertex="1">
          <mxGeometry x="161.0943492586491" y="155.91" width="87.80889621087314" height="30" as="geometry" />
        </mxCell>
        <mxCell id="ibsxyXEcNVTKywFEW7vz-91" value="" style="shape=mxgraph.cisco.computers_and_peripherals.terminal;html=1;pointerEvents=1;dashed=0;fillColor=#036897;strokeColor=#ffffff;strokeWidth=2;verticalLabelPosition=bottom;verticalAlign=top;align=center;outlineConnect=0;" parent="ibsxyXEcNVTKywFEW7vz-39" vertex="1">
          <mxGeometry x="141.49683690280065" y="298.5" width="44" height="44" as="geometry" />
        </mxCell>
        <mxCell id="ibsxyXEcNVTKywFEW7vz-159" style="edgeStyle=orthogonalEdgeStyle;rounded=0;orthogonalLoop=1;jettySize=auto;html=1;fillColor=#b1ddf0;strokeColor=#10739e;strokeWidth=5;endArrow=none;endFill=0;" parent="ibsxyXEcNVTKywFEW7vz-39" source="ibsxyXEcNVTKywFEW7vz-92" target="ibsxyXEcNVTKywFEW7vz-91" edge="1">
          <mxGeometry relative="1" as="geometry">
            <Array as="points">
              <mxPoint x="298" y="409" />
              <mxPoint x="162" y="409" />
            </Array>
          </mxGeometry>
        </mxCell>
        <mxCell id="ibsxyXEcNVTKywFEW7vz-160" style="edgeStyle=orthogonalEdgeStyle;rounded=0;orthogonalLoop=1;jettySize=auto;html=1;fillColor=#b1ddf0;strokeColor=#10739e;strokeWidth=5;endArrow=none;endFill=0;" parent="ibsxyXEcNVTKywFEW7vz-39" target="ibsxyXEcNVTKywFEW7vz-94" edge="1" source="ibsxyXEcNVTKywFEW7vz-92">
          <mxGeometry relative="1" as="geometry">
            <mxPoint x="284.3657331136738" y="479" as="sourcePoint" />
            <Array as="points">
              <mxPoint x="296" y="429" />
              <mxPoint x="296" y="429" />
            </Array>
          </mxGeometry>
        </mxCell>
        <mxCell id="ibsxyXEcNVTKywFEW7vz-161" style="edgeStyle=orthogonalEdgeStyle;rounded=0;orthogonalLoop=1;jettySize=auto;html=1;fillColor=#b1ddf0;strokeColor=#10739e;strokeWidth=5;endArrow=none;endFill=0;" parent="ibsxyXEcNVTKywFEW7vz-39" source="ibsxyXEcNVTKywFEW7vz-92" target="ibsxyXEcNVTKywFEW7vz-95" edge="1">
          <mxGeometry relative="1" as="geometry">
            <Array as="points">
              <mxPoint x="298" y="409" />
              <mxPoint x="444" y="409" />
            </Array>
          </mxGeometry>
        </mxCell>
        <mxCell id="ibsxyXEcNVTKywFEW7vz-92" value="&lt;span style=&quot;color: rgba(0, 0, 0, 0); font-family: monospace; font-size: 0px; text-align: start; background-color: rgb(251, 251, 251);&quot;&gt;%3CmxGraphModel%3E%3Croot%3E%3CmxCell%20id%3D%220%22%2F%3E%3CmxCell%20id%3D%221%22%20parent%3D%220%22%2F%3E%3CmxCell%20id%3D%222%22%20value%3D%22ISP%22%20style%3D%22image%3Baspect%3Dfixed%3Bperimeter%3DellipsePerimeter%3Bhtml%3D1%3Balign%3Dcenter%3Bshadow%3D0%3Bdashed%3D0%3BspacingTop%3D3%3Bimage%3Dimg%2Flib%2Factive_directory%2Finternet_cloud.svg%3B%22%20vertex%3D%221%22%20parent%3D%221%22%3E%3CmxGeometry%20x%3D%22952%22%20y%3D%221870%22%20width%3D%22112%22%20height%3D%2270.56%22%20as%3D%22geometry%22%2F%3E%3C%2FmxCell%3E%3CmxCell%20id%3D%223%22%20style%3D%22edgeStyle%3DorthogonalEdgeStyle%3Brounded%3D0%3BorthogonalLoop%3D1%3BjettySize%3Dauto%3Bhtml%3D1%3BexitX%3D0.5%3BexitY%3D1%3BexitDx%3D0%3BexitDy%3D0%3BendArrow%3Dnone%3BendFill%3D0%3BfillColor%3D%23b1ddf0%3BstrokeColor%3D%2310739e%3BstrokeWidth%3D2%3BentryX%3D0.516%3BentryY%3D0.001%3BentryDx%3D0%3BentryDy%3D0%3BentryPerimeter%3D0%3B%22%20edge%3D%221%22%20source%3D%222%22%20parent%3D%221%22%3E%3CmxGeometry%20relative%3D%221%22%20as%3D%22geometry%22%3E%3CmxPoint%20x%3D%221010%22%20y%3D%222036%22%20as%3D%22targetPoint%22%2F%3E%3CArray%20as%3D%22points%22%3E%3CmxPoint%20x%3D%221008%22%20y%3D%222036%22%2F%3E%3C%2FArray%3E%3C%2FmxGeometry%3E%3C%2FmxCell%3E%3CmxCell%20id%3D%224%22%20value%3D%22%22%20style%3D%22endArrow%3Dnone%3Bhtml%3D1%3Brounded%3D0%3BfillColor%3D%23b1ddf0%3BstrokeColor%3D%2310739e%3BstrokeWidth%3D2%3BexitX%3D0.501%3BexitY%3D0.007%3BexitDx%3D0%3BexitDy%3D0%3BexitPerimeter%3D0%3BentryX%3D0.639%3BentryY%3D0.005%3BentryDx%3D0%3BentryDy%3D0%3BentryPerimeter%3D0%3B%22%20edge%3D%221%22%20parent%3D%221%22%3E%3CmxGeometry%20width%3D%2250%22%20height%3D%2250%22%20relative%3D%221%22%20as%3D%22geometry%22%3E%3CmxPoint%20x%3D%22707%22%20y%3D%222038%22%20as%3D%22sourcePoint%22%2F%3E%3CmxPoint%20x%3D%221340%22%20y%3D%222037%22%20as%3D%22targetPoint%22%2F%3E%3C%2FmxGeometry%3E%3C%2FmxCell%3E%3CmxCell%20id%3D%225%22%20value%3D%22Cat%205%22%20style%3D%22edgeLabel%3Bhtml%3D1%3Balign%3Dcenter%3BverticalAlign%3Dmiddle%3Bresizable%3D0%3Bpoints%3D%5B%5D%3B%22%20vertex%3D%221%22%20connectable%3D%220%22%20parent%3D%224%22%3E%3CmxGeometry%20x%3D%22-0.0764%22%20y%3D%22-2%22%20relative%3D%221%22%20as%3D%22geometry%22%3E%3CmxPoint%20as%3D%22offset%22%2F%3E%3C%2FmxGeometry%3E%3C%2FmxCell%3E%3C%2Froot%3E%3C%2FmxGraphModel%3E&lt;/span&gt;" style="image;html=1;image=img/lib/clip_art/networking/Switch_128x128.png;aspect=fixed;imageBackground=none;clipPath=inset(0% 0% 0% 0%);" parent="ibsxyXEcNVTKywFEW7vz-39" vertex="1">
          <mxGeometry x="277.6112026359143" y="439" width="40" height="21.26984126984127" as="geometry" />
        </mxCell>
        <mxCell id="ibsxyXEcNVTKywFEW7vz-97" value="" style="shape=mxgraph.cisco.computers_and_peripherals.terminal;html=1;pointerEvents=1;dashed=0;fillColor=#036897;strokeColor=#ffffff;strokeWidth=2;verticalLabelPosition=bottom;verticalAlign=top;align=center;outlineConnect=0;" parent="ibsxyXEcNVTKywFEW7vz-39" vertex="1">
          <mxGeometry x="-68.31813838550246" y="298.5" width="44" height="44" as="geometry" />
        </mxCell>
        <mxCell id="ibsxyXEcNVTKywFEW7vz-96" value="" style="shape=mxgraph.cisco.computers_and_peripherals.terminal;html=1;pointerEvents=1;dashed=0;fillColor=#036897;strokeColor=#ffffff;strokeWidth=2;verticalLabelPosition=bottom;verticalAlign=top;align=center;outlineConnect=0;" parent="ibsxyXEcNVTKywFEW7vz-39" vertex="1">
          <mxGeometry x="61.49810543657331" y="298.5" width="44" height="44" as="geometry" />
        </mxCell>
        <mxCell id="ibsxyXEcNVTKywFEW7vz-95" value="" style="shape=mxgraph.cisco.computers_and_peripherals.terminal;html=1;pointerEvents=1;dashed=0;fillColor=#036897;strokeColor=#ffffff;strokeWidth=2;verticalLabelPosition=bottom;verticalAlign=top;align=center;outlineConnect=0;" parent="ibsxyXEcNVTKywFEW7vz-39" vertex="1">
          <mxGeometry x="421.5043492586491" y="298.5" width="44" height="44" as="geometry" />
        </mxCell>
        <mxCell id="ibsxyXEcNVTKywFEW7vz-94" value="" style="shape=mxgraph.cisco.computers_and_peripherals.terminal;html=1;pointerEvents=1;dashed=0;fillColor=#036897;strokeColor=#ffffff;strokeWidth=2;verticalLabelPosition=bottom;verticalAlign=top;align=center;outlineConnect=0;" parent="ibsxyXEcNVTKywFEW7vz-39" vertex="1">
          <mxGeometry x="273.6132289950576" y="298.5" width="44" height="44" as="geometry" />
        </mxCell>
        <mxCell id="ibsxyXEcNVTKywFEW7vz-168" style="edgeStyle=orthogonalEdgeStyle;rounded=0;orthogonalLoop=1;jettySize=auto;html=1;endArrow=none;endFill=0;strokeWidth=5;fillColor=#b1ddf0;strokeColor=#10739e;" parent="ibsxyXEcNVTKywFEW7vz-39" source="ibsxyXEcNVTKywFEW7vz-167" target="ibsxyXEcNVTKywFEW7vz-97" edge="1">
          <mxGeometry relative="1" as="geometry">
            <mxPoint x="0.6754530477759473" y="409" as="targetPoint" />
            <Array as="points">
              <mxPoint x="22" y="459" />
              <mxPoint x="22" y="321" />
            </Array>
          </mxGeometry>
        </mxCell>
        <mxCell id="ibsxyXEcNVTKywFEW7vz-170" style="edgeStyle=orthogonalEdgeStyle;rounded=0;orthogonalLoop=1;jettySize=auto;html=1;endArrow=none;endFill=0;strokeWidth=5;fillColor=#b1ddf0;strokeColor=#10739e;" parent="ibsxyXEcNVTKywFEW7vz-39" source="ibsxyXEcNVTKywFEW7vz-167" target="ibsxyXEcNVTKywFEW7vz-96" edge="1">
          <mxGeometry relative="1" as="geometry">
            <Array as="points">
              <mxPoint x="22" y="459" />
              <mxPoint x="22" y="321" />
            </Array>
          </mxGeometry>
        </mxCell>
        <mxCell id="ibsxyXEcNVTKywFEW7vz-172" style="edgeStyle=orthogonalEdgeStyle;rounded=0;orthogonalLoop=1;jettySize=auto;html=1;strokeWidth=5;fillColor=#b1ddf0;strokeColor=#10739e;endArrow=none;endFill=0;" parent="ibsxyXEcNVTKywFEW7vz-39" source="ibsxyXEcNVTKywFEW7vz-167" edge="1">
          <mxGeometry relative="1" as="geometry">
            <mxPoint x="-88.5" y="455.5" as="targetPoint" />
            <Array as="points">
              <mxPoint x="-71" y="456" />
            </Array>
          </mxGeometry>
        </mxCell>
        <mxCell id="ibsxyXEcNVTKywFEW7vz-167" value="&lt;span style=&quot;color: rgba(0, 0, 0, 0); font-family: monospace; font-size: 0px; text-align: start; background-color: rgb(251, 251, 251);&quot;&gt;%3CmxGraphModel%3E%3Croot%3E%3CmxCell%20id%3D%220%22%2F%3E%3CmxCell%20id%3D%221%22%20parent%3D%220%22%2F%3E%3CmxCell%20id%3D%222%22%20value%3D%22ISP%22%20style%3D%22image%3Baspect%3Dfixed%3Bperimeter%3DellipsePerimeter%3Bhtml%3D1%3Balign%3Dcenter%3Bshadow%3D0%3Bdashed%3D0%3BspacingTop%3D3%3Bimage%3Dimg%2Flib%2Factive_directory%2Finternet_cloud.svg%3B%22%20vertex%3D%221%22%20parent%3D%221%22%3E%3CmxGeometry%20x%3D%22952%22%20y%3D%221870%22%20width%3D%22112%22%20height%3D%2270.56%22%20as%3D%22geometry%22%2F%3E%3C%2FmxCell%3E%3CmxCell%20id%3D%223%22%20style%3D%22edgeStyle%3DorthogonalEdgeStyle%3Brounded%3D0%3BorthogonalLoop%3D1%3BjettySize%3Dauto%3Bhtml%3D1%3BexitX%3D0.5%3BexitY%3D1%3BexitDx%3D0%3BexitDy%3D0%3BendArrow%3Dnone%3BendFill%3D0%3BfillColor%3D%23b1ddf0%3BstrokeColor%3D%2310739e%3BstrokeWidth%3D2%3BentryX%3D0.516%3BentryY%3D0.001%3BentryDx%3D0%3BentryDy%3D0%3BentryPerimeter%3D0%3B%22%20edge%3D%221%22%20source%3D%222%22%20parent%3D%221%22%3E%3CmxGeometry%20relative%3D%221%22%20as%3D%22geometry%22%3E%3CmxPoint%20x%3D%221010%22%20y%3D%222036%22%20as%3D%22targetPoint%22%2F%3E%3CArray%20as%3D%22points%22%3E%3CmxPoint%20x%3D%221008%22%20y%3D%222036%22%2F%3E%3C%2FArray%3E%3C%2FmxGeometry%3E%3C%2FmxCell%3E%3CmxCell%20id%3D%224%22%20value%3D%22%22%20style%3D%22endArrow%3Dnone%3Bhtml%3D1%3Brounded%3D0%3BfillColor%3D%23b1ddf0%3BstrokeColor%3D%2310739e%3BstrokeWidth%3D2%3BexitX%3D0.501%3BexitY%3D0.007%3BexitDx%3D0%3BexitDy%3D0%3BexitPerimeter%3D0%3BentryX%3D0.639%3BentryY%3D0.005%3BentryDx%3D0%3BentryDy%3D0%3BentryPerimeter%3D0%3B%22%20edge%3D%221%22%20parent%3D%221%22%3E%3CmxGeometry%20width%3D%2250%22%20height%3D%2250%22%20relative%3D%221%22%20as%3D%22geometry%22%3E%3CmxPoint%20x%3D%22707%22%20y%3D%222038%22%20as%3D%22sourcePoint%22%2F%3E%3CmxPoint%20x%3D%221340%22%20y%3D%222037%22%20as%3D%22targetPoint%22%2F%3E%3C%2FmxGeometry%3E%3C%2FmxCell%3E%3CmxCell%20id%3D%225%22%20value%3D%22Cat%205%22%20style%3D%22edgeLabel%3Bhtml%3D1%3Balign%3Dcenter%3BverticalAlign%3Dmiddle%3Bresizable%3D0%3Bpoints%3D%5B%5D%3B%22%20vertex%3D%221%22%20connectable%3D%220%22%20parent%3D%224%22%3E%3CmxGeometry%20x%3D%22-0.0764%22%20y%3D%22-2%22%20relative%3D%221%22%20as%3D%22geometry%22%3E%3CmxPoint%20as%3D%22offset%22%2F%3E%3C%2FmxGeometry%3E%3C%2FmxCell%3E%3C%2Froot%3E%3C%2FmxGraphModel%3E&lt;/span&gt;" style="image;html=1;image=img/lib/clip_art/networking/Switch_128x128.png;aspect=fixed;" parent="ibsxyXEcNVTKywFEW7vz-39" vertex="1">
          <mxGeometry x="-51.33443163097199" y="435" width="40" height="59.21" as="geometry" />
        </mxCell>
        <mxCell id="ibsxyXEcNVTKywFEW7vz-57" value="" style="whiteSpace=wrap;html=1;aspect=fixed;strokeWidth=4;" parent="1" vertex="1">
          <mxGeometry x="2670" y="2033" width="985" height="985" as="geometry" />
        </mxCell>
        <mxCell id="ibsxyXEcNVTKywFEW7vz-58" value="&lt;font style=&quot;font-size: 34px;&quot;&gt;&lt;b&gt;Second Floor&lt;/b&gt;&lt;/font&gt;" style="text;html=1;align=center;verticalAlign=middle;whiteSpace=wrap;rounded=0;" parent="1" vertex="1">
          <mxGeometry x="3062" y="3070" width="244" height="30" as="geometry" />
        </mxCell>
        <mxCell id="ibsxyXEcNVTKywFEW7vz-59" value="" style="group;strokeColor=default;strokeWidth=4;" parent="1" vertex="1" connectable="0">
          <mxGeometry x="3246" y="2034" width="407.5" height="407" as="geometry" />
        </mxCell>
        <mxCell id="ibsxyXEcNVTKywFEW7vz-60" value="" style="whiteSpace=wrap;html=1;aspect=fixed;" parent="ibsxyXEcNVTKywFEW7vz-59" vertex="1">
          <mxGeometry x="0.5" width="407" height="407" as="geometry" />
        </mxCell>
        <mxCell id="ibsxyXEcNVTKywFEW7vz-61" value="" style="verticalLabelPosition=bottom;html=1;verticalAlign=top;align=center;shape=mxgraph.floorplan.doorLeft;aspect=fixed;rotation=-90;strokeWidth=3;" parent="ibsxyXEcNVTKywFEW7vz-59" vertex="1">
          <mxGeometry x="2.5" y="325" width="80" height="85" as="geometry" />
        </mxCell>
        <mxCell id="ibsxyXEcNVTKywFEW7vz-62" value="&lt;font style=&quot;font-size: 34px;&quot;&gt;&lt;b&gt;Server Room&lt;/b&gt;&lt;/font&gt;" style="text;html=1;align=center;verticalAlign=middle;whiteSpace=wrap;rounded=0;" parent="ibsxyXEcNVTKywFEW7vz-59" vertex="1">
          <mxGeometry x="139" y="188.5" width="130" height="30" as="geometry" />
        </mxCell>
        <mxCell id="ibsxyXEcNVTKywFEW7vz-119" value="" style="sketch=0;outlineConnect=0;fontColor=#232F3E;gradientColor=none;fillColor=#232F3D;strokeColor=none;dashed=0;verticalLabelPosition=bottom;verticalAlign=top;align=center;html=1;fontSize=12;fontStyle=0;aspect=fixed;pointerEvents=1;shape=mxgraph.aws4.servers;" parent="ibsxyXEcNVTKywFEW7vz-59" vertex="1">
          <mxGeometry x="82.5" y="86" width="50" height="50" as="geometry" />
        </mxCell>
        <mxCell id="ibsxyXEcNVTKywFEW7vz-121" value="" style="sketch=0;outlineConnect=0;fontColor=#232F3E;gradientColor=none;fillColor=#232F3D;strokeColor=none;dashed=0;verticalLabelPosition=bottom;verticalAlign=top;align=center;html=1;fontSize=12;fontStyle=0;aspect=fixed;pointerEvents=1;shape=mxgraph.aws4.servers;" parent="ibsxyXEcNVTKywFEW7vz-59" vertex="1">
          <mxGeometry x="289" y="86" width="51" height="51" as="geometry" />
        </mxCell>
        <mxCell id="ibsxyXEcNVTKywFEW7vz-122" value="" style="sketch=0;outlineConnect=0;fontColor=#232F3E;gradientColor=none;fillColor=#232F3D;strokeColor=none;dashed=0;verticalLabelPosition=bottom;verticalAlign=top;align=center;html=1;fontSize=12;fontStyle=0;aspect=fixed;pointerEvents=1;shape=mxgraph.aws4.servers;" parent="ibsxyXEcNVTKywFEW7vz-59" vertex="1">
          <mxGeometry x="149" y="86" width="50" height="50" as="geometry" />
        </mxCell>
        <mxCell id="ibsxyXEcNVTKywFEW7vz-123" value="" style="sketch=0;outlineConnect=0;fontColor=#232F3E;gradientColor=none;fillColor=#232F3D;strokeColor=none;dashed=0;verticalLabelPosition=bottom;verticalAlign=top;align=center;html=1;fontSize=12;fontStyle=0;aspect=fixed;pointerEvents=1;shape=mxgraph.aws4.servers;" parent="ibsxyXEcNVTKywFEW7vz-59" vertex="1">
          <mxGeometry x="219" y="86" width="50" height="50" as="geometry" />
        </mxCell>
        <mxCell id="ibsxyXEcNVTKywFEW7vz-174" style="edgeStyle=orthogonalEdgeStyle;rounded=0;orthogonalLoop=1;jettySize=auto;html=1;exitX=0.5;exitY=0;exitDx=0;exitDy=0;endArrow=none;endFill=0;strokeWidth=5;fillColor=#b1ddf0;strokeColor=#10739e;" parent="ibsxyXEcNVTKywFEW7vz-59" source="ibsxyXEcNVTKywFEW7vz-173" target="ibsxyXEcNVTKywFEW7vz-60" edge="1">
          <mxGeometry relative="1" as="geometry">
            <Array as="points">
              <mxPoint x="214" y="36" />
              <mxPoint x="214" y="36" />
            </Array>
          </mxGeometry>
        </mxCell>
        <mxCell id="ibsxyXEcNVTKywFEW7vz-175" style="edgeStyle=orthogonalEdgeStyle;rounded=0;orthogonalLoop=1;jettySize=auto;html=1;endArrow=none;endFill=0;strokeWidth=5;fillColor=#b1ddf0;strokeColor=#10739e;" parent="ibsxyXEcNVTKywFEW7vz-59" source="ibsxyXEcNVTKywFEW7vz-173" target="ibsxyXEcNVTKywFEW7vz-119" edge="1">
          <mxGeometry relative="1" as="geometry">
            <Array as="points">
              <mxPoint x="108" y="56" />
            </Array>
          </mxGeometry>
        </mxCell>
        <mxCell id="ibsxyXEcNVTKywFEW7vz-176" style="edgeStyle=orthogonalEdgeStyle;rounded=0;orthogonalLoop=1;jettySize=auto;html=1;exitX=0;exitY=0.75;exitDx=0;exitDy=0;endArrow=none;endFill=0;strokeWidth=5;fillColor=#b1ddf0;strokeColor=#10739e;" parent="ibsxyXEcNVTKywFEW7vz-59" source="ibsxyXEcNVTKywFEW7vz-173" target="ibsxyXEcNVTKywFEW7vz-122" edge="1">
          <mxGeometry relative="1" as="geometry" />
        </mxCell>
        <mxCell id="ibsxyXEcNVTKywFEW7vz-178" style="edgeStyle=orthogonalEdgeStyle;rounded=0;orthogonalLoop=1;jettySize=auto;html=1;endArrow=none;endFill=0;strokeWidth=5;fillColor=#b1ddf0;strokeColor=#10739e;" parent="ibsxyXEcNVTKywFEW7vz-59" target="ibsxyXEcNVTKywFEW7vz-123" edge="1">
          <mxGeometry relative="1" as="geometry">
            <mxPoint x="244" y="56" as="sourcePoint" />
            <Array as="points">
              <mxPoint x="244" y="66" />
            </Array>
          </mxGeometry>
        </mxCell>
        <mxCell id="ibsxyXEcNVTKywFEW7vz-179" style="edgeStyle=orthogonalEdgeStyle;rounded=0;orthogonalLoop=1;jettySize=auto;html=1;exitX=1;exitY=0.75;exitDx=0;exitDy=0;endArrow=none;endFill=0;strokeWidth=5;fillColor=#b1ddf0;strokeColor=#10739e;" parent="ibsxyXEcNVTKywFEW7vz-59" source="ibsxyXEcNVTKywFEW7vz-173" target="ibsxyXEcNVTKywFEW7vz-121" edge="1">
          <mxGeometry relative="1" as="geometry" />
        </mxCell>
        <mxCell id="ibsxyXEcNVTKywFEW7vz-173" value="" style="image;html=1;image=img/lib/clip_art/networking/Switch_128x128.png" parent="ibsxyXEcNVTKywFEW7vz-59" vertex="1">
          <mxGeometry x="199" y="26" width="40" height="40" as="geometry" />
        </mxCell>
        <mxCell id="ibsxyXEcNVTKywFEW7vz-63" value="" style="group" parent="1" vertex="1" connectable="0">
          <mxGeometry x="2670" y="2035" width="409.5" height="407" as="geometry" />
        </mxCell>
        <mxCell id="ibsxyXEcNVTKywFEW7vz-64" value="" style="whiteSpace=wrap;html=1;aspect=fixed;strokeWidth=4;" parent="ibsxyXEcNVTKywFEW7vz-63" vertex="1">
          <mxGeometry width="407" height="407" as="geometry" />
        </mxCell>
        <mxCell id="ibsxyXEcNVTKywFEW7vz-65" value="" style="verticalLabelPosition=bottom;html=1;verticalAlign=top;align=center;shape=mxgraph.floorplan.doorRight;aspect=fixed;rotation=90;strokeWidth=3;" parent="ibsxyXEcNVTKywFEW7vz-63" vertex="1">
          <mxGeometry x="327" y="323" width="80" height="85" as="geometry" />
        </mxCell>
        <mxCell id="ibsxyXEcNVTKywFEW7vz-66" value="&lt;font style=&quot;font-size: 34px;&quot;&gt;&lt;b&gt;Network Team&lt;/b&gt;&lt;/font&gt;" style="text;html=1;align=center;verticalAlign=middle;whiteSpace=wrap;rounded=0;" parent="ibsxyXEcNVTKywFEW7vz-63" vertex="1">
          <mxGeometry x="138.5" y="188.5" width="130" height="30" as="geometry" />
        </mxCell>
        <mxCell id="ibsxyXEcNVTKywFEW7vz-98" value="" style="shape=mxgraph.cisco.computers_and_peripherals.terminal;html=1;pointerEvents=1;dashed=0;fillColor=#036897;strokeColor=#ffffff;strokeWidth=2;verticalLabelPosition=bottom;verticalAlign=top;align=center;outlineConnect=0;" parent="ibsxyXEcNVTKywFEW7vz-63" vertex="1">
          <mxGeometry x="135" y="43" width="49.7" height="44" as="geometry" />
        </mxCell>
        <mxCell id="ibsxyXEcNVTKywFEW7vz-180" style="edgeStyle=orthogonalEdgeStyle;rounded=0;orthogonalLoop=1;jettySize=auto;html=1;exitX=0.5;exitY=0;exitDx=0;exitDy=0;strokeWidth=5;fillColor=#b1ddf0;strokeColor=#10739e;endArrow=none;endFill=0;" parent="ibsxyXEcNVTKywFEW7vz-63" source="ibsxyXEcNVTKywFEW7vz-99" edge="1">
          <mxGeometry relative="1" as="geometry">
            <mxPoint x="244.81395348837214" y="5" as="targetPoint" />
          </mxGeometry>
        </mxCell>
        <mxCell id="ibsxyXEcNVTKywFEW7vz-99" value="" style="image;html=1;image=img/lib/clip_art/networking/Switch_128x128.png" parent="ibsxyXEcNVTKywFEW7vz-63" vertex="1">
          <mxGeometry x="225" y="43" width="40" height="40" as="geometry" />
        </mxCell>
        <mxCell id="ibsxyXEcNVTKywFEW7vz-181" style="edgeStyle=orthogonalEdgeStyle;rounded=0;orthogonalLoop=1;jettySize=auto;html=1;exitX=0;exitY=0.5;exitDx=0;exitDy=0;entryX=1;entryY=0.5;entryDx=0;entryDy=0;entryPerimeter=0;strokeWidth=5;fillColor=#b1ddf0;strokeColor=#10739e;endArrow=none;endFill=0;" parent="ibsxyXEcNVTKywFEW7vz-63" source="ibsxyXEcNVTKywFEW7vz-99" target="ibsxyXEcNVTKywFEW7vz-98" edge="1">
          <mxGeometry relative="1" as="geometry">
            <Array as="points">
              <mxPoint x="225" y="65" />
            </Array>
          </mxGeometry>
        </mxCell>
        <mxCell id="ibsxyXEcNVTKywFEW7vz-68" value="" style="whiteSpace=wrap;html=1;rotation=90;strokeWidth=4;" parent="1" vertex="1">
          <mxGeometry x="2858.25" y="2388.3" width="441.61" height="816.07" as="geometry" />
        </mxCell>
        <mxCell id="ibsxyXEcNVTKywFEW7vz-70" value="&lt;font style=&quot;font-size: 34px;&quot;&gt;&lt;b&gt;Developers&lt;/b&gt;&lt;/font&gt;" style="text;html=1;align=center;verticalAlign=middle;whiteSpace=wrap;rounded=0;" parent="1" vertex="1">
          <mxGeometry x="3014.05" y="2725" width="130" height="30" as="geometry" />
        </mxCell>
        <mxCell id="ibsxyXEcNVTKywFEW7vz-101" value="" style="shape=mxgraph.cisco.computers_and_peripherals.terminal;html=1;pointerEvents=1;dashed=0;fillColor=#036897;strokeColor=#ffffff;strokeWidth=2;verticalLabelPosition=bottom;verticalAlign=top;align=center;outlineConnect=0;" parent="1" vertex="1">
          <mxGeometry x="3281.61" y="2770" width="49.7" height="44" as="geometry" />
        </mxCell>
        <mxCell id="ibsxyXEcNVTKywFEW7vz-202" style="edgeStyle=orthogonalEdgeStyle;rounded=0;orthogonalLoop=1;jettySize=auto;html=1;endArrow=none;endFill=0;fillColor=#b1ddf0;strokeColor=#10739e;strokeWidth=5;" parent="1" source="ibsxyXEcNVTKywFEW7vz-102" target="ibsxyXEcNVTKywFEW7vz-104" edge="1">
          <mxGeometry relative="1" as="geometry">
            <Array as="points">
              <mxPoint x="3350" y="2950" />
              <mxPoint x="3350" y="2900" />
              <mxPoint x="3135" y="2900" />
            </Array>
          </mxGeometry>
        </mxCell>
        <mxCell id="ibsxyXEcNVTKywFEW7vz-205" style="edgeStyle=orthogonalEdgeStyle;rounded=0;orthogonalLoop=1;jettySize=auto;html=1;endArrow=none;endFill=0;fillColor=#b1ddf0;strokeColor=#10739e;strokeWidth=5;" parent="1" source="ibsxyXEcNVTKywFEW7vz-102" target="ibsxyXEcNVTKywFEW7vz-103" edge="1">
          <mxGeometry relative="1" as="geometry">
            <Array as="points">
              <mxPoint x="3350" y="2950" />
              <mxPoint x="3350" y="2900" />
              <mxPoint x="3225" y="2900" />
            </Array>
          </mxGeometry>
        </mxCell>
        <mxCell id="ibsxyXEcNVTKywFEW7vz-102" value="&lt;span style=&quot;color: rgba(0, 0, 0, 0); font-family: monospace; font-size: 0px; text-align: start; background-color: rgb(251, 251, 251);&quot;&gt;%3CmxGraphModel%3E%3Croot%3E%3CmxCell%20id%3D%220%22%2F%3E%3CmxCell%20id%3D%221%22%20parent%3D%220%22%2F%3E%3CmxCell%20id%3D%222%22%20value%3D%22%22%20style%3D%22shape%3Dmxgraph.cisco.computers_and_peripherals.terminal%3Bhtml%3D1%3BpointerEvents%3D1%3Bdashed%3D0%3BfillColor%3D%23036897%3BstrokeColor%3D%23ffffff%3BstrokeWidth%3D2%3BverticalLabelPosition%3Dbottom%3BverticalAlign%3Dtop%3Balign%3Dcenter%3BoutlineConnect%3D0%3B%22%20vertex%3D%221%22%20parent%3D%221%22%3E%3CmxGeometry%20x%3D%223150%22%20y%3D%222930%22%20width%3D%2249.7%22%20height%3D%2244%22%20as%3D%22geometry%22%2F%3E%3C%2FmxCell%3E%3C%2Froot%3E%3C%2FmxGraphModel%3E&lt;/span&gt;" style="image;html=1;image=img/lib/clip_art/networking/Switch_128x128.png" parent="1" vertex="1">
          <mxGeometry x="3355" y="2930" width="40" height="40" as="geometry" />
        </mxCell>
        <mxCell id="ibsxyXEcNVTKywFEW7vz-103" value="" style="shape=mxgraph.cisco.computers_and_peripherals.terminal;html=1;pointerEvents=1;dashed=0;fillColor=#036897;strokeColor=#ffffff;strokeWidth=2;verticalLabelPosition=bottom;verticalAlign=top;align=center;outlineConnect=0;" parent="1" vertex="1">
          <mxGeometry x="3196.3" y="2770" width="49.7" height="44" as="geometry" />
        </mxCell>
        <mxCell id="ibsxyXEcNVTKywFEW7vz-104" value="" style="shape=mxgraph.cisco.computers_and_peripherals.terminal;html=1;pointerEvents=1;dashed=0;fillColor=#036897;strokeColor=#ffffff;strokeWidth=2;verticalLabelPosition=bottom;verticalAlign=top;align=center;outlineConnect=0;" parent="1" vertex="1">
          <mxGeometry x="3110" y="2770" width="49.7" height="44" as="geometry" />
        </mxCell>
        <mxCell id="ibsxyXEcNVTKywFEW7vz-105" value="" style="shape=mxgraph.cisco.computers_and_peripherals.terminal;html=1;pointerEvents=1;dashed=0;fillColor=#036897;strokeColor=#ffffff;strokeWidth=2;verticalLabelPosition=bottom;verticalAlign=top;align=center;outlineConnect=0;" parent="1" vertex="1">
          <mxGeometry x="3370" y="2770" width="49.7" height="44" as="geometry" />
        </mxCell>
        <mxCell id="ibsxyXEcNVTKywFEW7vz-106" value="" style="shape=mxgraph.cisco.computers_and_peripherals.terminal;html=1;pointerEvents=1;dashed=0;fillColor=#036897;strokeColor=#ffffff;strokeWidth=2;verticalLabelPosition=bottom;verticalAlign=top;align=center;outlineConnect=0;" parent="1" vertex="1">
          <mxGeometry x="2890" y="2928" width="49.7" height="44" as="geometry" />
        </mxCell>
        <mxCell id="ibsxyXEcNVTKywFEW7vz-107" value="" style="shape=mxgraph.cisco.computers_and_peripherals.terminal;html=1;pointerEvents=1;dashed=0;fillColor=#036897;strokeColor=#ffffff;strokeWidth=2;verticalLabelPosition=bottom;verticalAlign=top;align=center;outlineConnect=0;" parent="1" vertex="1">
          <mxGeometry x="2775" y="2930" width="49.7" height="44" as="geometry" />
        </mxCell>
        <mxCell id="ibsxyXEcNVTKywFEW7vz-108" value="" style="shape=mxgraph.cisco.computers_and_peripherals.terminal;html=1;pointerEvents=1;dashed=0;fillColor=#036897;strokeColor=#ffffff;strokeWidth=2;verticalLabelPosition=bottom;verticalAlign=top;align=center;outlineConnect=0;" parent="1" vertex="1">
          <mxGeometry x="2750" y="2792" width="49.7" height="44" as="geometry" />
        </mxCell>
        <mxCell id="ibsxyXEcNVTKywFEW7vz-109" value="" style="shape=mxgraph.cisco.computers_and_peripherals.terminal;html=1;pointerEvents=1;dashed=0;fillColor=#036897;strokeColor=#ffffff;strokeWidth=2;verticalLabelPosition=bottom;verticalAlign=top;align=center;outlineConnect=0;" parent="1" vertex="1">
          <mxGeometry x="2799.7000000000003" y="2740" width="49.7" height="44" as="geometry" />
        </mxCell>
        <mxCell id="ibsxyXEcNVTKywFEW7vz-110" value="" style="shape=mxgraph.cisco.computers_and_peripherals.terminal;html=1;pointerEvents=1;dashed=0;fillColor=#036897;strokeColor=#ffffff;strokeWidth=2;verticalLabelPosition=bottom;verticalAlign=top;align=center;outlineConnect=0;" parent="1" vertex="1">
          <mxGeometry x="2890" y="2799" width="49.7" height="44" as="geometry" />
        </mxCell>
        <mxCell id="ibsxyXEcNVTKywFEW7vz-111" value="" style="shape=mxgraph.cisco.computers_and_peripherals.terminal;html=1;pointerEvents=1;dashed=0;fillColor=#036897;strokeColor=#ffffff;strokeWidth=2;verticalLabelPosition=bottom;verticalAlign=top;align=center;outlineConnect=0;" parent="1" vertex="1">
          <mxGeometry x="2799.7000000000003" y="2596.5" width="49.7" height="44" as="geometry" />
        </mxCell>
        <mxCell id="ibsxyXEcNVTKywFEW7vz-112" value="" style="shape=mxgraph.cisco.computers_and_peripherals.terminal;html=1;pointerEvents=1;dashed=0;fillColor=#036897;strokeColor=#ffffff;strokeWidth=2;verticalLabelPosition=bottom;verticalAlign=top;align=center;outlineConnect=0;" parent="1" vertex="1">
          <mxGeometry x="2799.7000000000003" y="2670" width="49.7" height="44" as="geometry" />
        </mxCell>
        <mxCell id="ibsxyXEcNVTKywFEW7vz-184" style="edgeStyle=orthogonalEdgeStyle;rounded=0;orthogonalLoop=1;jettySize=auto;html=1;strokeWidth=5;endArrow=none;endFill=0;fillColor=#b1ddf0;strokeColor=#10739e;" parent="1" source="ibsxyXEcNVTKywFEW7vz-116" edge="1">
          <mxGeometry relative="1" as="geometry">
            <mxPoint x="2670" y="2880" as="targetPoint" />
            <Array as="points">
              <mxPoint x="2720" y="2813" />
              <mxPoint x="2671" y="2813" />
              <mxPoint x="2671" y="2880" />
            </Array>
          </mxGeometry>
        </mxCell>
        <mxCell id="ibsxyXEcNVTKywFEW7vz-196" style="rounded=0;orthogonalLoop=1;jettySize=auto;html=1;exitX=1;exitY=1;exitDx=0;exitDy=0;endArrow=none;endFill=0;fillColor=#b1ddf0;strokeColor=#10739e;strokeWidth=5;" parent="1" source="ibsxyXEcNVTKywFEW7vz-116" target="ibsxyXEcNVTKywFEW7vz-112" edge="1">
          <mxGeometry relative="1" as="geometry" />
        </mxCell>
        <mxCell id="ibsxyXEcNVTKywFEW7vz-197" style="rounded=0;orthogonalLoop=1;jettySize=auto;html=1;exitX=0.5;exitY=1;exitDx=0;exitDy=0;endArrow=none;endFill=0;fillColor=#b1ddf0;strokeColor=#10739e;strokeWidth=5;" parent="1" source="ibsxyXEcNVTKywFEW7vz-116" target="ibsxyXEcNVTKywFEW7vz-109" edge="1">
          <mxGeometry relative="1" as="geometry" />
        </mxCell>
        <mxCell id="ibsxyXEcNVTKywFEW7vz-116" value="&lt;span style=&quot;color: rgba(0, 0, 0, 0); font-family: monospace; font-size: 0px; text-align: start; background-color: rgb(251, 251, 251);&quot;&gt;%3CmxGraphModel%3E%3Croot%3E%3CmxCell%20id%3D%220%22%2F%3E%3CmxCell%20id%3D%221%22%20parent%3D%220%22%2F%3E%3CmxCell%20id%3D%222%22%20value%3D%22%22%20style%3D%22shape%3Dmxgraph.cisco.computers_and_peripherals.terminal%3Bhtml%3D1%3BpointerEvents%3D1%3Bdashed%3D0%3BfillColor%3D%23036897%3BstrokeColor%3D%23ffffff%3BstrokeWidth%3D2%3BverticalLabelPosition%3Dbottom%3BverticalAlign%3Dtop%3Balign%3Dcenter%3BoutlineConnect%3D0%3B%22%20vertex%3D%221%22%20parent%3D%221%22%3E%3CmxGeometry%20x%3D%223150%22%20y%3D%222930%22%20width%3D%2249.7%22%20height%3D%2244%22%20as%3D%22geometry%22%2F%3E%3C%2FmxCell%3E%3C%2Froot%3E%3C%2FmxGraphModel%3E&lt;/span&gt;" style="image;html=1;image=img/lib/clip_art/networking/Switch_128x128.png;clipPath=inset(0% 0% 0% 0%);aspect=fixed;" parent="1" vertex="1">
          <mxGeometry x="2710" y="2670" width="40" height="21.26984126984127" as="geometry" />
        </mxCell>
        <mxCell id="ibsxyXEcNVTKywFEW7vz-182" style="edgeStyle=orthogonalEdgeStyle;rounded=0;orthogonalLoop=1;jettySize=auto;html=1;exitX=0;exitY=0.5;exitDx=0;exitDy=0;strokeWidth=5;endArrow=none;endFill=0;fillColor=#b1ddf0;strokeColor=#10739e;" parent="1" source="ibsxyXEcNVTKywFEW7vz-117" edge="1">
          <mxGeometry relative="1" as="geometry">
            <mxPoint x="2670" y="2040" as="targetPoint" />
          </mxGeometry>
        </mxCell>
        <mxCell id="ibsxyXEcNVTKywFEW7vz-198" style="edgeStyle=orthogonalEdgeStyle;rounded=0;orthogonalLoop=1;jettySize=auto;html=1;endArrow=none;endFill=0;strokeWidth=5;fillColor=#b1ddf0;strokeColor=#10739e;" parent="1" source="ibsxyXEcNVTKywFEW7vz-117" target="ibsxyXEcNVTKywFEW7vz-108" edge="1">
          <mxGeometry relative="1" as="geometry">
            <Array as="points">
              <mxPoint x="2775" y="2882" />
            </Array>
          </mxGeometry>
        </mxCell>
        <mxCell id="ibsxyXEcNVTKywFEW7vz-199" style="rounded=0;orthogonalLoop=1;jettySize=auto;html=1;endArrow=none;endFill=0;strokeWidth=5;fillColor=#b1ddf0;strokeColor=#10739e;edgeStyle=orthogonalEdgeStyle;" parent="1" source="ibsxyXEcNVTKywFEW7vz-117" target="ibsxyXEcNVTKywFEW7vz-107" edge="1">
          <mxGeometry relative="1" as="geometry">
            <Array as="points">
              <mxPoint x="2800" y="2882" />
            </Array>
          </mxGeometry>
        </mxCell>
        <mxCell id="ibsxyXEcNVTKywFEW7vz-200" style="rounded=0;orthogonalLoop=1;jettySize=auto;html=1;endArrow=none;endFill=0;strokeWidth=5;fillColor=#b1ddf0;strokeColor=#10739e;edgeStyle=orthogonalEdgeStyle;" parent="1" source="ibsxyXEcNVTKywFEW7vz-117" target="ibsxyXEcNVTKywFEW7vz-110" edge="1">
          <mxGeometry relative="1" as="geometry">
            <Array as="points">
              <mxPoint x="2915" y="2882" />
            </Array>
          </mxGeometry>
        </mxCell>
        <mxCell id="ibsxyXEcNVTKywFEW7vz-117" value="&lt;span style=&quot;color: rgba(0, 0, 0, 0); font-family: monospace; font-size: 0px; text-align: start; background-color: rgb(251, 251, 251);&quot;&gt;%3CmxGraphModel%3E%3Croot%3E%3CmxCell%20id%3D%220%22%2F%3E%3CmxCell%20id%3D%221%22%20parent%3D%220%22%2F%3E%3CmxCell%20id%3D%222%22%20value%3D%22%22%20style%3D%22shape%3Dmxgraph.cisco.computers_and_peripherals.terminal%3Bhtml%3D1%3BpointerEvents%3D1%3Bdashed%3D0%3BfillColor%3D%23036897%3BstrokeColor%3D%23ffffff%3BstrokeWidth%3D2%3BverticalLabelPosition%3Dbottom%3BverticalAlign%3Dtop%3Balign%3Dcenter%3BoutlineConnect%3D0%3B%22%20vertex%3D%221%22%20parent%3D%221%22%3E%3CmxGeometry%20x%3D%223150%22%20y%3D%222930%22%20width%3D%2249.7%22%20height%3D%2244%22%20as%3D%22geometry%22%2F%3E%3C%2FmxCell%3E%3C%2Froot%3E%3C%2FmxGraphModel%3E&lt;/span&gt;" style="image;html=1;image=img/lib/clip_art/networking/Switch_128x128.png" parent="1" vertex="1">
          <mxGeometry x="2710" y="2862" width="40" height="40" as="geometry" />
        </mxCell>
        <mxCell id="ibsxyXEcNVTKywFEW7vz-133" style="edgeStyle=orthogonalEdgeStyle;rounded=0;orthogonalLoop=1;jettySize=auto;html=1;exitX=0.5;exitY=1;exitDx=0;exitDy=0;endArrow=none;endFill=0;fillColor=#b1ddf0;strokeColor=#10739e;strokeWidth=5;entryX=0.516;entryY=0.001;entryDx=0;entryDy=0;entryPerimeter=0;" parent="1" source="ibsxyXEcNVTKywFEW7vz-124" target="ibsxyXEcNVTKywFEW7vz-4" edge="1">
          <mxGeometry relative="1" as="geometry">
            <mxPoint x="1010" y="2030" as="targetPoint" />
            <Array as="points">
              <mxPoint x="1008" y="2036" />
            </Array>
          </mxGeometry>
        </mxCell>
        <mxCell id="ibsxyXEcNVTKywFEW7vz-135" value="" style="endArrow=none;html=1;rounded=0;fillColor=#b1ddf0;strokeColor=#10739e;strokeWidth=5;exitX=0.501;exitY=0.007;exitDx=0;exitDy=0;exitPerimeter=0;entryX=0.536;entryY=0.006;entryDx=0;entryDy=0;entryPerimeter=0;" parent="1" source="ibsxyXEcNVTKywFEW7vz-5" target="ibsxyXEcNVTKywFEW7vz-60" edge="1">
          <mxGeometry width="50" height="50" relative="1" as="geometry">
            <mxPoint x="700" y="2040" as="sourcePoint" />
            <mxPoint x="3470" y="2038" as="targetPoint" />
          </mxGeometry>
        </mxCell>
        <mxCell id="ibsxyXEcNVTKywFEW7vz-148" value="Cat 5" style="edgeLabel;html=1;align=center;verticalAlign=middle;resizable=0;points=[];fontStyle=1;fontSize=28;" parent="ibsxyXEcNVTKywFEW7vz-135" vertex="1" connectable="0">
          <mxGeometry x="-0.0764" y="-2" relative="1" as="geometry">
            <mxPoint as="offset" />
          </mxGeometry>
        </mxCell>
        <mxCell id="ibsxyXEcNVTKywFEW7vz-206" value="Cat 5" style="edgeLabel;html=1;align=center;verticalAlign=middle;resizable=0;points=[];fontStyle=1;fontSize=28;" parent="ibsxyXEcNVTKywFEW7vz-135" vertex="1" connectable="0">
          <mxGeometry x="-0.7834" y="-2" relative="1" as="geometry">
            <mxPoint as="offset" />
          </mxGeometry>
        </mxCell>
        <mxCell id="ibsxyXEcNVTKywFEW7vz-158" style="edgeStyle=orthogonalEdgeStyle;rounded=0;orthogonalLoop=1;jettySize=auto;html=1;entryX=0;entryY=0;entryDx=0;entryDy=0;endArrow=none;endFill=0;strokeWidth=5;fillColor=#b1ddf0;strokeColor=#10739e;" parent="1" source="ibsxyXEcNVTKywFEW7vz-92" target="ibsxyXEcNVTKywFEW7vz-31" edge="1">
          <mxGeometry relative="1" as="geometry">
            <Array as="points">
              <mxPoint x="2090" y="2980" />
              <mxPoint x="2090" y="3010" />
              <mxPoint x="1580" y="3010" />
              <mxPoint x="1580" y="2040" />
              <mxPoint x="1572" y="2040" />
            </Array>
          </mxGeometry>
        </mxCell>
        <mxCell id="ibsxyXEcNVTKywFEW7vz-183" style="edgeStyle=orthogonalEdgeStyle;rounded=0;orthogonalLoop=1;jettySize=auto;html=1;exitX=0.5;exitY=1;exitDx=0;exitDy=0;strokeWidth=5;endArrow=none;endFill=0;fillColor=#b1ddf0;strokeColor=#10739e;" parent="1" source="ibsxyXEcNVTKywFEW7vz-102" edge="1">
          <mxGeometry relative="1" as="geometry">
            <mxPoint x="2670" y="2880" as="targetPoint" />
            <Array as="points">
              <mxPoint x="3375" y="2990" />
              <mxPoint x="2670" y="2990" />
              <mxPoint x="2670" y="2880" />
              <mxPoint x="2674" y="2880" />
            </Array>
          </mxGeometry>
        </mxCell>
        <mxCell id="ibsxyXEcNVTKywFEW7vz-194" value="" style="verticalLabelPosition=bottom;html=1;verticalAlign=top;align=center;shape=mxgraph.floorplan.doorRight;aspect=fixed;rotation=90;strokeWidth=3;" parent="1" vertex="1">
          <mxGeometry x="3402" y="2576" width="80" height="85" as="geometry" />
        </mxCell>
        <mxCell id="ibsxyXEcNVTKywFEW7vz-195" style="rounded=0;orthogonalLoop=1;jettySize=auto;html=1;exitX=1;exitY=0.5;exitDx=0;exitDy=0;entryX=0.15;entryY=0.5;entryDx=0;entryDy=0;entryPerimeter=0;endArrow=none;endFill=0;fillColor=#b1ddf0;strokeColor=#10739e;strokeWidth=5;" parent="1" source="ibsxyXEcNVTKywFEW7vz-116" target="ibsxyXEcNVTKywFEW7vz-111" edge="1">
          <mxGeometry relative="1" as="geometry" />
        </mxCell>
        <mxCell id="ibsxyXEcNVTKywFEW7vz-201" style="rounded=0;orthogonalLoop=1;jettySize=auto;html=1;endArrow=none;endFill=0;strokeWidth=5;fillColor=#b1ddf0;strokeColor=#10739e;edgeStyle=orthogonalEdgeStyle;" parent="1" source="ibsxyXEcNVTKywFEW7vz-117" target="ibsxyXEcNVTKywFEW7vz-106" edge="1">
          <mxGeometry relative="1" as="geometry">
            <Array as="points">
              <mxPoint x="2915" y="2882" />
            </Array>
          </mxGeometry>
        </mxCell>
        <mxCell id="ibsxyXEcNVTKywFEW7vz-203" style="edgeStyle=orthogonalEdgeStyle;rounded=0;orthogonalLoop=1;jettySize=auto;html=1;endArrow=none;endFill=0;fillColor=#b1ddf0;strokeColor=#10739e;strokeWidth=5;" parent="1" target="ibsxyXEcNVTKywFEW7vz-105" edge="1" source="ibsxyXEcNVTKywFEW7vz-102">
          <mxGeometry relative="1" as="geometry">
            <mxPoint x="3380" y="2930" as="sourcePoint" />
            <Array as="points">
              <mxPoint x="3350" y="2950" />
              <mxPoint x="3350" y="2900" />
              <mxPoint x="3395" y="2900" />
            </Array>
          </mxGeometry>
        </mxCell>
        <mxCell id="ibsxyXEcNVTKywFEW7vz-204" style="edgeStyle=orthogonalEdgeStyle;rounded=0;orthogonalLoop=1;jettySize=auto;html=1;endArrow=none;endFill=0;fillColor=#b1ddf0;strokeColor=#10739e;strokeWidth=5;" parent="1" edge="1" source="ibsxyXEcNVTKywFEW7vz-102">
          <mxGeometry relative="1" as="geometry">
            <mxPoint x="3334" y="2950" as="sourcePoint" />
            <Array as="points">
              <mxPoint x="3350" y="2950" />
              <mxPoint x="3350" y="2900" />
              <mxPoint x="3306" y="2900" />
            </Array>
            <mxPoint x="3305.9999999999995" y="2814" as="targetPoint" />
          </mxGeometry>
        </mxCell>
        <mxCell id="ibsxyXEcNVTKywFEW7vz-124" value="ISP" style="image;aspect=fixed;perimeter=ellipsePerimeter;html=1;align=center;shadow=0;dashed=0;spacingTop=3;image=img/lib/active_directory/internet_cloud.svg;fontStyle=1;fontSize=28;" parent="1" vertex="1">
          <mxGeometry x="952" y="1870" width="112" height="70.56" as="geometry" />
        </mxCell>
      </root>
    </mxGraphModel>
  </diagram>
  <diagram name="Page-1" id="WGgkEARqIUKxGxve646W">
    <mxGraphModel grid="1" page="1" gridSize="10" guides="1" tooltips="1" connect="1" arrows="1" fold="1" pageScale="1" pageWidth="850" pageHeight="1100" math="0" shadow="0">
      <root>
        <mxCell id="0" />
        <mxCell id="1" parent="0" />
        <mxCell id="BY2Y6sJ3G_0xBZ9hZWNd-1" value="" style="fontColor=#0066CC;verticalAlign=top;verticalLabelPosition=bottom;labelPosition=center;align=center;html=1;outlineConnect=0;fillColor=#CCCCCC;strokeColor=#6881B3;gradientColor=none;gradientDirection=north;strokeWidth=2;shape=mxgraph.networks.terminal;" vertex="1" parent="1">
          <mxGeometry x="190" y="330" width="40" height="30" as="geometry" />
        </mxCell>
        <mxCell id="BY2Y6sJ3G_0xBZ9hZWNd-2" value="" style="fontColor=#0066CC;verticalAlign=top;verticalLabelPosition=bottom;labelPosition=center;align=center;html=1;outlineConnect=0;fillColor=#CCCCCC;strokeColor=#6881B3;gradientColor=none;gradientDirection=north;strokeWidth=2;shape=mxgraph.networks.terminal;" vertex="1" parent="1">
          <mxGeometry x="140" y="330" width="40" height="30" as="geometry" />
        </mxCell>
        <mxCell id="BY2Y6sJ3G_0xBZ9hZWNd-3" value="" style="fontColor=#0066CC;verticalAlign=top;verticalLabelPosition=bottom;labelPosition=center;align=center;html=1;outlineConnect=0;fillColor=#CCCCCC;strokeColor=#6881B3;gradientColor=none;gradientDirection=north;strokeWidth=2;shape=mxgraph.networks.terminal;" vertex="1" parent="1">
          <mxGeometry x="240" y="330" width="40" height="30" as="geometry" />
        </mxCell>
        <mxCell id="BY2Y6sJ3G_0xBZ9hZWNd-4" value="" style="fontColor=#0066CC;verticalAlign=top;verticalLabelPosition=bottom;labelPosition=center;align=center;html=1;outlineConnect=0;fillColor=#CCCCCC;strokeColor=#6881B3;gradientColor=none;gradientDirection=north;strokeWidth=2;shape=mxgraph.networks.terminal;" vertex="1" parent="1">
          <mxGeometry x="85" y="330" width="40" height="30" as="geometry" />
        </mxCell>
        <mxCell id="BY2Y6sJ3G_0xBZ9hZWNd-5" value="" style="fontColor=#0066CC;verticalAlign=top;verticalLabelPosition=bottom;labelPosition=center;align=center;html=1;outlineConnect=0;fillColor=#CCCCCC;strokeColor=#6881B3;gradientColor=none;gradientDirection=north;strokeWidth=2;shape=mxgraph.networks.terminal;" vertex="1" parent="1">
          <mxGeometry x="30" y="330" width="40" height="30" as="geometry" />
        </mxCell>
        <mxCell id="BY2Y6sJ3G_0xBZ9hZWNd-6" value="" style="fontColor=#0066CC;verticalAlign=top;verticalLabelPosition=bottom;labelPosition=center;align=center;html=1;outlineConnect=0;fillColor=#CCCCCC;strokeColor=#6881B3;gradientColor=none;gradientDirection=north;strokeWidth=2;shape=mxgraph.networks.terminal;" vertex="1" parent="1">
          <mxGeometry x="115" y="770" width="40" height="30" as="geometry" />
        </mxCell>
        <mxCell id="BY2Y6sJ3G_0xBZ9hZWNd-8" value="" style="fontColor=#0066CC;verticalAlign=top;verticalLabelPosition=bottom;labelPosition=center;align=center;html=1;outlineConnect=0;fillColor=#CCCCCC;strokeColor=#6881B3;gradientColor=none;gradientDirection=north;strokeWidth=2;shape=mxgraph.networks.terminal;" vertex="1" parent="1">
          <mxGeometry x="410" y="330" width="40" height="30" as="geometry" />
        </mxCell>
        <mxCell id="BY2Y6sJ3G_0xBZ9hZWNd-9" value="" style="fontColor=#0066CC;verticalAlign=top;verticalLabelPosition=bottom;labelPosition=center;align=center;html=1;outlineConnect=0;fillColor=#CCCCCC;strokeColor=#6881B3;gradientColor=none;gradientDirection=north;strokeWidth=2;shape=mxgraph.networks.terminal;" vertex="1" parent="1">
          <mxGeometry x="600" y="330" width="40" height="30" as="geometry" />
        </mxCell>
        <mxCell id="BY2Y6sJ3G_0xBZ9hZWNd-19" value="" style="endArrow=none;html=1;rounded=0;" edge="1" parent="1">
          <mxGeometry width="50" height="50" relative="1" as="geometry">
            <mxPoint x="-130" y="440" as="sourcePoint" />
            <mxPoint x="1440" y="440" as="targetPoint" />
          </mxGeometry>
        </mxCell>
        <mxCell id="BY2Y6sJ3G_0xBZ9hZWNd-7" value="" style="fontColor=#0066CC;verticalAlign=top;verticalLabelPosition=bottom;labelPosition=center;align=center;html=1;outlineConnect=0;fillColor=#CCCCCC;strokeColor=#6881B3;gradientColor=none;gradientDirection=north;strokeWidth=2;shape=mxgraph.networks.terminal;" vertex="1" parent="1">
          <mxGeometry x="60" y="770" width="40" height="30" as="geometry" />
        </mxCell>
        <mxCell id="BY2Y6sJ3G_0xBZ9hZWNd-22" value="" style="fontColor=#0066CC;verticalAlign=top;verticalLabelPosition=bottom;labelPosition=center;align=center;html=1;outlineConnect=0;fillColor=#CCCCCC;strokeColor=#6881B3;gradientColor=none;gradientDirection=north;strokeWidth=2;shape=mxgraph.networks.firewall;" vertex="1" parent="1">
          <mxGeometry x="1470" y="710" width="100" height="100" as="geometry" />
        </mxCell>
        <mxCell id="BY2Y6sJ3G_0xBZ9hZWNd-23" value="" style="html=1;outlineConnect=0;fillColor=#CCCCCC;strokeColor=#6881B3;gradientColor=none;gradientDirection=north;strokeWidth=2;shape=mxgraph.networks.cloud;fontColor=#ffffff;" vertex="1" parent="1">
          <mxGeometry x="1600" y="735" width="90" height="50" as="geometry" />
        </mxCell>
        <mxCell id="BY2Y6sJ3G_0xBZ9hZWNd-24" value="" style="endArrow=classic;html=1;rounded=0;exitX=1;exitY=0.5;exitDx=0;exitDy=0;exitPerimeter=0;entryX=0.06;entryY=0.5;entryDx=0;entryDy=0;entryPerimeter=0;" edge="1" parent="1" source="BY2Y6sJ3G_0xBZ9hZWNd-22" target="BY2Y6sJ3G_0xBZ9hZWNd-23">
          <mxGeometry width="50" height="50" relative="1" as="geometry">
            <mxPoint x="610" y="570" as="sourcePoint" />
            <mxPoint x="660" y="520" as="targetPoint" />
          </mxGeometry>
        </mxCell>
        <mxCell id="BY2Y6sJ3G_0xBZ9hZWNd-25" value="&lt;b&gt;Customer Care&lt;/b&gt;" style="text;html=1;align=center;verticalAlign=middle;resizable=0;points=[];autosize=1;strokeColor=none;fillColor=none;" vertex="1" parent="1">
          <mxGeometry x="75" y="840" width="110" height="30" as="geometry" />
        </mxCell>
        <mxCell id="BY2Y6sJ3G_0xBZ9hZWNd-26" value="" style="endArrow=none;html=1;rounded=0;" edge="1" parent="1">
          <mxGeometry width="50" height="50" relative="1" as="geometry">
            <mxPoint x="240" y="1180" as="sourcePoint" />
            <mxPoint x="240" y="440" as="targetPoint" />
          </mxGeometry>
        </mxCell>
        <mxCell id="BY2Y6sJ3G_0xBZ9hZWNd-27" value="" style="fontColor=#0066CC;verticalAlign=top;verticalLabelPosition=bottom;labelPosition=center;align=center;html=1;outlineConnect=0;fillColor=#CCCCCC;strokeColor=#6881B3;gradientColor=none;gradientDirection=north;strokeWidth=2;shape=mxgraph.networks.printer;" vertex="1" parent="1">
          <mxGeometry x="180" y="770" width="45" height="30" as="geometry" />
        </mxCell>
        <mxCell id="qxTb5DwPUGE20EvFg6JT-2" value="" style="fontColor=#0066CC;verticalAlign=top;verticalLabelPosition=bottom;labelPosition=center;align=center;html=1;outlineConnect=0;fillColor=#CCCCCC;strokeColor=#6881B3;gradientColor=none;gradientDirection=north;strokeWidth=2;shape=mxgraph.networks.switch;" vertex="1" parent="1">
          <mxGeometry x="100" y="640" width="70" height="30" as="geometry" />
        </mxCell>
        <mxCell id="qxTb5DwPUGE20EvFg6JT-5" value="PC1&lt;div&gt;CC&lt;/div&gt;" style="text;html=1;align=center;verticalAlign=middle;resizable=0;points=[];autosize=1;strokeColor=none;fillColor=none;" vertex="1" parent="1">
          <mxGeometry x="50" y="800" width="50" height="40" as="geometry" />
        </mxCell>
        <mxCell id="qxTb5DwPUGE20EvFg6JT-6" value="PC2&lt;div&gt;CC&lt;/div&gt;" style="text;html=1;align=center;verticalAlign=middle;resizable=0;points=[];autosize=1;strokeColor=none;fillColor=none;" vertex="1" parent="1">
          <mxGeometry x="110" y="800" width="50" height="40" as="geometry" />
        </mxCell>
        <mxCell id="qxTb5DwPUGE20EvFg6JT-8" value="" style="fontColor=#0066CC;verticalAlign=top;verticalLabelPosition=bottom;labelPosition=center;align=center;html=1;outlineConnect=0;fillColor=#CCCCCC;strokeColor=#6881B3;gradientColor=none;gradientDirection=north;strokeWidth=2;shape=mxgraph.networks.terminal;" vertex="1" parent="1">
          <mxGeometry x="345" y="770" width="40" height="30" as="geometry" />
        </mxCell>
        <mxCell id="qxTb5DwPUGE20EvFg6JT-9" value="" style="fontColor=#0066CC;verticalAlign=top;verticalLabelPosition=bottom;labelPosition=center;align=center;html=1;outlineConnect=0;fillColor=#CCCCCC;strokeColor=#6881B3;gradientColor=none;gradientDirection=north;strokeWidth=2;shape=mxgraph.networks.terminal;" vertex="1" parent="1">
          <mxGeometry x="280" y="770" width="40" height="30" as="geometry" />
        </mxCell>
        <mxCell id="qxTb5DwPUGE20EvFg6JT-10" value="" style="fontColor=#0066CC;verticalAlign=top;verticalLabelPosition=bottom;labelPosition=center;align=center;html=1;outlineConnect=0;fillColor=#CCCCCC;strokeColor=#6881B3;gradientColor=none;gradientDirection=north;strokeWidth=2;shape=mxgraph.networks.printer;" vertex="1" parent="1">
          <mxGeometry x="510" y="770" width="45" height="30" as="geometry" />
        </mxCell>
        <mxCell id="qxTb5DwPUGE20EvFg6JT-11" value="" style="fontColor=#0066CC;verticalAlign=top;verticalLabelPosition=bottom;labelPosition=center;align=center;html=1;outlineConnect=0;fillColor=#CCCCCC;strokeColor=#6881B3;gradientColor=none;gradientDirection=north;strokeWidth=2;shape=mxgraph.networks.switch;" vertex="1" parent="1">
          <mxGeometry x="300" y="640" width="70" height="30" as="geometry" />
        </mxCell>
        <mxCell id="qxTb5DwPUGE20EvFg6JT-19" value="" style="fontColor=#0066CC;verticalAlign=top;verticalLabelPosition=bottom;labelPosition=center;align=center;html=1;outlineConnect=0;fillColor=#CCCCCC;strokeColor=#6881B3;gradientColor=none;gradientDirection=north;strokeWidth=2;shape=mxgraph.networks.terminal;" vertex="1" parent="1">
          <mxGeometry x="580" y="770" width="40" height="30" as="geometry" />
        </mxCell>
        <mxCell id="qxTb5DwPUGE20EvFg6JT-20" value="" style="fontColor=#0066CC;verticalAlign=top;verticalLabelPosition=bottom;labelPosition=center;align=center;html=1;outlineConnect=0;fillColor=#CCCCCC;strokeColor=#6881B3;gradientColor=none;gradientDirection=north;strokeWidth=2;shape=mxgraph.networks.switch;" vertex="1" parent="1">
          <mxGeometry x="570" y="640" width="70" height="30" as="geometry" />
        </mxCell>
        <mxCell id="qxTb5DwPUGE20EvFg6JT-24" value="" style="endArrow=none;dashed=1;html=1;rounded=0;entryX=0.5;entryY=1;entryDx=0;entryDy=0;entryPerimeter=0;exitX=0.5;exitY=0;exitDx=0;exitDy=0;exitPerimeter=0;" edge="1" parent="1" source="BY2Y6sJ3G_0xBZ9hZWNd-7" target="qxTb5DwPUGE20EvFg6JT-2">
          <mxGeometry width="50" height="50" relative="1" as="geometry">
            <mxPoint x="80" y="750" as="sourcePoint" />
            <mxPoint x="130" y="720" as="targetPoint" />
          </mxGeometry>
        </mxCell>
        <mxCell id="qxTb5DwPUGE20EvFg6JT-25" value="" style="endArrow=none;dashed=1;html=1;rounded=0;entryX=0.5;entryY=1;entryDx=0;entryDy=0;entryPerimeter=0;exitX=0.5;exitY=0;exitDx=0;exitDy=0;exitPerimeter=0;" edge="1" parent="1" source="BY2Y6sJ3G_0xBZ9hZWNd-6" target="qxTb5DwPUGE20EvFg6JT-2">
          <mxGeometry width="50" height="50" relative="1" as="geometry">
            <mxPoint x="125" y="760" as="sourcePoint" />
            <mxPoint x="180" y="660" as="targetPoint" />
          </mxGeometry>
        </mxCell>
        <mxCell id="qxTb5DwPUGE20EvFg6JT-26" value="" style="endArrow=none;dashed=1;html=1;rounded=0;entryX=0.5;entryY=1;entryDx=0;entryDy=0;entryPerimeter=0;exitX=0.5;exitY=0;exitDx=0;exitDy=0;exitPerimeter=0;" edge="1" parent="1" source="BY2Y6sJ3G_0xBZ9hZWNd-27" target="qxTb5DwPUGE20EvFg6JT-2">
          <mxGeometry width="50" height="50" relative="1" as="geometry">
            <mxPoint x="100" y="790" as="sourcePoint" />
            <mxPoint x="155" y="690" as="targetPoint" />
          </mxGeometry>
        </mxCell>
        <mxCell id="qxTb5DwPUGE20EvFg6JT-30" value="" style="endArrow=none;dashed=1;html=1;rounded=0;exitX=0.5;exitY=0;exitDx=0;exitDy=0;exitPerimeter=0;entryX=0.5;entryY=1;entryDx=0;entryDy=0;entryPerimeter=0;" edge="1" parent="1" source="qxTb5DwPUGE20EvFg6JT-8" target="qxTb5DwPUGE20EvFg6JT-11">
          <mxGeometry width="50" height="50" relative="1" as="geometry">
            <mxPoint x="315" y="770" as="sourcePoint" />
            <mxPoint x="320" y="680" as="targetPoint" />
          </mxGeometry>
        </mxCell>
        <mxCell id="qxTb5DwPUGE20EvFg6JT-31" value="" style="endArrow=none;dashed=1;html=1;rounded=0;entryX=0.5;entryY=1;entryDx=0;entryDy=0;entryPerimeter=0;exitX=0.5;exitY=0;exitDx=0;exitDy=0;exitPerimeter=0;" edge="1" parent="1" source="qxTb5DwPUGE20EvFg6JT-9" target="qxTb5DwPUGE20EvFg6JT-11">
          <mxGeometry width="50" height="50" relative="1" as="geometry">
            <mxPoint x="308" y="780" as="sourcePoint" />
            <mxPoint x="240" y="680" as="targetPoint" />
          </mxGeometry>
        </mxCell>
        <mxCell id="qxTb5DwPUGE20EvFg6JT-32" value="" style="endArrow=none;dashed=1;html=1;rounded=0;exitX=0.5;exitY=0;exitDx=0;exitDy=0;exitPerimeter=0;entryX=0.5;entryY=1;entryDx=0;entryDy=0;entryPerimeter=0;" edge="1" parent="1" source="qxTb5DwPUGE20EvFg6JT-19" target="qxTb5DwPUGE20EvFg6JT-20">
          <mxGeometry width="50" height="50" relative="1" as="geometry">
            <mxPoint x="507.5" y="770" as="sourcePoint" />
            <mxPoint x="560" y="670" as="targetPoint" />
          </mxGeometry>
        </mxCell>
        <mxCell id="qxTb5DwPUGE20EvFg6JT-34" value="" style="endArrow=none;dashed=1;html=1;rounded=0;entryX=0;entryY=0.5;entryDx=0;entryDy=0;entryPerimeter=0;exitX=1;exitY=0.5;exitDx=0;exitDy=0;exitPerimeter=0;" edge="1" parent="1" source="qxTb5DwPUGE20EvFg6JT-11" target="qxTb5DwPUGE20EvFg6JT-20">
          <mxGeometry width="50" height="50" relative="1" as="geometry">
            <mxPoint x="310" y="800" as="sourcePoint" />
            <mxPoint x="365" y="700" as="targetPoint" />
          </mxGeometry>
        </mxCell>
        <mxCell id="qxTb5DwPUGE20EvFg6JT-35" value="PC1&lt;div&gt;S&amp;amp;M&lt;/div&gt;" style="text;html=1;align=center;verticalAlign=middle;resizable=0;points=[];autosize=1;strokeColor=none;fillColor=none;" vertex="1" parent="1">
          <mxGeometry x="275" y="800" width="50" height="40" as="geometry" />
        </mxCell>
        <mxCell id="qxTb5DwPUGE20EvFg6JT-36" value="PC2&lt;div&gt;S&amp;amp;M&lt;br&gt;&lt;/div&gt;" style="text;html=1;align=center;verticalAlign=middle;resizable=0;points=[];autosize=1;strokeColor=none;fillColor=none;" vertex="1" parent="1">
          <mxGeometry x="335" y="800" width="50" height="40" as="geometry" />
        </mxCell>
        <mxCell id="qxTb5DwPUGE20EvFg6JT-37" value="" style="endArrow=none;dashed=1;html=1;rounded=0;entryX=0.5;entryY=1;entryDx=0;entryDy=0;entryPerimeter=0;exitX=0.5;exitY=0;exitDx=0;exitDy=0;exitPerimeter=0;" edge="1" parent="1" source="qxTb5DwPUGE20EvFg6JT-10" target="qxTb5DwPUGE20EvFg6JT-20">
          <mxGeometry width="50" height="50" relative="1" as="geometry">
            <mxPoint x="445" y="760" as="sourcePoint" />
            <mxPoint x="560" y="670" as="targetPoint" />
          </mxGeometry>
        </mxCell>
        <mxCell id="qxTb5DwPUGE20EvFg6JT-38" value="PC3&lt;div&gt;S&amp;amp;M&lt;br&gt;&lt;/div&gt;" style="text;html=1;align=center;verticalAlign=middle;resizable=0;points=[];autosize=1;strokeColor=none;fillColor=none;" vertex="1" parent="1">
          <mxGeometry x="570" y="800" width="50" height="40" as="geometry" />
        </mxCell>
        <mxCell id="qxTb5DwPUGE20EvFg6JT-40" value="&lt;b&gt;Sales and Marketing&lt;/b&gt;" style="text;html=1;align=center;verticalAlign=middle;resizable=0;points=[];autosize=1;strokeColor=none;fillColor=none;" vertex="1" parent="1">
          <mxGeometry x="355" y="840" width="140" height="30" as="geometry" />
        </mxCell>
        <mxCell id="qxTb5DwPUGE20EvFg6JT-41" value="" style="image;html=1;image=img/lib/clip_art/networking/Wireless_Router_128x128.png" vertex="1" parent="1">
          <mxGeometry x="650" y="770" width="50" height="40" as="geometry" />
        </mxCell>
        <mxCell id="qxTb5DwPUGE20EvFg6JT-42" value="" style="fontColor=#0066CC;verticalAlign=top;verticalLabelPosition=bottom;labelPosition=center;align=center;html=1;outlineConnect=0;fillColor=#CCCCCC;strokeColor=#6881B3;gradientColor=none;gradientDirection=north;strokeWidth=2;shape=mxgraph.networks.switch;" vertex="1" parent="1">
          <mxGeometry x="230" y="210" width="70" height="30" as="geometry" />
        </mxCell>
        <mxCell id="qxTb5DwPUGE20EvFg6JT-45" value="" style="fontColor=#0066CC;verticalAlign=top;verticalLabelPosition=bottom;labelPosition=center;align=center;html=1;outlineConnect=0;fillColor=#CCCCCC;strokeColor=#6881B3;gradientColor=none;gradientDirection=north;strokeWidth=2;shape=mxgraph.networks.switch;" vertex="1" parent="1">
          <mxGeometry x="65" y="210" width="70" height="30" as="geometry" />
        </mxCell>
        <mxCell id="qxTb5DwPUGE20EvFg6JT-46" value="" style="endArrow=none;dashed=1;html=1;rounded=0;exitX=0.5;exitY=0;exitDx=0;exitDy=0;exitPerimeter=0;entryX=0.5;entryY=1;entryDx=0;entryDy=0;entryPerimeter=0;" edge="1" parent="1" source="BY2Y6sJ3G_0xBZ9hZWNd-5" target="qxTb5DwPUGE20EvFg6JT-45">
          <mxGeometry width="50" height="50" relative="1" as="geometry">
            <mxPoint x="40" y="320" as="sourcePoint" />
            <mxPoint x="90" y="260" as="targetPoint" />
          </mxGeometry>
        </mxCell>
        <mxCell id="qxTb5DwPUGE20EvFg6JT-47" value="" style="fontColor=#0066CC;verticalAlign=top;verticalLabelPosition=bottom;labelPosition=center;align=center;html=1;outlineConnect=0;fillColor=#CCCCCC;strokeColor=#6881B3;gradientColor=none;gradientDirection=north;strokeWidth=2;shape=mxgraph.networks.printer;" vertex="1" parent="1">
          <mxGeometry x="290" y="330" width="45" height="30" as="geometry" />
        </mxCell>
        <mxCell id="qxTb5DwPUGE20EvFg6JT-48" value="" style="endArrow=none;dashed=1;html=1;rounded=0;exitX=0.5;exitY=0;exitDx=0;exitDy=0;exitPerimeter=0;entryX=0.5;entryY=1;entryDx=0;entryDy=0;entryPerimeter=0;" edge="1" parent="1" source="BY2Y6sJ3G_0xBZ9hZWNd-4" target="qxTb5DwPUGE20EvFg6JT-45">
          <mxGeometry width="50" height="50" relative="1" as="geometry">
            <mxPoint x="60" y="340" as="sourcePoint" />
            <mxPoint x="105" y="250" as="targetPoint" />
          </mxGeometry>
        </mxCell>
        <mxCell id="qxTb5DwPUGE20EvFg6JT-49" value="" style="endArrow=none;dashed=1;html=1;rounded=0;exitX=0.5;exitY=0;exitDx=0;exitDy=0;exitPerimeter=0;entryX=0.5;entryY=1;entryDx=0;entryDy=0;entryPerimeter=0;" edge="1" parent="1" source="BY2Y6sJ3G_0xBZ9hZWNd-2" target="qxTb5DwPUGE20EvFg6JT-45">
          <mxGeometry width="50" height="50" relative="1" as="geometry">
            <mxPoint x="70" y="350" as="sourcePoint" />
            <mxPoint x="115" y="260" as="targetPoint" />
          </mxGeometry>
        </mxCell>
        <mxCell id="qxTb5DwPUGE20EvFg6JT-50" value="" style="endArrow=none;dashed=1;html=1;rounded=0;exitX=0.5;exitY=0;exitDx=0;exitDy=0;exitPerimeter=0;entryX=0.5;entryY=1;entryDx=0;entryDy=0;entryPerimeter=0;" edge="1" parent="1" source="BY2Y6sJ3G_0xBZ9hZWNd-1" target="qxTb5DwPUGE20EvFg6JT-42">
          <mxGeometry width="50" height="50" relative="1" as="geometry">
            <mxPoint x="80" y="360" as="sourcePoint" />
            <mxPoint x="125" y="270" as="targetPoint" />
          </mxGeometry>
        </mxCell>
        <mxCell id="qxTb5DwPUGE20EvFg6JT-52" value="" style="endArrow=none;dashed=1;html=1;rounded=0;exitX=0.5;exitY=0;exitDx=0;exitDy=0;exitPerimeter=0;entryX=0.5;entryY=1;entryDx=0;entryDy=0;entryPerimeter=0;" edge="1" parent="1" source="BY2Y6sJ3G_0xBZ9hZWNd-3" target="qxTb5DwPUGE20EvFg6JT-42">
          <mxGeometry width="50" height="50" relative="1" as="geometry">
            <mxPoint x="220" y="340" as="sourcePoint" />
            <mxPoint x="245" y="250" as="targetPoint" />
          </mxGeometry>
        </mxCell>
        <mxCell id="qxTb5DwPUGE20EvFg6JT-53" value="" style="endArrow=none;dashed=1;html=1;rounded=0;exitX=0.5;exitY=0;exitDx=0;exitDy=0;exitPerimeter=0;entryX=0.5;entryY=1;entryDx=0;entryDy=0;entryPerimeter=0;" edge="1" parent="1" source="qxTb5DwPUGE20EvFg6JT-47" target="qxTb5DwPUGE20EvFg6JT-42">
          <mxGeometry width="50" height="50" relative="1" as="geometry">
            <mxPoint x="230" y="350" as="sourcePoint" />
            <mxPoint x="240" y="240" as="targetPoint" />
          </mxGeometry>
        </mxCell>
        <mxCell id="qxTb5DwPUGE20EvFg6JT-54" value="" style="endArrow=none;html=1;rounded=0;" edge="1" parent="1">
          <mxGeometry width="50" height="50" relative="1" as="geometry">
            <mxPoint x="-130" as="sourcePoint" />
            <mxPoint x="1440" as="targetPoint" />
          </mxGeometry>
        </mxCell>
        <mxCell id="qxTb5DwPUGE20EvFg6JT-55" value="" style="endArrow=none;dashed=1;html=1;rounded=0;exitX=1;exitY=0.5;exitDx=0;exitDy=0;exitPerimeter=0;entryX=0;entryY=0.5;entryDx=0;entryDy=0;entryPerimeter=0;" edge="1" parent="1" source="qxTb5DwPUGE20EvFg6JT-45" target="qxTb5DwPUGE20EvFg6JT-42">
          <mxGeometry width="50" height="50" relative="1" as="geometry">
            <mxPoint x="220" y="340" as="sourcePoint" />
            <mxPoint x="275" y="250" as="targetPoint" />
          </mxGeometry>
        </mxCell>
        <mxCell id="qxTb5DwPUGE20EvFg6JT-56" value="PC1&lt;div&gt;Finance&lt;/div&gt;" style="text;html=1;align=center;verticalAlign=middle;resizable=0;points=[];autosize=1;strokeColor=none;fillColor=none;" vertex="1" parent="1">
          <mxGeometry x="15" y="365" width="70" height="40" as="geometry" />
        </mxCell>
        <mxCell id="qxTb5DwPUGE20EvFg6JT-58" value="PC2&lt;div&gt;Finance&lt;br&gt;&lt;/div&gt;" style="text;html=1;align=center;verticalAlign=middle;resizable=0;points=[];autosize=1;strokeColor=none;fillColor=none;" vertex="1" parent="1">
          <mxGeometry x="65" y="365" width="70" height="40" as="geometry" />
        </mxCell>
        <mxCell id="qxTb5DwPUGE20EvFg6JT-59" value="PC3&lt;div&gt;Finance&lt;br&gt;&lt;/div&gt;" style="text;html=1;align=center;verticalAlign=middle;resizable=0;points=[];autosize=1;strokeColor=none;fillColor=none;" vertex="1" parent="1">
          <mxGeometry x="125" y="365" width="70" height="40" as="geometry" />
        </mxCell>
        <mxCell id="qxTb5DwPUGE20EvFg6JT-60" value="PC4&lt;div&gt;Finance&lt;br&gt;&lt;/div&gt;" style="text;html=1;align=center;verticalAlign=middle;resizable=0;points=[];autosize=1;strokeColor=none;fillColor=none;" vertex="1" parent="1">
          <mxGeometry x="175" y="365" width="70" height="40" as="geometry" />
        </mxCell>
        <mxCell id="qxTb5DwPUGE20EvFg6JT-61" value="PC5&lt;div&gt;Finance&lt;br&gt;&lt;/div&gt;" style="text;html=1;align=center;verticalAlign=middle;resizable=0;points=[];autosize=1;strokeColor=none;fillColor=none;" vertex="1" parent="1">
          <mxGeometry x="225" y="365" width="70" height="40" as="geometry" />
        </mxCell>
        <mxCell id="qxTb5DwPUGE20EvFg6JT-62" value="PC1" style="text;html=1;align=center;verticalAlign=middle;resizable=0;points=[];autosize=1;strokeColor=none;fillColor=none;" vertex="1" parent="1">
          <mxGeometry x="405" y="370" width="50" height="30" as="geometry" />
        </mxCell>
        <mxCell id="qxTb5DwPUGE20EvFg6JT-63" value="&lt;b&gt;Finance&lt;/b&gt;" style="text;html=1;align=center;verticalAlign=middle;resizable=0;points=[];autosize=1;strokeColor=none;fillColor=none;" vertex="1" parent="1">
          <mxGeometry x="130" y="400" width="70" height="30" as="geometry" />
        </mxCell>
        <mxCell id="qxTb5DwPUGE20EvFg6JT-65" value="" style="endArrow=none;html=1;rounded=0;" edge="1" parent="1">
          <mxGeometry width="50" height="50" relative="1" as="geometry">
            <mxPoint x="360" y="440" as="sourcePoint" />
            <mxPoint x="360" as="targetPoint" />
          </mxGeometry>
        </mxCell>
        <mxCell id="qxTb5DwPUGE20EvFg6JT-66" value="" style="fontColor=#0066CC;verticalAlign=top;verticalLabelPosition=bottom;labelPosition=center;align=center;html=1;outlineConnect=0;fillColor=#CCCCCC;strokeColor=#6881B3;gradientColor=none;gradientDirection=north;strokeWidth=2;shape=mxgraph.networks.switch;" vertex="1" parent="1">
          <mxGeometry x="395" y="210" width="70" height="30" as="geometry" />
        </mxCell>
        <mxCell id="qxTb5DwPUGE20EvFg6JT-67" value="" style="endArrow=none;dashed=1;html=1;rounded=0;entryX=0.5;entryY=1;entryDx=0;entryDy=0;entryPerimeter=0;exitX=0.5;exitY=0;exitDx=0;exitDy=0;exitPerimeter=0;" edge="1" parent="1" source="BY2Y6sJ3G_0xBZ9hZWNd-8" target="qxTb5DwPUGE20EvFg6JT-66">
          <mxGeometry width="50" height="50" relative="1" as="geometry">
            <mxPoint x="440" y="310" as="sourcePoint" />
            <mxPoint x="377" y="240" as="targetPoint" />
          </mxGeometry>
        </mxCell>
        <mxCell id="qxTb5DwPUGE20EvFg6JT-68" value="&lt;b&gt;Legal&lt;/b&gt;" style="text;html=1;align=center;verticalAlign=middle;resizable=0;points=[];autosize=1;strokeColor=none;fillColor=none;" vertex="1" parent="1">
          <mxGeometry x="407.5" y="400" width="50" height="30" as="geometry" />
        </mxCell>
        <mxCell id="qxTb5DwPUGE20EvFg6JT-69" value="" style="endArrow=none;html=1;rounded=0;" edge="1" parent="1">
          <mxGeometry width="50" height="50" relative="1" as="geometry">
            <mxPoint x="490" y="440" as="sourcePoint" />
            <mxPoint x="495" as="targetPoint" />
          </mxGeometry>
        </mxCell>
        <mxCell id="qxTb5DwPUGE20EvFg6JT-70" value="" style="fontColor=#0066CC;verticalAlign=top;verticalLabelPosition=bottom;labelPosition=center;align=center;html=1;outlineConnect=0;fillColor=#CCCCCC;strokeColor=#6881B3;gradientColor=none;gradientDirection=north;strokeWidth=2;shape=mxgraph.networks.terminal;" vertex="1" parent="1">
          <mxGeometry x="540" y="330" width="40" height="30" as="geometry" />
        </mxCell>
        <mxCell id="qxTb5DwPUGE20EvFg6JT-71" value="" style="fontColor=#0066CC;verticalAlign=top;verticalLabelPosition=bottom;labelPosition=center;align=center;html=1;outlineConnect=0;fillColor=#CCCCCC;strokeColor=#6881B3;gradientColor=none;gradientDirection=north;strokeWidth=2;shape=mxgraph.networks.switch;" vertex="1" parent="1">
          <mxGeometry x="585" y="210" width="70" height="30" as="geometry" />
        </mxCell>
        <mxCell id="qxTb5DwPUGE20EvFg6JT-75" value="" style="fontColor=#0066CC;verticalAlign=top;verticalLabelPosition=bottom;labelPosition=center;align=center;html=1;outlineConnect=0;fillColor=#CCCCCC;strokeColor=#6881B3;gradientColor=none;gradientDirection=north;strokeWidth=2;shape=mxgraph.networks.printer;" vertex="1" parent="1">
          <mxGeometry x="660" y="330" width="45" height="30" as="geometry" />
        </mxCell>
        <mxCell id="qxTb5DwPUGE20EvFg6JT-76" value="" style="endArrow=none;dashed=1;html=1;rounded=0;entryX=0.5;entryY=1;entryDx=0;entryDy=0;entryPerimeter=0;exitX=0.5;exitY=0;exitDx=0;exitDy=0;exitPerimeter=0;" edge="1" parent="1" source="qxTb5DwPUGE20EvFg6JT-70" target="qxTb5DwPUGE20EvFg6JT-71">
          <mxGeometry width="50" height="50" relative="1" as="geometry">
            <mxPoint x="565" y="310" as="sourcePoint" />
            <mxPoint x="565" y="220" as="targetPoint" />
          </mxGeometry>
        </mxCell>
        <mxCell id="qxTb5DwPUGE20EvFg6JT-77" value="" style="endArrow=none;dashed=1;html=1;rounded=0;entryX=0.5;entryY=1;entryDx=0;entryDy=0;entryPerimeter=0;exitX=0.5;exitY=0;exitDx=0;exitDy=0;exitPerimeter=0;" edge="1" parent="1" source="qxTb5DwPUGE20EvFg6JT-75" target="qxTb5DwPUGE20EvFg6JT-71">
          <mxGeometry width="50" height="50" relative="1" as="geometry">
            <mxPoint x="682" y="290" as="sourcePoint" />
            <mxPoint x="682" y="200" as="targetPoint" />
          </mxGeometry>
        </mxCell>
        <mxCell id="qxTb5DwPUGE20EvFg6JT-78" value="" style="endArrow=none;dashed=1;html=1;rounded=0;entryX=0.5;entryY=1;entryDx=0;entryDy=0;entryPerimeter=0;exitX=0.5;exitY=0;exitDx=0;exitDy=0;exitPerimeter=0;" edge="1" parent="1">
          <mxGeometry width="50" height="50" relative="1" as="geometry">
            <mxPoint x="619.5" y="330" as="sourcePoint" />
            <mxPoint x="619.5" y="240" as="targetPoint" />
          </mxGeometry>
        </mxCell>
        <mxCell id="qxTb5DwPUGE20EvFg6JT-80" value="PC1&lt;div&gt;HR&lt;/div&gt;" style="text;html=1;align=center;verticalAlign=middle;resizable=0;points=[];autosize=1;strokeColor=none;fillColor=none;" vertex="1" parent="1">
          <mxGeometry x="530" y="365" width="50" height="40" as="geometry" />
        </mxCell>
        <mxCell id="qxTb5DwPUGE20EvFg6JT-81" value="PC2&lt;div&gt;HR&lt;/div&gt;" style="text;html=1;align=center;verticalAlign=middle;resizable=0;points=[];autosize=1;strokeColor=none;fillColor=none;" vertex="1" parent="1">
          <mxGeometry x="595" y="365" width="50" height="40" as="geometry" />
        </mxCell>
        <mxCell id="qxTb5DwPUGE20EvFg6JT-82" value="&lt;b&gt;HR&lt;/b&gt;" style="text;html=1;align=center;verticalAlign=middle;resizable=0;points=[];autosize=1;strokeColor=none;fillColor=none;" vertex="1" parent="1">
          <mxGeometry x="610" y="400" width="40" height="30" as="geometry" />
        </mxCell>
        <mxCell id="qxTb5DwPUGE20EvFg6JT-83" value="" style="endArrow=none;html=1;rounded=0;" edge="1" parent="1">
          <mxGeometry width="50" height="50" relative="1" as="geometry">
            <mxPoint x="-130" y="-440" as="sourcePoint" />
            <mxPoint x="1440" y="-440" as="targetPoint" />
          </mxGeometry>
        </mxCell>
        <mxCell id="qxTb5DwPUGE20EvFg6JT-84" value="" style="fontColor=#0066CC;verticalAlign=top;verticalLabelPosition=bottom;labelPosition=center;align=center;html=1;outlineConnect=0;fillColor=#CCCCCC;strokeColor=#6881B3;gradientColor=none;gradientDirection=north;strokeWidth=2;shape=mxgraph.networks.terminal;" vertex="1" parent="1">
          <mxGeometry x="25" y="-110" width="40" height="30" as="geometry" />
        </mxCell>
        <mxCell id="qxTb5DwPUGE20EvFg6JT-86" value="" style="fontColor=#0066CC;verticalAlign=top;verticalLabelPosition=bottom;labelPosition=center;align=center;html=1;outlineConnect=0;fillColor=#CCCCCC;strokeColor=#6881B3;gradientColor=none;gradientDirection=north;strokeWidth=2;shape=mxgraph.networks.terminal;" vertex="1" parent="1">
          <mxGeometry x="305" y="-110" width="40" height="30" as="geometry" />
        </mxCell>
        <mxCell id="qxTb5DwPUGE20EvFg6JT-87" value="" style="fontColor=#0066CC;verticalAlign=top;verticalLabelPosition=bottom;labelPosition=center;align=center;html=1;outlineConnect=0;fillColor=#CCCCCC;strokeColor=#6881B3;gradientColor=none;gradientDirection=north;strokeWidth=2;shape=mxgraph.networks.terminal;" vertex="1" parent="1">
          <mxGeometry x="260" y="-110" width="40" height="30" as="geometry" />
        </mxCell>
        <mxCell id="qxTb5DwPUGE20EvFg6JT-88" value="" style="fontColor=#0066CC;verticalAlign=top;verticalLabelPosition=bottom;labelPosition=center;align=center;html=1;outlineConnect=0;fillColor=#CCCCCC;strokeColor=#6881B3;gradientColor=none;gradientDirection=north;strokeWidth=2;shape=mxgraph.networks.terminal;" vertex="1" parent="1">
          <mxGeometry x="75" y="-110" width="40" height="30" as="geometry" />
        </mxCell>
        <mxCell id="qxTb5DwPUGE20EvFg6JT-89" value="" style="fontColor=#0066CC;verticalAlign=top;verticalLabelPosition=bottom;labelPosition=center;align=center;html=1;outlineConnect=0;fillColor=#CCCCCC;strokeColor=#6881B3;gradientColor=none;gradientDirection=north;strokeWidth=2;shape=mxgraph.networks.terminal;" vertex="1" parent="1">
          <mxGeometry x="122.5" y="-110" width="40" height="30" as="geometry" />
        </mxCell>
        <mxCell id="qxTb5DwPUGE20EvFg6JT-90" value="" style="fontColor=#0066CC;verticalAlign=top;verticalLabelPosition=bottom;labelPosition=center;align=center;html=1;outlineConnect=0;fillColor=#CCCCCC;strokeColor=#6881B3;gradientColor=none;gradientDirection=north;strokeWidth=2;shape=mxgraph.networks.terminal;" vertex="1" parent="1">
          <mxGeometry x="170" y="-110" width="40" height="30" as="geometry" />
        </mxCell>
        <mxCell id="qxTb5DwPUGE20EvFg6JT-91" value="" style="fontColor=#0066CC;verticalAlign=top;verticalLabelPosition=bottom;labelPosition=center;align=center;html=1;outlineConnect=0;fillColor=#CCCCCC;strokeColor=#6881B3;gradientColor=none;gradientDirection=north;strokeWidth=2;shape=mxgraph.networks.terminal;" vertex="1" parent="1">
          <mxGeometry x="215" y="-110" width="40" height="30" as="geometry" />
        </mxCell>
        <mxCell id="qxTb5DwPUGE20EvFg6JT-93" value="" style="fontColor=#0066CC;verticalAlign=top;verticalLabelPosition=bottom;labelPosition=center;align=center;html=1;outlineConnect=0;fillColor=#CCCCCC;strokeColor=#6881B3;gradientColor=none;gradientDirection=north;strokeWidth=2;shape=mxgraph.networks.terminal;" vertex="1" parent="1">
          <mxGeometry x="645" y="-110" width="40" height="30" as="geometry" />
        </mxCell>
        <mxCell id="qxTb5DwPUGE20EvFg6JT-95" value="" style="fontColor=#0066CC;verticalAlign=top;verticalLabelPosition=bottom;labelPosition=center;align=center;html=1;outlineConnect=0;fillColor=#CCCCCC;strokeColor=#6881B3;gradientColor=none;gradientDirection=north;strokeWidth=2;shape=mxgraph.networks.terminal;" vertex="1" parent="1">
          <mxGeometry x="490" y="-110" width="40" height="30" as="geometry" />
        </mxCell>
        <mxCell id="qxTb5DwPUGE20EvFg6JT-96" value="" style="fontColor=#0066CC;verticalAlign=top;verticalLabelPosition=bottom;labelPosition=center;align=center;html=1;outlineConnect=0;fillColor=#CCCCCC;strokeColor=#6881B3;gradientColor=none;gradientDirection=north;strokeWidth=2;shape=mxgraph.networks.terminal;" vertex="1" parent="1">
          <mxGeometry x="440" y="-110" width="40" height="30" as="geometry" />
        </mxCell>
        <mxCell id="qxTb5DwPUGE20EvFg6JT-97" value="" style="fontColor=#0066CC;verticalAlign=top;verticalLabelPosition=bottom;labelPosition=center;align=center;html=1;outlineConnect=0;fillColor=#CCCCCC;strokeColor=#6881B3;gradientColor=none;gradientDirection=north;strokeWidth=2;shape=mxgraph.networks.terminal;" vertex="1" parent="1">
          <mxGeometry x="395" y="-110" width="40" height="30" as="geometry" />
        </mxCell>
        <mxCell id="qxTb5DwPUGE20EvFg6JT-98" value="" style="fontColor=#0066CC;verticalAlign=top;verticalLabelPosition=bottom;labelPosition=center;align=center;html=1;outlineConnect=0;fillColor=#CCCCCC;strokeColor=#6881B3;gradientColor=none;gradientDirection=north;strokeWidth=2;shape=mxgraph.networks.terminal;" vertex="1" parent="1">
          <mxGeometry x="350" y="-110" width="40" height="30" as="geometry" />
        </mxCell>
        <mxCell id="qxTb5DwPUGE20EvFg6JT-99" value="" style="fontColor=#0066CC;verticalAlign=top;verticalLabelPosition=bottom;labelPosition=center;align=center;html=1;outlineConnect=0;fillColor=#CCCCCC;strokeColor=#6881B3;gradientColor=none;gradientDirection=north;strokeWidth=2;shape=mxgraph.networks.switch;" vertex="1" parent="1">
          <mxGeometry x="90" y="-230" width="70" height="30" as="geometry" />
        </mxCell>
        <mxCell id="qxTb5DwPUGE20EvFg6JT-100" value="" style="fontColor=#0066CC;verticalAlign=top;verticalLabelPosition=bottom;labelPosition=center;align=center;html=1;outlineConnect=0;fillColor=#CCCCCC;strokeColor=#6881B3;gradientColor=none;gradientDirection=north;strokeWidth=2;shape=mxgraph.networks.switch;" vertex="1" parent="1">
          <mxGeometry x="275" y="-230" width="70" height="30" as="geometry" />
        </mxCell>
        <mxCell id="qxTb5DwPUGE20EvFg6JT-101" value="" style="fontColor=#0066CC;verticalAlign=top;verticalLabelPosition=bottom;labelPosition=center;align=center;html=1;outlineConnect=0;fillColor=#CCCCCC;strokeColor=#6881B3;gradientColor=none;gradientDirection=north;strokeWidth=2;shape=mxgraph.networks.switch;" vertex="1" parent="1">
          <mxGeometry x="475" y="-230" width="70" height="30" as="geometry" />
        </mxCell>
        <mxCell id="qxTb5DwPUGE20EvFg6JT-102" value="" style="endArrow=none;dashed=1;html=1;rounded=0;entryX=0.5;entryY=1;entryDx=0;entryDy=0;entryPerimeter=0;exitX=0.5;exitY=0;exitDx=0;exitDy=0;exitPerimeter=0;" edge="1" parent="1" source="qxTb5DwPUGE20EvFg6JT-84" target="qxTb5DwPUGE20EvFg6JT-99">
          <mxGeometry width="50" height="50" relative="1" as="geometry">
            <mxPoint x="50" y="-130" as="sourcePoint" />
            <mxPoint x="95" y="-180" as="targetPoint" />
          </mxGeometry>
        </mxCell>
        <mxCell id="qxTb5DwPUGE20EvFg6JT-104" value="" style="endArrow=none;dashed=1;html=1;rounded=0;entryX=0.5;entryY=1;entryDx=0;entryDy=0;entryPerimeter=0;exitX=0.5;exitY=0;exitDx=0;exitDy=0;exitPerimeter=0;" edge="1" parent="1" source="qxTb5DwPUGE20EvFg6JT-88" target="qxTb5DwPUGE20EvFg6JT-99">
          <mxGeometry width="50" height="50" relative="1" as="geometry">
            <mxPoint x="55" y="-100" as="sourcePoint" />
            <mxPoint x="115" y="-190" as="targetPoint" />
          </mxGeometry>
        </mxCell>
        <mxCell id="qxTb5DwPUGE20EvFg6JT-105" value="" style="endArrow=none;dashed=1;html=1;rounded=0;entryX=0.5;entryY=1;entryDx=0;entryDy=0;entryPerimeter=0;exitX=0.5;exitY=0;exitDx=0;exitDy=0;exitPerimeter=0;" edge="1" parent="1" source="qxTb5DwPUGE20EvFg6JT-89" target="qxTb5DwPUGE20EvFg6JT-99">
          <mxGeometry width="50" height="50" relative="1" as="geometry">
            <mxPoint x="65" y="-90" as="sourcePoint" />
            <mxPoint x="125" y="-180" as="targetPoint" />
          </mxGeometry>
        </mxCell>
        <mxCell id="qxTb5DwPUGE20EvFg6JT-106" value="" style="endArrow=none;dashed=1;html=1;rounded=0;entryX=0.5;entryY=1;entryDx=0;entryDy=0;entryPerimeter=0;exitX=0.5;exitY=0;exitDx=0;exitDy=0;exitPerimeter=0;" edge="1" parent="1" source="qxTb5DwPUGE20EvFg6JT-90" target="qxTb5DwPUGE20EvFg6JT-99">
          <mxGeometry width="50" height="50" relative="1" as="geometry">
            <mxPoint x="153" y="-100" as="sourcePoint" />
            <mxPoint x="115" y="-190" as="targetPoint" />
          </mxGeometry>
        </mxCell>
        <mxCell id="qxTb5DwPUGE20EvFg6JT-107" value="" style="endArrow=none;dashed=1;html=1;rounded=0;entryX=0.5;entryY=1;entryDx=0;entryDy=0;entryPerimeter=0;exitX=0.5;exitY=0;exitDx=0;exitDy=0;exitPerimeter=0;" edge="1" parent="1" source="qxTb5DwPUGE20EvFg6JT-91" target="qxTb5DwPUGE20EvFg6JT-100">
          <mxGeometry width="50" height="50" relative="1" as="geometry">
            <mxPoint x="195" y="-100" as="sourcePoint" />
            <mxPoint x="275" y="-190" as="targetPoint" />
          </mxGeometry>
        </mxCell>
        <mxCell id="qxTb5DwPUGE20EvFg6JT-108" value="" style="endArrow=none;dashed=1;html=1;rounded=0;exitX=0.5;exitY=0;exitDx=0;exitDy=0;exitPerimeter=0;entryX=0.5;entryY=1;entryDx=0;entryDy=0;entryPerimeter=0;" edge="1" parent="1" source="qxTb5DwPUGE20EvFg6JT-87" target="qxTb5DwPUGE20EvFg6JT-100">
          <mxGeometry width="50" height="50" relative="1" as="geometry">
            <mxPoint x="65" y="-90" as="sourcePoint" />
            <mxPoint x="290" y="-180" as="targetPoint" />
          </mxGeometry>
        </mxCell>
        <mxCell id="qxTb5DwPUGE20EvFg6JT-109" value="" style="endArrow=none;dashed=1;html=1;rounded=0;entryX=0.5;entryY=1;entryDx=0;entryDy=0;entryPerimeter=0;exitX=0.5;exitY=0;exitDx=0;exitDy=0;exitPerimeter=0;" edge="1" parent="1" source="qxTb5DwPUGE20EvFg6JT-86" target="qxTb5DwPUGE20EvFg6JT-100">
          <mxGeometry width="50" height="50" relative="1" as="geometry">
            <mxPoint x="75" y="-80" as="sourcePoint" />
            <mxPoint x="155" y="-170" as="targetPoint" />
          </mxGeometry>
        </mxCell>
        <mxCell id="qxTb5DwPUGE20EvFg6JT-110" value="" style="endArrow=none;dashed=1;html=1;rounded=0;entryX=0.5;entryY=1;entryDx=0;entryDy=0;entryPerimeter=0;exitX=0.5;exitY=0;exitDx=0;exitDy=0;exitPerimeter=0;" edge="1" parent="1" source="qxTb5DwPUGE20EvFg6JT-98" target="qxTb5DwPUGE20EvFg6JT-100">
          <mxGeometry width="50" height="50" relative="1" as="geometry">
            <mxPoint x="85" y="-70" as="sourcePoint" />
            <mxPoint x="165" y="-160" as="targetPoint" />
          </mxGeometry>
        </mxCell>
        <mxCell id="qxTb5DwPUGE20EvFg6JT-111" value="" style="fontColor=#0066CC;verticalAlign=top;verticalLabelPosition=bottom;labelPosition=center;align=center;html=1;outlineConnect=0;fillColor=#CCCCCC;strokeColor=#6881B3;gradientColor=none;gradientDirection=north;strokeWidth=2;shape=mxgraph.networks.printer;" vertex="1" parent="1">
          <mxGeometry x="540" y="-110" width="45" height="30" as="geometry" />
        </mxCell>
        <mxCell id="qxTb5DwPUGE20EvFg6JT-113" value="" style="endArrow=none;dashed=1;html=1;rounded=0;entryX=0.5;entryY=1;entryDx=0;entryDy=0;entryPerimeter=0;exitX=0.5;exitY=0;exitDx=0;exitDy=0;exitPerimeter=0;" edge="1" parent="1" source="qxTb5DwPUGE20EvFg6JT-97" target="qxTb5DwPUGE20EvFg6JT-101">
          <mxGeometry width="50" height="50" relative="1" as="geometry">
            <mxPoint x="380" y="-100" as="sourcePoint" />
            <mxPoint x="320" y="-190" as="targetPoint" />
          </mxGeometry>
        </mxCell>
        <mxCell id="qxTb5DwPUGE20EvFg6JT-114" value="" style="endArrow=none;dashed=1;html=1;rounded=0;entryX=0.5;entryY=1;entryDx=0;entryDy=0;entryPerimeter=0;exitX=0.5;exitY=0;exitDx=0;exitDy=0;exitPerimeter=0;" edge="1" parent="1" source="qxTb5DwPUGE20EvFg6JT-96" target="qxTb5DwPUGE20EvFg6JT-101">
          <mxGeometry width="50" height="50" relative="1" as="geometry">
            <mxPoint x="390" y="-90" as="sourcePoint" />
            <mxPoint x="330" y="-180" as="targetPoint" />
          </mxGeometry>
        </mxCell>
        <mxCell id="qxTb5DwPUGE20EvFg6JT-115" value="" style="endArrow=none;dashed=1;html=1;rounded=0;entryX=0.5;entryY=1;entryDx=0;entryDy=0;entryPerimeter=0;exitX=0.5;exitY=0;exitDx=0;exitDy=0;exitPerimeter=0;" edge="1" parent="1" source="qxTb5DwPUGE20EvFg6JT-95" target="qxTb5DwPUGE20EvFg6JT-101">
          <mxGeometry width="50" height="50" relative="1" as="geometry">
            <mxPoint x="400" y="-80" as="sourcePoint" />
            <mxPoint x="340" y="-170" as="targetPoint" />
          </mxGeometry>
        </mxCell>
        <mxCell id="qxTb5DwPUGE20EvFg6JT-116" value="" style="endArrow=none;dashed=1;html=1;rounded=0;entryX=0.5;entryY=1;entryDx=0;entryDy=0;entryPerimeter=0;exitX=0.5;exitY=0;exitDx=0;exitDy=0;exitPerimeter=0;" edge="1" parent="1" source="qxTb5DwPUGE20EvFg6JT-111" target="qxTb5DwPUGE20EvFg6JT-101">
          <mxGeometry width="50" height="50" relative="1" as="geometry">
            <mxPoint x="410" y="-70" as="sourcePoint" />
            <mxPoint x="350" y="-160" as="targetPoint" />
          </mxGeometry>
        </mxCell>
        <mxCell id="qxTb5DwPUGE20EvFg6JT-117" value="" style="endArrow=none;dashed=1;html=1;rounded=0;entryX=1;entryY=0.5;entryDx=0;entryDy=0;entryPerimeter=0;" edge="1" parent="1" source="qxTb5DwPUGE20EvFg6JT-100" target="qxTb5DwPUGE20EvFg6JT-99">
          <mxGeometry width="50" height="50" relative="1" as="geometry">
            <mxPoint x="55" y="-100" as="sourcePoint" />
            <mxPoint x="135" y="-190" as="targetPoint" />
          </mxGeometry>
        </mxCell>
        <mxCell id="qxTb5DwPUGE20EvFg6JT-118" value="" style="endArrow=none;dashed=1;html=1;rounded=0;entryX=1;entryY=0.5;entryDx=0;entryDy=0;entryPerimeter=0;exitX=0;exitY=0.5;exitDx=0;exitDy=0;exitPerimeter=0;" edge="1" parent="1" source="qxTb5DwPUGE20EvFg6JT-101" target="qxTb5DwPUGE20EvFg6JT-100">
          <mxGeometry width="50" height="50" relative="1" as="geometry">
            <mxPoint x="435" y="-180" as="sourcePoint" />
            <mxPoint x="320" y="-180" as="targetPoint" />
          </mxGeometry>
        </mxCell>
        <mxCell id="qxTb5DwPUGE20EvFg6JT-119" value="PC1&lt;div&gt;DV&lt;/div&gt;" style="text;html=1;align=center;verticalAlign=middle;resizable=0;points=[];autosize=1;strokeColor=none;fillColor=none;" vertex="1" parent="1">
          <mxGeometry x="20" y="-75" width="50" height="40" as="geometry" />
        </mxCell>
        <mxCell id="qxTb5DwPUGE20EvFg6JT-120" value="PC2&lt;div&gt;DV&lt;/div&gt;" style="text;html=1;align=center;verticalAlign=middle;resizable=0;points=[];autosize=1;strokeColor=none;fillColor=none;" vertex="1" parent="1">
          <mxGeometry x="65" y="-75" width="50" height="40" as="geometry" />
        </mxCell>
        <mxCell id="qxTb5DwPUGE20EvFg6JT-122" value="PC1" style="text;html=1;align=center;verticalAlign=middle;resizable=0;points=[];autosize=1;strokeColor=none;fillColor=none;" vertex="1" parent="1">
          <mxGeometry x="640" y="-70" width="50" height="30" as="geometry" />
        </mxCell>
        <mxCell id="qxTb5DwPUGE20EvFg6JT-123" value="PC3&lt;div&gt;DV&lt;/div&gt;" style="text;html=1;align=center;verticalAlign=middle;resizable=0;points=[];autosize=1;strokeColor=none;fillColor=none;" vertex="1" parent="1">
          <mxGeometry x="117.5" y="-75" width="50" height="40" as="geometry" />
        </mxCell>
        <mxCell id="qxTb5DwPUGE20EvFg6JT-124" value="PC4&lt;div&gt;DV&lt;/div&gt;" style="text;html=1;align=center;verticalAlign=middle;resizable=0;points=[];autosize=1;strokeColor=none;fillColor=none;" vertex="1" parent="1">
          <mxGeometry x="165" y="-75" width="50" height="40" as="geometry" />
        </mxCell>
        <mxCell id="qxTb5DwPUGE20EvFg6JT-125" value="PC5&lt;div&gt;DV&lt;/div&gt;" style="text;html=1;align=center;verticalAlign=middle;resizable=0;points=[];autosize=1;strokeColor=none;fillColor=none;" vertex="1" parent="1">
          <mxGeometry x="205" y="-75" width="50" height="40" as="geometry" />
        </mxCell>
        <mxCell id="qxTb5DwPUGE20EvFg6JT-126" value="PC6&lt;div&gt;DV&lt;/div&gt;" style="text;html=1;align=center;verticalAlign=middle;resizable=0;points=[];autosize=1;strokeColor=none;fillColor=none;" vertex="1" parent="1">
          <mxGeometry x="255" y="-75" width="50" height="40" as="geometry" />
        </mxCell>
        <mxCell id="qxTb5DwPUGE20EvFg6JT-127" value="PC7&lt;div&gt;DV&lt;/div&gt;" style="text;html=1;align=center;verticalAlign=middle;resizable=0;points=[];autosize=1;strokeColor=none;fillColor=none;" vertex="1" parent="1">
          <mxGeometry x="290" y="-75" width="50" height="40" as="geometry" />
        </mxCell>
        <mxCell id="qxTb5DwPUGE20EvFg6JT-128" value="PC8&lt;div&gt;DV&lt;/div&gt;" style="text;html=1;align=center;verticalAlign=middle;resizable=0;points=[];autosize=1;strokeColor=none;fillColor=none;" vertex="1" parent="1">
          <mxGeometry x="340" y="-75" width="50" height="40" as="geometry" />
        </mxCell>
        <mxCell id="qxTb5DwPUGE20EvFg6JT-129" value="PC9&lt;div&gt;DV&lt;/div&gt;" style="text;html=1;align=center;verticalAlign=middle;resizable=0;points=[];autosize=1;strokeColor=none;fillColor=none;" vertex="1" parent="1">
          <mxGeometry x="390" y="-75" width="50" height="40" as="geometry" />
        </mxCell>
        <mxCell id="qxTb5DwPUGE20EvFg6JT-130" value="PC10&lt;div&gt;DV&lt;/div&gt;" style="text;html=1;align=center;verticalAlign=middle;resizable=0;points=[];autosize=1;strokeColor=none;fillColor=none;" vertex="1" parent="1">
          <mxGeometry x="435" y="-75" width="50" height="40" as="geometry" />
        </mxCell>
        <mxCell id="qxTb5DwPUGE20EvFg6JT-131" value="PC11&lt;div&gt;DV&lt;/div&gt;" style="text;html=1;align=center;verticalAlign=middle;resizable=0;points=[];autosize=1;strokeColor=none;fillColor=none;" vertex="1" parent="1">
          <mxGeometry x="485" y="-75" width="50" height="40" as="geometry" />
        </mxCell>
        <mxCell id="qxTb5DwPUGE20EvFg6JT-132" value="" style="endArrow=none;html=1;rounded=0;" edge="1" parent="1">
          <mxGeometry width="50" height="50" relative="1" as="geometry">
            <mxPoint x="-130" y="1180" as="sourcePoint" />
            <mxPoint x="-130" y="-440" as="targetPoint" />
          </mxGeometry>
        </mxCell>
        <mxCell id="qxTb5DwPUGE20EvFg6JT-133" value="" style="endArrow=none;html=1;rounded=0;" edge="1" parent="1">
          <mxGeometry width="50" height="50" relative="1" as="geometry">
            <mxPoint x="600" as="sourcePoint" />
            <mxPoint x="600" y="-440" as="targetPoint" />
          </mxGeometry>
        </mxCell>
        <mxCell id="qxTb5DwPUGE20EvFg6JT-134" value="" style="fontColor=#0066CC;verticalAlign=top;verticalLabelPosition=bottom;labelPosition=center;align=center;html=1;outlineConnect=0;fillColor=#CCCCCC;strokeColor=#6881B3;gradientColor=none;gradientDirection=north;strokeWidth=2;shape=mxgraph.networks.switch;" vertex="1" parent="1">
          <mxGeometry x="630" y="-230" width="70" height="30" as="geometry" />
        </mxCell>
        <mxCell id="qxTb5DwPUGE20EvFg6JT-135" value="" style="endArrow=none;dashed=1;html=1;rounded=0;entryX=0.5;entryY=1;entryDx=0;entryDy=0;entryPerimeter=0;exitX=0.5;exitY=0;exitDx=0;exitDy=0;exitPerimeter=0;" edge="1" parent="1" source="qxTb5DwPUGE20EvFg6JT-93" target="qxTb5DwPUGE20EvFg6JT-134">
          <mxGeometry width="50" height="50" relative="1" as="geometry">
            <mxPoint x="660" y="-120" as="sourcePoint" />
            <mxPoint x="607" y="-210" as="targetPoint" />
          </mxGeometry>
        </mxCell>
        <mxCell id="qxTb5DwPUGE20EvFg6JT-136" value="" style="endArrow=none;html=1;rounded=0;" edge="1" parent="1">
          <mxGeometry width="50" height="50" relative="1" as="geometry">
            <mxPoint x="750" as="sourcePoint" />
            <mxPoint x="750" y="-440" as="targetPoint" />
          </mxGeometry>
        </mxCell>
        <mxCell id="qxTb5DwPUGE20EvFg6JT-137" value="" style="fontColor=#0066CC;verticalAlign=top;verticalLabelPosition=bottom;labelPosition=center;align=center;html=1;outlineConnect=0;fillColor=#CCCCCC;strokeColor=#6881B3;gradientColor=none;gradientDirection=north;strokeWidth=2;shape=mxgraph.networks.server;" vertex="1" parent="1">
          <mxGeometry x="790" y="-120" width="60" height="40" as="geometry" />
        </mxCell>
        <mxCell id="qxTb5DwPUGE20EvFg6JT-138" value="" style="fontColor=#0066CC;verticalAlign=top;verticalLabelPosition=bottom;labelPosition=center;align=center;html=1;outlineConnect=0;fillColor=#CCCCCC;strokeColor=#6881B3;gradientColor=none;gradientDirection=north;strokeWidth=2;shape=mxgraph.networks.server;" vertex="1" parent="1">
          <mxGeometry x="1030" y="-120" width="60" height="40" as="geometry" />
        </mxCell>
        <mxCell id="qxTb5DwPUGE20EvFg6JT-139" value="" style="fontColor=#0066CC;verticalAlign=top;verticalLabelPosition=bottom;labelPosition=center;align=center;html=1;outlineConnect=0;fillColor=#CCCCCC;strokeColor=#6881B3;gradientColor=none;gradientDirection=north;strokeWidth=2;shape=mxgraph.networks.server;" vertex="1" parent="1">
          <mxGeometry x="870" y="-120" width="60" height="40" as="geometry" />
        </mxCell>
        <mxCell id="qxTb5DwPUGE20EvFg6JT-140" value="" style="fontColor=#0066CC;verticalAlign=top;verticalLabelPosition=bottom;labelPosition=center;align=center;html=1;outlineConnect=0;fillColor=#CCCCCC;strokeColor=#6881B3;gradientColor=none;gradientDirection=north;strokeWidth=2;shape=mxgraph.networks.server;" vertex="1" parent="1">
          <mxGeometry x="950" y="-120" width="60" height="40" as="geometry" />
        </mxCell>
        <mxCell id="qxTb5DwPUGE20EvFg6JT-141" value="" style="fontColor=#0066CC;verticalAlign=top;verticalLabelPosition=bottom;labelPosition=center;align=center;html=1;outlineConnect=0;fillColor=#CCCCCC;strokeColor=#6881B3;gradientColor=none;gradientDirection=north;strokeWidth=2;shape=mxgraph.networks.switch;" vertex="1" parent="1">
          <mxGeometry x="890" y="-230" width="70" height="30" as="geometry" />
        </mxCell>
        <mxCell id="qxTb5DwPUGE20EvFg6JT-142" value="" style="endArrow=none;dashed=1;html=1;rounded=0;exitX=0.5;exitY=0;exitDx=0;exitDy=0;exitPerimeter=0;entryX=0.5;entryY=1;entryDx=0;entryDy=0;entryPerimeter=0;" edge="1" parent="1" source="qxTb5DwPUGE20EvFg6JT-137" target="qxTb5DwPUGE20EvFg6JT-141">
          <mxGeometry width="50" height="50" relative="1" as="geometry">
            <mxPoint x="675" y="-100" as="sourcePoint" />
            <mxPoint x="910" y="-190" as="targetPoint" />
          </mxGeometry>
        </mxCell>
        <mxCell id="qxTb5DwPUGE20EvFg6JT-143" value="" style="endArrow=none;dashed=1;html=1;rounded=0;exitX=0.5;exitY=0;exitDx=0;exitDy=0;exitPerimeter=0;entryX=0.5;entryY=1;entryDx=0;entryDy=0;entryPerimeter=0;" edge="1" parent="1" source="qxTb5DwPUGE20EvFg6JT-139" target="qxTb5DwPUGE20EvFg6JT-141">
          <mxGeometry width="50" height="50" relative="1" as="geometry">
            <mxPoint x="830" y="-110" as="sourcePoint" />
            <mxPoint x="940" y="-190" as="targetPoint" />
          </mxGeometry>
        </mxCell>
        <mxCell id="qxTb5DwPUGE20EvFg6JT-144" value="" style="endArrow=none;dashed=1;html=1;rounded=0;exitX=0.5;exitY=0;exitDx=0;exitDy=0;exitPerimeter=0;entryX=0.5;entryY=1;entryDx=0;entryDy=0;entryPerimeter=0;" edge="1" parent="1" source="qxTb5DwPUGE20EvFg6JT-140" target="qxTb5DwPUGE20EvFg6JT-141">
          <mxGeometry width="50" height="50" relative="1" as="geometry">
            <mxPoint x="910" y="-110" as="sourcePoint" />
            <mxPoint x="935" y="-190" as="targetPoint" />
          </mxGeometry>
        </mxCell>
        <mxCell id="qxTb5DwPUGE20EvFg6JT-145" value="" style="endArrow=none;dashed=1;html=1;rounded=0;exitX=0.5;exitY=0;exitDx=0;exitDy=0;exitPerimeter=0;entryX=0.5;entryY=1;entryDx=0;entryDy=0;entryPerimeter=0;" edge="1" parent="1" source="qxTb5DwPUGE20EvFg6JT-138" target="qxTb5DwPUGE20EvFg6JT-141">
          <mxGeometry width="50" height="50" relative="1" as="geometry">
            <mxPoint x="920" y="-100" as="sourcePoint" />
            <mxPoint x="950" y="-190" as="targetPoint" />
          </mxGeometry>
        </mxCell>
        <mxCell id="qxTb5DwPUGE20EvFg6JT-146" value="Server 1" style="text;html=1;align=center;verticalAlign=middle;resizable=0;points=[];autosize=1;strokeColor=none;fillColor=none;" vertex="1" parent="1">
          <mxGeometry x="780" y="-70" width="70" height="30" as="geometry" />
        </mxCell>
        <mxCell id="qxTb5DwPUGE20EvFg6JT-148" value="Server 2" style="text;html=1;align=center;verticalAlign=middle;resizable=0;points=[];autosize=1;strokeColor=none;fillColor=none;" vertex="1" parent="1">
          <mxGeometry x="865" y="-70" width="70" height="30" as="geometry" />
        </mxCell>
        <mxCell id="qxTb5DwPUGE20EvFg6JT-149" value="Server 3" style="text;html=1;align=center;verticalAlign=middle;resizable=0;points=[];autosize=1;strokeColor=none;fillColor=none;" vertex="1" parent="1">
          <mxGeometry x="945" y="-70" width="70" height="30" as="geometry" />
        </mxCell>
        <mxCell id="qxTb5DwPUGE20EvFg6JT-150" value="Server 4" style="text;html=1;align=center;verticalAlign=middle;resizable=0;points=[];autosize=1;strokeColor=none;fillColor=none;" vertex="1" parent="1">
          <mxGeometry x="1025" y="-70" width="70" height="30" as="geometry" />
        </mxCell>
        <mxCell id="qxTb5DwPUGE20EvFg6JT-151" value="" style="endArrow=none;html=1;rounded=0;" edge="1" parent="1">
          <mxGeometry width="50" height="50" relative="1" as="geometry">
            <mxPoint x="1440" y="1180" as="sourcePoint" />
            <mxPoint x="1440" y="-440" as="targetPoint" />
          </mxGeometry>
        </mxCell>
        <mxCell id="qxTb5DwPUGE20EvFg6JT-153" value="&lt;b&gt;&lt;font style=&quot;font-size: 15px;&quot;&gt;GROUND FLOOR&lt;/font&gt;&lt;/b&gt;" style="text;html=1;align=center;verticalAlign=middle;resizable=0;points=[];autosize=1;strokeColor=none;fillColor=none;" vertex="1" parent="1">
          <mxGeometry x="1280" y="1130" width="150" height="30" as="geometry" />
        </mxCell>
        <mxCell id="qxTb5DwPUGE20EvFg6JT-154" value="&lt;b&gt;&lt;font style=&quot;font-size: 15px;&quot;&gt;FIRST&lt;/font&gt;&lt;/b&gt;&lt;span style=&quot;color: rgba(0, 0, 0, 0); font-family: monospace; font-size: 0px; text-align: start;&quot;&gt;%3CmxGraphModel%3E%3Croot%3E%3CmxCell%20id%3D%220%22%2F%3E%3CmxCell%20id%3D%221%22%20parent%3D%220%22%2F%3E%3CmxCell%20id%3D%222%22%20value%3D%22%26lt%3Bb%26gt%3B%26lt%3Bfont%20style%3D%26quot%3Bfont-size%3A%2015px%3B%26quot%3B%26gt%3BGROUND%20FLOOR%26lt%3B%2Ffont%26gt%3B%26lt%3B%2Fb%26gt%3B%22%20style%3D%22text%3Bhtml%3D1%3Balign%3Dcenter%3BverticalAlign%3Dmiddle%3Bresizable%3D0%3Bpoints%3D%5B%5D%3Bautosize%3D1%3BstrokeColor%3Dnone%3BfillColor%3Dnone%3B%22%20vertex%3D%221%22%20parent%3D%221%22%3E%3CmxGeometry%20x%3D%221000%22%20y%3D%22840%22%20width%3D%22150%22%20height%3D%2230%22%20as%3D%22geometry%22%2F%3E%3C%2FmxCell%3E%3C%2Froot%3E%3C%2FmxGraphModel%3E&lt;/span&gt;&lt;b&gt;&lt;font style=&quot;font-size: 15px;&quot;&gt;&amp;nbsp;FLOOR&lt;/font&gt;&lt;/b&gt;" style="text;html=1;align=center;verticalAlign=middle;resizable=0;points=[];autosize=1;strokeColor=none;fillColor=none;" vertex="1" parent="1">
          <mxGeometry x="1310" y="400" width="120" height="30" as="geometry" />
        </mxCell>
        <mxCell id="qxTb5DwPUGE20EvFg6JT-155" value="&lt;b&gt;&lt;font style=&quot;font-size: 15px;&quot;&gt;SECOND FLOOR&lt;/font&gt;&lt;/b&gt;" style="text;html=1;align=center;verticalAlign=middle;resizable=0;points=[];autosize=1;strokeColor=none;fillColor=none;" vertex="1" parent="1">
          <mxGeometry x="1290" y="-35" width="140" height="30" as="geometry" />
        </mxCell>
        <mxCell id="qxTb5DwPUGE20EvFg6JT-156" value="&lt;b&gt;Developers&lt;/b&gt;" style="text;html=1;align=center;verticalAlign=middle;resizable=0;points=[];autosize=1;strokeColor=none;fillColor=none;" vertex="1" parent="1">
          <mxGeometry x="235" y="-40" width="90" height="30" as="geometry" />
        </mxCell>
        <mxCell id="qxTb5DwPUGE20EvFg6JT-157" value="&lt;b&gt;Network Team&lt;/b&gt;" style="text;html=1;align=center;verticalAlign=middle;resizable=0;points=[];autosize=1;strokeColor=none;fillColor=none;" vertex="1" parent="1">
          <mxGeometry x="625" y="-40" width="100" height="30" as="geometry" />
        </mxCell>
        <mxCell id="qxTb5DwPUGE20EvFg6JT-158" value="&lt;b&gt;Server Room&lt;/b&gt;" style="text;html=1;align=center;verticalAlign=middle;resizable=0;points=[];autosize=1;strokeColor=none;fillColor=none;" vertex="1" parent="1">
          <mxGeometry x="850" y="-40" width="100" height="30" as="geometry" />
        </mxCell>
        <mxCell id="qxTb5DwPUGE20EvFg6JT-160" value="&lt;div&gt;Printer&lt;/div&gt;&lt;div&gt;DV&lt;/div&gt;" style="text;html=1;align=center;verticalAlign=middle;resizable=0;points=[];autosize=1;strokeColor=none;fillColor=none;" vertex="1" parent="1">
          <mxGeometry x="530" y="-70" width="60" height="40" as="geometry" />
        </mxCell>
        <mxCell id="qxTb5DwPUGE20EvFg6JT-161" value="&lt;div&gt;Printer&lt;/div&gt;&lt;div&gt;HR&lt;/div&gt;" style="text;html=1;align=center;verticalAlign=middle;resizable=0;points=[];autosize=1;strokeColor=none;fillColor=none;" vertex="1" parent="1">
          <mxGeometry x="650" y="370" width="60" height="40" as="geometry" />
        </mxCell>
        <mxCell id="qxTb5DwPUGE20EvFg6JT-162" value="&lt;div&gt;Printer&lt;/div&gt;&lt;div&gt;Finance&lt;/div&gt;" style="text;html=1;align=center;verticalAlign=middle;resizable=0;points=[];autosize=1;strokeColor=none;fillColor=none;" vertex="1" parent="1">
          <mxGeometry x="275" y="370" width="70" height="40" as="geometry" />
        </mxCell>
        <mxCell id="qxTb5DwPUGE20EvFg6JT-164" value="Printer&lt;div&gt;CC&lt;/div&gt;" style="text;html=1;align=center;verticalAlign=middle;resizable=0;points=[];autosize=1;strokeColor=none;fillColor=none;" vertex="1" parent="1">
          <mxGeometry x="170" y="800" width="60" height="40" as="geometry" />
        </mxCell>
        <mxCell id="qxTb5DwPUGE20EvFg6JT-165" value="Printer&lt;div&gt;S&amp;amp;M&lt;/div&gt;" style="text;html=1;align=center;verticalAlign=middle;resizable=0;points=[];autosize=1;strokeColor=none;fillColor=none;" vertex="1" parent="1">
          <mxGeometry x="495" y="800" width="60" height="40" as="geometry" />
        </mxCell>
        <mxCell id="qxTb5DwPUGE20EvFg6JT-166" value="&lt;div&gt;Access Point&lt;/div&gt;" style="text;html=1;align=center;verticalAlign=middle;resizable=0;points=[];autosize=1;strokeColor=none;fillColor=none;" vertex="1" parent="1">
          <mxGeometry x="635" y="810" width="90" height="30" as="geometry" />
        </mxCell>
        <mxCell id="qxTb5DwPUGE20EvFg6JT-168" value="" style="fontColor=#0066CC;verticalAlign=top;verticalLabelPosition=bottom;labelPosition=center;align=center;html=1;outlineConnect=0;fillColor=#CCCCCC;strokeColor=#6881B3;gradientColor=none;gradientDirection=north;strokeWidth=2;shape=mxgraph.networks.laptop;" vertex="1" parent="1">
          <mxGeometry x="650" y="860" width="50" height="30" as="geometry" />
        </mxCell>
        <mxCell id="qxTb5DwPUGE20EvFg6JT-170" value="" style="endArrow=none;html=1;rounded=0;" edge="1" parent="1">
          <mxGeometry width="50" height="50" relative="1" as="geometry">
            <mxPoint x="-130" y="1180" as="sourcePoint" />
            <mxPoint x="1440" y="1180" as="targetPoint" />
          </mxGeometry>
        </mxCell>
        <mxCell id="qxTb5DwPUGE20EvFg6JT-169" value="Laptop&lt;div&gt;S&amp;amp;M&lt;/div&gt;" style="text;html=1;align=center;verticalAlign=middle;resizable=0;points=[];autosize=1;strokeColor=none;fillColor=none;" vertex="1" parent="1">
          <mxGeometry x="645" y="895" width="60" height="40" as="geometry" />
        </mxCell>
        <mxCell id="qxTb5DwPUGE20EvFg6JT-171" value="" style="endArrow=none;dashed=1;html=1;rounded=0;entryX=0.5;entryY=1;entryDx=0;entryDy=0;entryPerimeter=0;exitX=0.5;exitY=0;exitDx=0;exitDy=0;" edge="1" parent="1" source="qxTb5DwPUGE20EvFg6JT-41" target="qxTb5DwPUGE20EvFg6JT-20">
          <mxGeometry width="50" height="50" relative="1" as="geometry">
            <mxPoint x="615" y="780" as="sourcePoint" />
            <mxPoint x="570" y="680" as="targetPoint" />
          </mxGeometry>
        </mxCell>
        <mxCell id="qxTb5DwPUGE20EvFg6JT-172" value="" style="shape=link;html=1;rounded=0;" edge="1" parent="1">
          <mxGeometry width="100" relative="1" as="geometry">
            <mxPoint x="665" y="839" as="sourcePoint" />
            <mxPoint x="685" y="839" as="targetPoint" />
          </mxGeometry>
        </mxCell>
        <mxCell id="qxTb5DwPUGE20EvFg6JT-173" value="" style="shape=link;html=1;rounded=0;" edge="1" parent="1">
          <mxGeometry width="100" relative="1" as="geometry">
            <mxPoint x="665" y="849" as="sourcePoint" />
            <mxPoint x="685" y="849" as="targetPoint" />
          </mxGeometry>
        </mxCell>
        <mxCell id="qxTb5DwPUGE20EvFg6JT-174" value="" style="image;html=1;image=img/lib/clip_art/networking/Router_Icon_128x128.png" vertex="1" parent="1">
          <mxGeometry x="1210" y="800" width="80" height="80" as="geometry" />
        </mxCell>
        <mxCell id="qxTb5DwPUGE20EvFg6JT-232" style="edgeStyle=orthogonalEdgeStyle;rounded=0;orthogonalLoop=1;jettySize=auto;html=1;exitX=1;exitY=0.5;exitDx=0;exitDy=0;" edge="1" parent="1" source="qxTb5DwPUGE20EvFg6JT-175" target="BY2Y6sJ3G_0xBZ9hZWNd-22">
          <mxGeometry relative="1" as="geometry" />
        </mxCell>
        <mxCell id="qxTb5DwPUGE20EvFg6JT-175" value="" style="image;html=1;image=img/lib/clip_art/networking/Router_Icon_128x128.png" vertex="1" parent="1">
          <mxGeometry x="1210" y="680" width="80" height="70" as="geometry" />
        </mxCell>
        <mxCell id="qxTb5DwPUGE20EvFg6JT-226" style="edgeStyle=orthogonalEdgeStyle;rounded=0;orthogonalLoop=1;jettySize=auto;html=1;entryX=0.5;entryY=1;entryDx=0;entryDy=0;" edge="1" parent="1">
          <mxGeometry relative="1" as="geometry">
            <mxPoint x="1165" y="865" as="sourcePoint" />
            <mxPoint x="1250" y="860" as="targetPoint" />
            <Array as="points">
              <mxPoint x="1165" y="881" />
              <mxPoint x="1251" y="881" />
            </Array>
          </mxGeometry>
        </mxCell>
        <mxCell id="qxTb5DwPUGE20EvFg6JT-177" value="" style="fontColor=#0066CC;verticalAlign=top;verticalLabelPosition=bottom;labelPosition=center;align=center;html=1;outlineConnect=0;fillColor=#CCCCCC;strokeColor=#6881B3;gradientColor=none;gradientDirection=north;strokeWidth=2;shape=mxgraph.networks.firewall;" vertex="1" parent="1">
          <mxGeometry x="1025" y="840" width="140" height="90" as="geometry" />
        </mxCell>
        <mxCell id="qxTb5DwPUGE20EvFg6JT-179" value="" style="endArrow=none;html=1;rounded=0;entryX=0.5;entryY=0;entryDx=0;entryDy=0;entryPerimeter=0;fillColor=#dae8fc;strokeColor=#6c8ebf;" edge="1" parent="1" target="qxTb5DwPUGE20EvFg6JT-99">
          <mxGeometry width="50" height="50" relative="1" as="geometry">
            <mxPoint x="20" y="980" as="sourcePoint" />
            <mxPoint x="120" y="-370" as="targetPoint" />
            <Array as="points">
              <mxPoint x="20" y="-280" />
              <mxPoint x="125" y="-280" />
            </Array>
          </mxGeometry>
        </mxCell>
        <mxCell id="qxTb5DwPUGE20EvFg6JT-182" value="" style="endArrow=none;html=1;rounded=0;fillColor=#dae8fc;strokeColor=#6c8ebf;" edge="1" parent="1">
          <mxGeometry width="50" height="50" relative="1" as="geometry">
            <mxPoint x="20" y="980" as="sourcePoint" />
            <mxPoint x="1100" y="930" as="targetPoint" />
            <Array as="points">
              <mxPoint x="1020" y="980" />
            </Array>
          </mxGeometry>
        </mxCell>
        <mxCell id="qxTb5DwPUGE20EvFg6JT-183" value="" style="endArrow=none;html=1;rounded=0;entryX=0.5;entryY=0;entryDx=0;entryDy=0;entryPerimeter=0;fillColor=#dae8fc;strokeColor=#6c8ebf;" edge="1" parent="1" target="qxTb5DwPUGE20EvFg6JT-100">
          <mxGeometry width="50" height="50" relative="1" as="geometry">
            <mxPoint x="15" y="990" as="sourcePoint" />
            <mxPoint x="285" y="-210" as="targetPoint" />
            <Array as="points">
              <mxPoint x="15" y="-290" />
              <mxPoint x="310" y="-290" />
            </Array>
          </mxGeometry>
        </mxCell>
        <mxCell id="qxTb5DwPUGE20EvFg6JT-184" value="" style="endArrow=none;html=1;rounded=0;fillColor=#dae8fc;strokeColor=#6c8ebf;entryX=0.5;entryY=1;entryDx=0;entryDy=0;entryPerimeter=0;" edge="1" parent="1" target="qxTb5DwPUGE20EvFg6JT-177">
          <mxGeometry width="50" height="50" relative="1" as="geometry">
            <mxPoint x="15" y="989" as="sourcePoint" />
            <mxPoint x="870" y="800" as="targetPoint" />
            <Array as="points">
              <mxPoint x="1020" y="990" />
            </Array>
          </mxGeometry>
        </mxCell>
        <mxCell id="qxTb5DwPUGE20EvFg6JT-185" value="" style="endArrow=none;html=1;rounded=0;entryX=0.5;entryY=0;entryDx=0;entryDy=0;entryPerimeter=0;fillColor=#dae8fc;strokeColor=#6c8ebf;" edge="1" parent="1" target="qxTb5DwPUGE20EvFg6JT-101">
          <mxGeometry width="50" height="50" relative="1" as="geometry">
            <mxPoint x="5" y="1000" as="sourcePoint" />
            <mxPoint x="300" y="-260" as="targetPoint" />
            <Array as="points">
              <mxPoint x="5" y="-320" />
              <mxPoint x="300" y="-320" />
              <mxPoint x="510" y="-320" />
            </Array>
          </mxGeometry>
        </mxCell>
        <mxCell id="qxTb5DwPUGE20EvFg6JT-186" value="" style="endArrow=none;html=1;rounded=0;fillColor=#dae8fc;strokeColor=#6c8ebf;entryX=0.5;entryY=1;entryDx=0;entryDy=0;entryPerimeter=0;" edge="1" parent="1" target="qxTb5DwPUGE20EvFg6JT-177">
          <mxGeometry width="50" height="50" relative="1" as="geometry">
            <mxPoint x="5" y="1001" as="sourcePoint" />
            <mxPoint x="890" y="771" as="targetPoint" />
            <Array as="points">
              <mxPoint x="1020" y="1001" />
            </Array>
          </mxGeometry>
        </mxCell>
        <mxCell id="qxTb5DwPUGE20EvFg6JT-187" value="" style="endArrow=none;html=1;rounded=0;entryX=0.5;entryY=0;entryDx=0;entryDy=0;entryPerimeter=0;fillColor=#dae8fc;strokeColor=#6c8ebf;" edge="1" parent="1" target="qxTb5DwPUGE20EvFg6JT-134">
          <mxGeometry width="50" height="50" relative="1" as="geometry">
            <mxPoint x="-10" y="1010" as="sourcePoint" />
            <mxPoint x="520" y="-220" as="targetPoint" />
            <Array as="points">
              <mxPoint x="-10" y="-330" />
              <mxPoint x="665" y="-330" />
            </Array>
          </mxGeometry>
        </mxCell>
        <mxCell id="qxTb5DwPUGE20EvFg6JT-188" value="" style="endArrow=none;html=1;rounded=0;fillColor=#dae8fc;strokeColor=#6c8ebf;entryX=0.5;entryY=1;entryDx=0;entryDy=0;entryPerimeter=0;" edge="1" parent="1" target="qxTb5DwPUGE20EvFg6JT-177">
          <mxGeometry width="50" height="50" relative="1" as="geometry">
            <mxPoint x="-10" y="1010" as="sourcePoint" />
            <mxPoint x="940" y="790" as="targetPoint" />
            <Array as="points">
              <mxPoint x="1020" y="1011" />
            </Array>
          </mxGeometry>
        </mxCell>
        <mxCell id="qxTb5DwPUGE20EvFg6JT-190" value="" style="endArrow=none;html=1;rounded=0;entryX=0.5;entryY=0;entryDx=0;entryDy=0;entryPerimeter=0;fillColor=#dae8fc;strokeColor=#6c8ebf;" edge="1" parent="1" target="qxTb5DwPUGE20EvFg6JT-141">
          <mxGeometry width="50" height="50" relative="1" as="geometry">
            <mxPoint x="-20" y="1020" as="sourcePoint" />
            <mxPoint x="662.5" y="-260" as="targetPoint" />
            <Array as="points">
              <mxPoint x="-20" y="-340" />
              <mxPoint x="925" y="-340" />
            </Array>
          </mxGeometry>
        </mxCell>
        <mxCell id="qxTb5DwPUGE20EvFg6JT-191" value="" style="endArrow=none;html=1;rounded=0;fillColor=#dae8fc;strokeColor=#6c8ebf;entryX=0.5;entryY=1;entryDx=0;entryDy=0;entryPerimeter=0;" edge="1" parent="1" target="qxTb5DwPUGE20EvFg6JT-177">
          <mxGeometry width="50" height="50" relative="1" as="geometry">
            <mxPoint x="-20" y="1021" as="sourcePoint" />
            <mxPoint x="910" y="781" as="targetPoint" />
            <Array as="points">
              <mxPoint x="1030" y="1020" />
            </Array>
          </mxGeometry>
        </mxCell>
        <mxCell id="qxTb5DwPUGE20EvFg6JT-192" value="" style="endArrow=none;html=1;rounded=0;entryX=0.5;entryY=0;entryDx=0;entryDy=0;entryPerimeter=0;fillColor=#f8cecc;strokeColor=#b85450;" edge="1" parent="1" target="qxTb5DwPUGE20EvFg6JT-45">
          <mxGeometry width="50" height="50" relative="1" as="geometry">
            <mxPoint x="-30" y="1030" as="sourcePoint" />
            <mxPoint x="300" y="310" as="targetPoint" />
            <Array as="points">
              <mxPoint x="-30" y="190" />
              <mxPoint x="100" y="190" />
            </Array>
          </mxGeometry>
        </mxCell>
        <mxCell id="qxTb5DwPUGE20EvFg6JT-193" value="" style="endArrow=none;html=1;rounded=0;fillColor=#f8cecc;strokeColor=#b85450;entryX=0.5;entryY=1;entryDx=0;entryDy=0;entryPerimeter=0;" edge="1" parent="1" target="qxTb5DwPUGE20EvFg6JT-177">
          <mxGeometry width="50" height="50" relative="1" as="geometry">
            <mxPoint x="-30" y="1030" as="sourcePoint" />
            <mxPoint x="920" y="770" as="targetPoint" />
            <Array as="points">
              <mxPoint x="1030" y="1030" />
            </Array>
          </mxGeometry>
        </mxCell>
        <mxCell id="qxTb5DwPUGE20EvFg6JT-194" value="" style="endArrow=none;html=1;rounded=0;entryX=0.5;entryY=0;entryDx=0;entryDy=0;entryPerimeter=0;fillColor=#f8cecc;strokeColor=#b85450;" edge="1" parent="1" target="qxTb5DwPUGE20EvFg6JT-42">
          <mxGeometry width="50" height="50" relative="1" as="geometry">
            <mxPoint x="-40" y="1040" as="sourcePoint" />
            <mxPoint x="110" y="220" as="targetPoint" />
            <Array as="points">
              <mxPoint x="-40" y="180" />
              <mxPoint x="265" y="180" />
            </Array>
          </mxGeometry>
        </mxCell>
        <mxCell id="qxTb5DwPUGE20EvFg6JT-195" value="" style="endArrow=none;html=1;rounded=0;fillColor=#f8cecc;strokeColor=#b85450;entryX=0.5;entryY=1;entryDx=0;entryDy=0;entryPerimeter=0;" edge="1" parent="1" target="qxTb5DwPUGE20EvFg6JT-177">
          <mxGeometry width="50" height="50" relative="1" as="geometry">
            <mxPoint x="-50" y="1050" as="sourcePoint" />
            <mxPoint x="930" y="780" as="targetPoint" />
            <Array as="points">
              <mxPoint x="1050" y="1050" />
            </Array>
          </mxGeometry>
        </mxCell>
        <mxCell id="qxTb5DwPUGE20EvFg6JT-196" value="" style="endArrow=none;html=1;rounded=0;fillColor=#f8cecc;strokeColor=#b85450;" edge="1" parent="1" target="qxTb5DwPUGE20EvFg6JT-66">
          <mxGeometry width="50" height="50" relative="1" as="geometry">
            <mxPoint x="-50" y="1050" as="sourcePoint" />
            <mxPoint x="435" y="200" as="targetPoint" />
            <Array as="points">
              <mxPoint x="-50" y="170" />
              <mxPoint x="430" y="170" />
            </Array>
          </mxGeometry>
        </mxCell>
        <mxCell id="qxTb5DwPUGE20EvFg6JT-197" value="" style="endArrow=none;html=1;rounded=0;fillColor=#f8cecc;strokeColor=#b85450;" edge="1" parent="1">
          <mxGeometry width="50" height="50" relative="1" as="geometry">
            <mxPoint x="-40" y="1040" as="sourcePoint" />
            <mxPoint x="1090" y="930" as="targetPoint" />
            <Array as="points">
              <mxPoint x="1040" y="1040" />
            </Array>
          </mxGeometry>
        </mxCell>
        <mxCell id="qxTb5DwPUGE20EvFg6JT-198" value="" style="endArrow=none;html=1;rounded=0;fillColor=#f8cecc;strokeColor=#b85450;" edge="1" parent="1">
          <mxGeometry width="50" height="50" relative="1" as="geometry">
            <mxPoint x="-60" y="1060" as="sourcePoint" />
            <mxPoint x="620" y="210" as="targetPoint" />
            <Array as="points">
              <mxPoint x="-60" y="160" />
              <mxPoint x="620" y="160" />
            </Array>
          </mxGeometry>
        </mxCell>
        <mxCell id="qxTb5DwPUGE20EvFg6JT-199" value="" style="endArrow=none;html=1;rounded=0;fillColor=#f8cecc;strokeColor=#b85450;entryX=0.5;entryY=1;entryDx=0;entryDy=0;entryPerimeter=0;" edge="1" parent="1" target="qxTb5DwPUGE20EvFg6JT-177">
          <mxGeometry width="50" height="50" relative="1" as="geometry">
            <mxPoint x="-60" y="1060" as="sourcePoint" />
            <mxPoint x="910" y="780" as="targetPoint" />
            <Array as="points">
              <mxPoint x="1060" y="1060" />
            </Array>
          </mxGeometry>
        </mxCell>
        <mxCell id="qxTb5DwPUGE20EvFg6JT-200" value="" style="endArrow=none;html=1;rounded=0;exitX=0.5;exitY=0;exitDx=0;exitDy=0;exitPerimeter=0;fillColor=#d5e8d4;strokeColor=#82b366;" edge="1" parent="1" source="qxTb5DwPUGE20EvFg6JT-2">
          <mxGeometry width="50" height="50" relative="1" as="geometry">
            <mxPoint x="280" y="750" as="sourcePoint" />
            <mxPoint x="-70" y="1071" as="targetPoint" />
            <Array as="points">
              <mxPoint x="135" y="620" />
              <mxPoint x="-70" y="620" />
            </Array>
          </mxGeometry>
        </mxCell>
        <mxCell id="qxTb5DwPUGE20EvFg6JT-201" value="" style="endArrow=none;html=1;rounded=0;fillColor=#d5e8d4;strokeColor=#82b366;" edge="1" parent="1">
          <mxGeometry width="50" height="50" relative="1" as="geometry">
            <mxPoint x="-70" y="1070" as="sourcePoint" />
            <mxPoint x="1095" y="930" as="targetPoint" />
            <Array as="points">
              <mxPoint x="1070" y="1070" />
            </Array>
          </mxGeometry>
        </mxCell>
        <mxCell id="qxTb5DwPUGE20EvFg6JT-202" value="" style="endArrow=none;html=1;rounded=0;exitX=0.5;exitY=0;exitDx=0;exitDy=0;exitPerimeter=0;fillColor=#d5e8d4;strokeColor=#82b366;" edge="1" parent="1" source="qxTb5DwPUGE20EvFg6JT-11">
          <mxGeometry width="50" height="50" relative="1" as="geometry">
            <mxPoint x="145" y="650" as="sourcePoint" />
            <mxPoint x="-80" y="1081" as="targetPoint" />
            <Array as="points">
              <mxPoint x="335" y="610" />
              <mxPoint x="-80" y="610" />
            </Array>
          </mxGeometry>
        </mxCell>
        <mxCell id="qxTb5DwPUGE20EvFg6JT-203" value="" style="endArrow=none;html=1;rounded=0;fillColor=#d5e8d4;strokeColor=#82b366;entryX=0.5;entryY=1;entryDx=0;entryDy=0;entryPerimeter=0;" edge="1" parent="1" target="qxTb5DwPUGE20EvFg6JT-177">
          <mxGeometry width="50" height="50" relative="1" as="geometry">
            <mxPoint x="-80" y="1080" as="sourcePoint" />
            <mxPoint x="920" y="790" as="targetPoint" />
            <Array as="points">
              <mxPoint x="1080" y="1080" />
            </Array>
          </mxGeometry>
        </mxCell>
        <mxCell id="qxTb5DwPUGE20EvFg6JT-204" value="" style="endArrow=none;html=1;rounded=0;exitX=0.5;exitY=0;exitDx=0;exitDy=0;exitPerimeter=0;fillColor=#d5e8d4;strokeColor=#82b366;" edge="1" parent="1" source="qxTb5DwPUGE20EvFg6JT-20">
          <mxGeometry width="50" height="50" relative="1" as="geometry">
            <mxPoint x="345" y="650" as="sourcePoint" />
            <mxPoint x="-90" y="1090" as="targetPoint" />
            <Array as="points">
              <mxPoint x="605" y="600" />
              <mxPoint x="-90" y="600" />
            </Array>
          </mxGeometry>
        </mxCell>
        <mxCell id="qxTb5DwPUGE20EvFg6JT-205" value="" style="endArrow=none;html=1;rounded=0;fillColor=#d5e8d4;strokeColor=#82b366;entryX=0.5;entryY=0.889;entryDx=0;entryDy=0;entryPerimeter=0;" edge="1" parent="1" target="qxTb5DwPUGE20EvFg6JT-177">
          <mxGeometry width="50" height="50" relative="1" as="geometry">
            <mxPoint x="-90" y="1090" as="sourcePoint" />
            <mxPoint x="910" y="780" as="targetPoint" />
            <Array as="points">
              <mxPoint x="1100" y="1090" />
            </Array>
          </mxGeometry>
        </mxCell>
        <mxCell id="qxTb5DwPUGE20EvFg6JT-231" value="" style="edgeStyle=orthogonalEdgeStyle;rounded=0;orthogonalLoop=1;jettySize=auto;html=1;" edge="1" parent="1" source="qxTb5DwPUGE20EvFg6JT-207" target="qxTb5DwPUGE20EvFg6JT-175">
          <mxGeometry relative="1" as="geometry">
            <Array as="points">
              <mxPoint x="1250" y="660" />
            </Array>
          </mxGeometry>
        </mxCell>
        <mxCell id="qxTb5DwPUGE20EvFg6JT-207" value="" style="fontColor=#0066CC;verticalAlign=top;verticalLabelPosition=bottom;labelPosition=center;align=center;html=1;outlineConnect=0;fillColor=#CCCCCC;strokeColor=#6881B3;gradientColor=none;gradientDirection=north;strokeWidth=2;shape=mxgraph.networks.firewall;" vertex="1" parent="1">
          <mxGeometry x="1015" y="615" width="140" height="90" as="geometry" />
        </mxCell>
        <mxCell id="qxTb5DwPUGE20EvFg6JT-208" value="" style="endArrow=none;html=1;rounded=0;fillColor=#dae8fc;strokeColor=#6c8ebf;entryX=0.5;entryY=0;entryDx=0;entryDy=0;entryPerimeter=0;" edge="1" parent="1" target="qxTb5DwPUGE20EvFg6JT-207">
          <mxGeometry width="50" height="50" relative="1" as="geometry">
            <mxPoint x="120" y="-280" as="sourcePoint" />
            <mxPoint x="1158" y="490" as="targetPoint" />
            <Array as="points">
              <mxPoint x="1170" y="-280" />
              <mxPoint x="1160" y="500" />
            </Array>
          </mxGeometry>
        </mxCell>
        <mxCell id="qxTb5DwPUGE20EvFg6JT-210" value="" style="endArrow=none;html=1;rounded=0;fillColor=#dae8fc;strokeColor=#6c8ebf;entryX=0.5;entryY=0;entryDx=0;entryDy=0;entryPerimeter=0;" edge="1" parent="1" target="qxTb5DwPUGE20EvFg6JT-207">
          <mxGeometry width="50" height="50" relative="1" as="geometry">
            <mxPoint x="310" y="-290" as="sourcePoint" />
            <mxPoint x="1130" y="600" as="targetPoint" />
            <Array as="points">
              <mxPoint x="1180" y="-290" />
              <mxPoint x="1170" y="510" />
            </Array>
          </mxGeometry>
        </mxCell>
        <mxCell id="qxTb5DwPUGE20EvFg6JT-211" value="" style="endArrow=none;html=1;rounded=0;fillColor=#dae8fc;strokeColor=#6c8ebf;" edge="1" parent="1">
          <mxGeometry width="50" height="50" relative="1" as="geometry">
            <mxPoint x="510" y="-320" as="sourcePoint" />
            <mxPoint x="1090" y="610" as="targetPoint" />
            <Array as="points">
              <mxPoint x="1190" y="-320" />
              <mxPoint x="1180" y="520" />
            </Array>
          </mxGeometry>
        </mxCell>
        <mxCell id="qxTb5DwPUGE20EvFg6JT-212" value="" style="endArrow=none;html=1;rounded=0;fillColor=#dae8fc;strokeColor=#6c8ebf;" edge="1" parent="1">
          <mxGeometry width="50" height="50" relative="1" as="geometry">
            <mxPoint x="660" y="-330" as="sourcePoint" />
            <mxPoint x="1090" y="610" as="targetPoint" />
            <Array as="points">
              <mxPoint x="1200" y="-330" />
              <mxPoint x="1200" y="520" />
            </Array>
          </mxGeometry>
        </mxCell>
        <mxCell id="qxTb5DwPUGE20EvFg6JT-213" value="" style="endArrow=none;html=1;rounded=0;fillColor=#dae8fc;strokeColor=#6c8ebf;entryX=0.5;entryY=0;entryDx=0;entryDy=0;entryPerimeter=0;" edge="1" parent="1" target="qxTb5DwPUGE20EvFg6JT-207">
          <mxGeometry width="50" height="50" relative="1" as="geometry">
            <mxPoint x="920" y="-340" as="sourcePoint" />
            <mxPoint x="1100" y="620" as="targetPoint" />
            <Array as="points">
              <mxPoint x="1210" y="-340" />
              <mxPoint x="1210" y="530" />
            </Array>
          </mxGeometry>
        </mxCell>
        <mxCell id="qxTb5DwPUGE20EvFg6JT-214" value="" style="endArrow=none;html=1;rounded=0;fillColor=#f8cecc;strokeColor=#b85450;" edge="1" parent="1">
          <mxGeometry width="50" height="50" relative="1" as="geometry">
            <mxPoint x="100" y="190" as="sourcePoint" />
            <mxPoint x="1040" y="200" as="targetPoint" />
          </mxGeometry>
        </mxCell>
        <mxCell id="qxTb5DwPUGE20EvFg6JT-215" value="" style="endArrow=none;html=1;rounded=0;fillColor=#f8cecc;strokeColor=#b85450;" edge="1" parent="1">
          <mxGeometry width="50" height="50" relative="1" as="geometry">
            <mxPoint x="620" y="160" as="sourcePoint" />
            <mxPoint x="1080" y="160" as="targetPoint" />
          </mxGeometry>
        </mxCell>
        <mxCell id="qxTb5DwPUGE20EvFg6JT-216" value="" style="endArrow=none;html=1;rounded=0;exitX=0.5;exitY=0;exitDx=0;exitDy=0;exitPerimeter=0;fillColor=#f8cecc;strokeColor=#b85450;" edge="1" parent="1" source="qxTb5DwPUGE20EvFg6JT-207">
          <mxGeometry width="50" height="50" relative="1" as="geometry">
            <mxPoint x="1100" y="520" as="sourcePoint" />
            <mxPoint x="1080" y="160" as="targetPoint" />
          </mxGeometry>
        </mxCell>
        <mxCell id="qxTb5DwPUGE20EvFg6JT-217" value="" style="endArrow=none;html=1;rounded=0;fillColor=#f8cecc;strokeColor=#b85450;" edge="1" parent="1">
          <mxGeometry width="50" height="50" relative="1" as="geometry">
            <mxPoint x="430" y="170" as="sourcePoint" />
            <mxPoint x="1060" y="170" as="targetPoint" />
          </mxGeometry>
        </mxCell>
        <mxCell id="qxTb5DwPUGE20EvFg6JT-218" value="" style="endArrow=none;html=1;rounded=0;fillColor=#f8cecc;strokeColor=#b85450;" edge="1" parent="1">
          <mxGeometry width="50" height="50" relative="1" as="geometry">
            <mxPoint x="1080" y="610" as="sourcePoint" />
            <mxPoint x="1060" y="170" as="targetPoint" />
          </mxGeometry>
        </mxCell>
        <mxCell id="qxTb5DwPUGE20EvFg6JT-219" value="" style="endArrow=none;html=1;rounded=0;fillColor=#f8cecc;strokeColor=#b85450;" edge="1" parent="1">
          <mxGeometry width="50" height="50" relative="1" as="geometry">
            <mxPoint x="250" y="180" as="sourcePoint" />
            <mxPoint x="1050" y="180" as="targetPoint" />
          </mxGeometry>
        </mxCell>
        <mxCell id="qxTb5DwPUGE20EvFg6JT-220" value="" style="endArrow=none;html=1;rounded=0;exitX=0.5;exitY=0;exitDx=0;exitDy=0;exitPerimeter=0;fillColor=#f8cecc;strokeColor=#b85450;" edge="1" parent="1" source="qxTb5DwPUGE20EvFg6JT-207">
          <mxGeometry width="50" height="50" relative="1" as="geometry">
            <mxPoint x="1060" y="600" as="sourcePoint" />
            <mxPoint x="1050" y="180" as="targetPoint" />
          </mxGeometry>
        </mxCell>
        <mxCell id="qxTb5DwPUGE20EvFg6JT-221" value="" style="endArrow=none;html=1;rounded=0;fillColor=#f8cecc;strokeColor=#b85450;" edge="1" parent="1" source="qxTb5DwPUGE20EvFg6JT-207">
          <mxGeometry width="50" height="50" relative="1" as="geometry">
            <mxPoint x="1060" y="580" as="sourcePoint" />
            <mxPoint x="1040" y="200" as="targetPoint" />
          </mxGeometry>
        </mxCell>
        <mxCell id="qxTb5DwPUGE20EvFg6JT-222" value="" style="endArrow=none;html=1;rounded=0;entryX=0.014;entryY=0.1;entryDx=0;entryDy=0;entryPerimeter=0;fillColor=#d5e8d4;strokeColor=#82b366;" edge="1" parent="1" target="qxTb5DwPUGE20EvFg6JT-207">
          <mxGeometry width="50" height="50" relative="1" as="geometry">
            <mxPoint x="130" y="620" as="sourcePoint" />
            <mxPoint x="720" y="620" as="targetPoint" />
          </mxGeometry>
        </mxCell>
        <mxCell id="qxTb5DwPUGE20EvFg6JT-223" value="" style="endArrow=none;html=1;rounded=0;entryX=0;entryY=0;entryDx=0;entryDy=0;entryPerimeter=0;fillColor=#d5e8d4;strokeColor=#82b366;" edge="1" parent="1" target="qxTb5DwPUGE20EvFg6JT-207">
          <mxGeometry width="50" height="50" relative="1" as="geometry">
            <mxPoint x="330" y="610" as="sourcePoint" />
            <mxPoint x="1027" y="634" as="targetPoint" />
          </mxGeometry>
        </mxCell>
        <mxCell id="qxTb5DwPUGE20EvFg6JT-224" value="" style="endArrow=none;html=1;rounded=0;fillColor=#d5e8d4;strokeColor=#82b366;" edge="1" parent="1">
          <mxGeometry width="50" height="50" relative="1" as="geometry">
            <mxPoint x="600" y="600" as="sourcePoint" />
            <mxPoint x="1020" y="610" as="targetPoint" />
            <Array as="points">
              <mxPoint x="1020" y="600" />
              <mxPoint x="1020" y="610" />
              <mxPoint x="1020" y="630" />
            </Array>
          </mxGeometry>
        </mxCell>
        <mxCell id="qxTb5DwPUGE20EvFg6JT-227" style="edgeStyle=orthogonalEdgeStyle;rounded=0;orthogonalLoop=1;jettySize=auto;html=1;exitX=0.5;exitY=1;exitDx=0;exitDy=0;" edge="1" parent="1" source="qxTb5DwPUGE20EvFg6JT-174">
          <mxGeometry relative="1" as="geometry">
            <mxPoint x="1250" y="860" as="targetPoint" />
          </mxGeometry>
        </mxCell>
        <mxCell id="qxTb5DwPUGE20EvFg6JT-235" value="" style="endArrow=none;html=1;rounded=0;exitX=1;exitY=0.5;exitDx=0;exitDy=0;" edge="1" parent="1" source="qxTb5DwPUGE20EvFg6JT-174">
          <mxGeometry width="50" height="50" relative="1" as="geometry">
            <mxPoint x="1450" y="710" as="sourcePoint" />
            <mxPoint x="1380" y="760" as="targetPoint" />
            <Array as="points">
              <mxPoint x="1380" y="840" />
            </Array>
          </mxGeometry>
        </mxCell>
        <mxCell id="qxTb5DwPUGE20EvFg6JT-236" value="&lt;span style=&quot;color: rgb(29, 33, 37); font-family: -apple-system, BlinkMacSystemFont, &amp;quot;Segoe UI&amp;quot;, Roboto, &amp;quot;Helvetica Neue&amp;quot;, Arial, &amp;quot;Noto Sans&amp;quot;, &amp;quot;Liberation Sans&amp;quot;, sans-serif, &amp;quot;Apple Color Emoji&amp;quot;, &amp;quot;Segoe UI Emoji&amp;quot;, &amp;quot;Segoe UI Symbol&amp;quot;, &amp;quot;Noto Color Emoji&amp;quot;; text-align: left; background-color: rgb(248, 249, 250);&quot;&gt;&lt;b style=&quot;&quot;&gt;&lt;font style=&quot;font-size: 22px;&quot;&gt;LAN design with switches&lt;/font&gt;&lt;/b&gt;&lt;/span&gt;" style="text;html=1;align=center;verticalAlign=middle;whiteSpace=wrap;rounded=0;" vertex="1" parent="1">
          <mxGeometry x="545" y="-490" width="310" height="30" as="geometry" />
        </mxCell>
      </root>
    </mxGraphModel>
  </diagram>
  <diagram name="Page-2" id="6uqvxHiUQ3FMwCPscaha">
    <mxGraphModel grid="1" page="1" gridSize="10" guides="1" tooltips="1" connect="1" arrows="1" fold="1" pageScale="1" pageWidth="850" pageHeight="1100" math="0" shadow="0">
      <root>
        <mxCell id="0" />
        <mxCell id="1" parent="0" />
        <UserObject label="" plantUmlData="{&#xa;  &quot;data&quot;: &quot;@startuml\ntitle Network Diagram by Floor and Department\n\n&#39; First Floor\npackage \&quot;First Floor\&quot; {\n  package \&quot;Customer Care (10 PCs, 1 Printer, 1 Switch)\&quot; {\n    [PC1] --&gt; [Switch]\n    [PC2] --&gt; [Switch]\n    [Printer] --&gt; [Switch]\n  }\n  package \&quot;Sales and Marketing (20 PCs, 1 Printer, 2 Switches, 1 Server)\&quot; {\n    [PC1] --&gt; [Switch1]\n    [PC2] --&gt; [Switch1]\n    [PC20] --&gt; [Switch2]\n    [Printer] --&gt; [Switch1]\n    [Server] --&gt; [Switch2]\n  }\n}\n\n&#39; Second Floor\npackage \&quot;Second Floor\&quot; {\n  package \&quot;Finance (25 PCs, 1 Printer, 2 Switches)\&quot; {\n    [PC1] --&gt; [Switch1]\n    [PC25] --&gt; [Switch2]\n    [Printer] --&gt; [Switch1]\n  }\n  package \&quot;Legal (5 PCs, 1 Printer, 1 Switch)\&quot; {\n    [PC1] --&gt; [Switch]\n    [Printer] --&gt; [Switch]\n  }\n  package \&quot;HR (10 PCs, 1 Printer, 1 Switch)\&quot; {\n    [PC1] --&gt; [Switch]\n    [Printer] --&gt; [Switch]\n  }\n}\n\n&#39; Third Floor\npackage \&quot;Third Floor\&quot; {\n  package \&quot;Developers (55 PCs, 1 Printer, 3 Switches)\&quot; {\n    [PC1] --&gt; [Switch1]\n    [PC55] --&gt; [Switch3]\n    [Printer] --&gt; [Switch1]\n  }\n  package \&quot;Network Team (5 PCs, 1 Switch)\&quot; {\n    [PC1] --&gt; [Switch]\n  }\n  package \&quot;Server Room (4 Servers, 1 Switch)\&quot; {\n    [Server1] --&gt; [Switch]\n    [Server4] --&gt; [Switch]\n  }\n}\n\n@enduml\n&quot;,&#xa;  &quot;format&quot;: &quot;svg&quot;&#xa;}" id="jBH1Kqxfqtxf5DE_Z_qS-2">
          <mxCell style="shape=image;noLabel=1;verticalAlign=top;aspect=fixed;imageAspect=0;image=data:image/svg+xml,PD94bWwgdmVyc2lvbj0iMS4wIiBlbmNvZGluZz0idXMtYXNjaWkiIHN0YW5kYWxvbmU9Im5vIj8+PHN2ZyB4bWxucz0iaHR0cDovL3d3dy53My5vcmcvMjAwMC9zdmciIHhtbG5zOnhsaW5rPSJodHRwOi8vd3d3LnczLm9yZy8xOTk5L3hsaW5rIiBjb250ZW50U3R5bGVUeXBlPSJ0ZXh0L2NzcyIgaGVpZ2h0PSI0NzFweCIgcHJlc2VydmVBc3BlY3RSYXRpbz0ibm9uZSIgc3R5bGU9IndpZHRoOjI3MzhweDtoZWlnaHQ6NDcxcHg7YmFja2dyb3VuZDojRkZGRkZGOyIgdmVyc2lvbj0iMS4xIiB2aWV3Qm94PSIwIDAgMjczOCA0NzEiIHdpZHRoPSIyNzM4cHgiIHpvb21BbmRQYW49Im1hZ25pZnkiPjxkZWZzLz48Zz48dGV4dCBmaWxsPSIjMDAwMDAwIiBmb250LWZhbWlseT0ic2Fucy1zZXJpZiIgZm9udC1zaXplPSIxNCIgZm9udC13ZWlnaHQ9ImJvbGQiIGxlbmd0aEFkanVzdD0ic3BhY2luZyIgdGV4dExlbmd0aD0iMjc2IiB4PSIxMjI0IiB5PSIyMy4yMzQ0Ij5OZXR3b3JrIERpYWdyYW0gYnkgRmxvb3IgYW5kIERlcGFydG1lbnQ8L3RleHQ+PCEtLWNsdXN0ZXIgRmlyc3QgRmxvb3ItLT48ZyBpZD0iY2x1c3Rlcl9GaXJzdCBGbG9vciI+PHBhdGggZD0iTTguNSw0MS45ODQ0IEw4Ni41LDQxLjk4NDQgQTMuNzUsMy43NSAwIDAgMSA4OSw0NC40ODQ0IEw5Niw2Mi45Njg4IEw4NDIuNSw2Mi45Njg4IEEyLjUsMi41IDAgMCAxIDg0NSw2NS40Njg4IEw4NDUsNDYyLjQ4NDQgQTIuNSwyLjUgMCAwIDEgODQyLjUsNDY0Ljk4NDQgTDguNSw0NjQuOTg0NCBBMi41LDIuNSAwIDAgMSA2LDQ2Mi40ODQ0IEw2LDQ0LjQ4NDQgQTIuNSwyLjUgMCAwIDEgOC41LDQxLjk4NDQgIiBmaWxsPSJub25lIiBzdHlsZT0ic3Ryb2tlOiMwMDAwMDA7c3Ryb2tlLXdpZHRoOjEuNTsiLz48bGluZSBzdHlsZT0ic3Ryb2tlOiMwMDAwMDA7c3Ryb2tlLXdpZHRoOjEuNTsiIHgxPSI2IiB4Mj0iOTYiIHkxPSI2Mi45Njg4IiB5Mj0iNjIuOTY4OCIvPjx0ZXh0IGZpbGw9IiMwMDAwMDAiIGZvbnQtZmFtaWx5PSJzYW5zLXNlcmlmIiBmb250LXNpemU9IjE0IiBmb250LXdlaWdodD0iYm9sZCIgbGVuZ3RoQWRqdXN0PSJzcGFjaW5nIiB0ZXh0TGVuZ3RoPSI3NyIgeD0iMTAiIHk9IjU3LjIxODgiPkZpcnN0IEZsb29yPC90ZXh0PjwvZz48IS0tY2x1c3RlciBDdXN0b21lciBDYXJlICgxMCBQQ3MsIDEgUHJpbnRlciwgMSBTd2l0Y2gpLS0+PGcgaWQ9ImNsdXN0ZXJfQ3VzdG9tZXIgQ2FyZSAoMTAgUENzLCAxIFByaW50ZXIsIDEgU3dpdGNoKSI+PHBhdGggZD0iTTUwMi41LDgyLjk4NDQgTDgwOC41LDgyLjk4NDQgQTMuNzUsMy43NSAwIDAgMSA4MTEsODUuNDg0NCBMODE4LDEwMy45Njg4IEw4MTguNSwxMDMuOTY4OCBBMi41LDIuNSAwIDAgMSA4MjEsMTA2LjQ2ODggTDgyMSwzMzMuNDg0NCBBMi41LDIuNSAwIDAgMSA4MTguNSwzMzUuOTg0NCBMNTAyLjUsMzM1Ljk4NDQgQTIuNSwyLjUgMCAwIDEgNTAwLDMzMy40ODQ0IEw1MDAsODUuNDg0NCBBMi41LDIuNSAwIDAgMSA1MDIuNSw4Mi45ODQ0ICIgZmlsbD0ibm9uZSIgc3R5bGU9InN0cm9rZTojMDAwMDAwO3N0cm9rZS13aWR0aDoxLjU7Ii8+PGxpbmUgc3R5bGU9InN0cm9rZTojMDAwMDAwO3N0cm9rZS13aWR0aDoxLjU7IiB4MT0iNTAwIiB4Mj0iODE4IiB5MT0iMTAzLjk2ODgiIHkyPSIxMDMuOTY4OCIvPjx0ZXh0IGZpbGw9IiMwMDAwMDAiIGZvbnQtZmFtaWx5PSJzYW5zLXNlcmlmIiBmb250LXNpemU9IjE0IiBmb250LXdlaWdodD0iYm9sZCIgbGVuZ3RoQWRqdXN0PSJzcGFjaW5nIiB0ZXh0TGVuZ3RoPSIzMDUiIHg9IjUwNCIgeT0iOTguMjE4OCI+Q3VzdG9tZXIgQ2FyZSAoMTAgUENzLCAxIFByaW50ZXIsIDEgU3dpdGNoKTwvdGV4dD48L2c+PCEtLWNsdXN0ZXIgU2FsZXMgYW5kIE1hcmtldGluZyAoMjAgUENzLCAxIFByaW50ZXIsIDIgU3dpdGNoZXMsIDEgU2VydmVyKS0tPjxnIGlkPSJjbHVzdGVyX1NhbGVzIGFuZCBNYXJrZXRpbmcgKDIwIFBDcywgMSBQcmludGVyLCAyIFN3aXRjaGVzLCAxIFNlcnZlcikiPjxwYXRoIGQ9Ik0zMi41LDI0MS45ODQ0IEw0NjMuNSwyNDEuOTg0NCBBMy43NSwzLjc1IDAgMCAxIDQ2NiwyNDQuNDg0NCBMNDczLDI2Mi45Njg4IEw0NzMuNSwyNjIuOTY4OCBBMi41LDIuNSAwIDAgMSA0NzYsMjY1LjQ2ODggTDQ3Niw0MzguNDg0NCBBMi41LDIuNSAwIDAgMSA0NzMuNSw0NDAuOTg0NCBMMzIuNSw0NDAuOTg0NCBBMi41LDIuNSAwIDAgMSAzMCw0MzguNDg0NCBMMzAsMjQ0LjQ4NDQgQTIuNSwyLjUgMCAwIDEgMzIuNSwyNDEuOTg0NCAiIGZpbGw9Im5vbmUiIHN0eWxlPSJzdHJva2U6IzAwMDAwMDtzdHJva2Utd2lkdGg6MS41OyIvPjxsaW5lIHN0eWxlPSJzdHJva2U6IzAwMDAwMDtzdHJva2Utd2lkdGg6MS41OyIgeDE9IjMwIiB4Mj0iNDczIiB5MT0iMjYyLjk2ODgiIHkyPSIyNjIuOTY4OCIvPjx0ZXh0IGZpbGw9IiMwMDAwMDAiIGZvbnQtZmFtaWx5PSJzYW5zLXNlcmlmIiBmb250LXNpemU9IjE0IiBmb250LXdlaWdodD0iYm9sZCIgbGVuZ3RoQWRqdXN0PSJzcGFjaW5nIiB0ZXh0TGVuZ3RoPSI0MzAiIHg9IjM0IiB5PSIyNTcuMjE4OCI+U2FsZXMgYW5kIE1hcmtldGluZyAoMjAgUENzLCAxIFByaW50ZXIsIDIgU3dpdGNoZXMsIDEgU2VydmVyKTwvdGV4dD48L2c+PCEtLWNsdXN0ZXIgU2Vjb25kIEZsb29yLS0+PGcgaWQ9ImNsdXN0ZXJfU2Vjb25kIEZsb29yIj48cGF0aCBkPSJNODcxLjUsMjAwLjk4NDQgTDk1Ni41LDIwMC45ODQ0IEEzLjc1LDMuNzUgMCAwIDEgOTU5LDIwMy40ODQ0IEw5NjYsMjIxLjk2ODggTDE4MDIuNSwyMjEuOTY4OCBBMi41LDIuNSAwIDAgMSAxODA1LDIyNC40Njg4IEwxODA1LDM1Ny40ODQ0IEEyLjUsMi41IDAgMCAxIDE4MDIuNSwzNTkuOTg0NCBMODcxLjUsMzU5Ljk4NDQgQTIuNSwyLjUgMCAwIDEgODY5LDM1Ny40ODQ0IEw4NjksMjAzLjQ4NDQgQTIuNSwyLjUgMCAwIDEgODcxLjUsMjAwLjk4NDQgIiBmaWxsPSJub25lIiBzdHlsZT0ic3Ryb2tlOiMwMDAwMDA7c3Ryb2tlLXdpZHRoOjEuNTsiLz48bGluZSBzdHlsZT0ic3Ryb2tlOiMwMDAwMDA7c3Ryb2tlLXdpZHRoOjEuNTsiIHgxPSI4NjkiIHgyPSI5NjYiIHkxPSIyMjEuOTY4OCIgeTI9IjIyMS45Njg4Ii8+PHRleHQgZmlsbD0iIzAwMDAwMCIgZm9udC1mYW1pbHk9InNhbnMtc2VyaWYiIGZvbnQtc2l6ZT0iMTQiIGZvbnQtd2VpZ2h0PSJib2xkIiBsZW5ndGhBZGp1c3Q9InNwYWNpbmciIHRleHRMZW5ndGg9Ijg0IiB4PSI4NzMiIHk9IjIxNi4yMTg4Ij5TZWNvbmQgRmxvb3I8L3RleHQ+PC9nPjwhLS1jbHVzdGVyIEZpbmFuY2UgKDI1IFBDcywgMSBQcmludGVyLCAyIFN3aXRjaGVzKS0tPjxnIGlkPSJjbHVzdGVyX0ZpbmFuY2UgKDI1IFBDcywgMSBQcmludGVyLCAyIFN3aXRjaGVzKSI+PHBhdGggZD0iTTE0OTEuNSwyNDEuOTg0NCBMMTc2OC41LDI0MS45ODQ0IEEzLjc1LDMuNzUgMCAwIDEgMTc3MSwyNDQuNDg0NCBMMTc3OCwyNjIuOTY4OCBMMTc3OC41LDI2Mi45Njg4IEEyLjUsMi41IDAgMCAxIDE3ODEsMjY1LjQ2ODggTDE3ODEsMzMzLjQ4NDQgQTIuNSwyLjUgMCAwIDEgMTc3OC41LDMzNS45ODQ0IEwxNDkxLjUsMzM1Ljk4NDQgQTIuNSwyLjUgMCAwIDEgMTQ4OSwzMzMuNDg0NCBMMTQ4OSwyNDQuNDg0NCBBMi41LDIuNSAwIDAgMSAxNDkxLjUsMjQxLjk4NDQgIiBmaWxsPSJub25lIiBzdHlsZT0ic3Ryb2tlOiMwMDAwMDA7c3Ryb2tlLXdpZHRoOjEuNTsiLz48bGluZSBzdHlsZT0ic3Ryb2tlOiMwMDAwMDA7c3Ryb2tlLXdpZHRoOjEuNTsiIHgxPSIxNDg5IiB4Mj0iMTc3OCIgeTE9IjI2Mi45Njg4IiB5Mj0iMjYyLjk2ODgiLz48dGV4dCBmaWxsPSIjMDAwMDAwIiBmb250LWZhbWlseT0ic2Fucy1zZXJpZiIgZm9udC1zaXplPSIxNCIgZm9udC13ZWlnaHQ9ImJvbGQiIGxlbmd0aEFkanVzdD0ic3BhY2luZyIgdGV4dExlbmd0aD0iMjc2IiB4PSIxNDkzIiB5PSIyNTcuMjE4OCI+RmluYW5jZSAoMjUgUENzLCAxIFByaW50ZXIsIDIgU3dpdGNoZXMpPC90ZXh0PjwvZz48IS0tY2x1c3RlciBUaGlyZCBGbG9vci0tPjxnIGlkPSJjbHVzdGVyX1RoaXJkIEZsb29yIj48cGF0aCBkPSJNMTgzMS41LDQxLjk4NDQgTDE5MDkuNSw0MS45ODQ0IEEzLjc1LDMuNzUgMCAwIDEgMTkxMiw0NC40ODQ0IEwxOTE5LDYyLjk2ODggTDI3MjguNSw2Mi45Njg4IEEyLjUsMi41IDAgMCAxIDI3MzEsNjUuNDY4OCBMMjczMSwzNTcuNDg0NCBBMi41LDIuNSAwIDAgMSAyNzI4LjUsMzU5Ljk4NDQgTDE4MzEuNSwzNTkuOTg0NCBBMi41LDIuNSAwIDAgMSAxODI5LDM1Ny40ODQ0IEwxODI5LDQ0LjQ4NDQgQTIuNSwyLjUgMCAwIDEgMTgzMS41LDQxLjk4NDQgIiBmaWxsPSJub25lIiBzdHlsZT0ic3Ryb2tlOiMwMDAwMDA7c3Ryb2tlLXdpZHRoOjEuNTsiLz48bGluZSBzdHlsZT0ic3Ryb2tlOiMwMDAwMDA7c3Ryb2tlLXdpZHRoOjEuNTsiIHgxPSIxODI5IiB4Mj0iMTkxOSIgeTE9IjYyLjk2ODgiIHkyPSI2Mi45Njg4Ii8+PHRleHQgZmlsbD0iIzAwMDAwMCIgZm9udC1mYW1pbHk9InNhbnMtc2VyaWYiIGZvbnQtc2l6ZT0iMTQiIGZvbnQtd2VpZ2h0PSJib2xkIiBsZW5ndGhBZGp1c3Q9InNwYWNpbmciIHRleHRMZW5ndGg9Ijc3IiB4PSIxODMzIiB5PSI1Ny4yMTg4Ij5UaGlyZCBGbG9vcjwvdGV4dD48L2c+PCEtLWNsdXN0ZXIgRGV2ZWxvcGVycyAoNTUgUENzLCAxIFByaW50ZXIsIDMgU3dpdGNoZXMpLS0+PGcgaWQ9ImNsdXN0ZXJfRGV2ZWxvcGVycyAoNTUgUENzLCAxIFByaW50ZXIsIDMgU3dpdGNoZXMpIj48cGF0aCBkPSJNMjM5Ni41LDgyLjk4NDQgTDI2OTQuNSw4Mi45ODQ0IEEzLjc1LDMuNzUgMCAwIDEgMjY5Nyw4NS40ODQ0IEwyNzA0LDEwMy45Njg4IEwyNzA0LjUsMTAzLjk2ODggQTIuNSwyLjUgMCAwIDEgMjcwNywxMDYuNDY4OCBMMjcwNywzMzMuNDg0NCBBMi41LDIuNSAwIDAgMSAyNzA0LjUsMzM1Ljk4NDQgTDIzOTYuNSwzMzUuOTg0NCBBMi41LDIuNSAwIDAgMSAyMzk0LDMzMy40ODQ0IEwyMzk0LDg1LjQ4NDQgQTIuNSwyLjUgMCAwIDEgMjM5Ni41LDgyLjk4NDQgIiBmaWxsPSJub25lIiBzdHlsZT0ic3Ryb2tlOiMwMDAwMDA7c3Ryb2tlLXdpZHRoOjEuNTsiLz48bGluZSBzdHlsZT0ic3Ryb2tlOiMwMDAwMDA7c3Ryb2tlLXdpZHRoOjEuNTsiIHgxPSIyMzk0IiB4Mj0iMjcwNCIgeTE9IjEwMy45Njg4IiB5Mj0iMTAzLjk2ODgiLz48dGV4dCBmaWxsPSIjMDAwMDAwIiBmb250LWZhbWlseT0ic2Fucy1zZXJpZiIgZm9udC1zaXplPSIxNCIgZm9udC13ZWlnaHQ9ImJvbGQiIGxlbmd0aEFkanVzdD0ic3BhY2luZyIgdGV4dExlbmd0aD0iMjk3IiB4PSIyMzk4IiB5PSI5OC4yMTg4Ij5EZXZlbG9wZXJzICg1NSBQQ3MsIDEgUHJpbnRlciwgMyBTd2l0Y2hlcyk8L3RleHQ+PC9nPjwhLS1jbHVzdGVyIFNlcnZlciBSb29tICg0IFNlcnZlcnMsIDEgU3dpdGNoKS0tPjxnIGlkPSJjbHVzdGVyX1NlcnZlciBSb29tICg0IFNlcnZlcnMsIDEgU3dpdGNoKSI+PHBhdGggZD0iTTIxMjEuNSw4Mi45ODQ0IEwyMzU3LjUsODIuOTg0NCBBMy43NSwzLjc1IDAgMCAxIDIzNjAsODUuNDg0NCBMMjM2NywxMDMuOTY4OCBMMjM2Ny41LDEwMy45Njg4IEEyLjUsMi41IDAgMCAxIDIzNzAsMTA2LjQ2ODggTDIzNzAsMTc0LjQ4NDQgQTIuNSwyLjUgMCAwIDEgMjM2Ny41LDE3Ni45ODQ0IEwyMTIxLjUsMTc2Ljk4NDQgQTIuNSwyLjUgMCAwIDEgMjExOSwxNzQuNDg0NCBMMjExOSw4NS40ODQ0IEEyLjUsMi41IDAgMCAxIDIxMjEuNSw4Mi45ODQ0ICIgZmlsbD0ibm9uZSIgc3R5bGU9InN0cm9rZTojMDAwMDAwO3N0cm9rZS13aWR0aDoxLjU7Ii8+PGxpbmUgc3R5bGU9InN0cm9rZTojMDAwMDAwO3N0cm9rZS13aWR0aDoxLjU7IiB4MT0iMjExOSIgeDI9IjIzNjciIHkxPSIxMDMuOTY4OCIgeTI9IjEwMy45Njg4Ii8+PHRleHQgZmlsbD0iIzAwMDAwMCIgZm9udC1mYW1pbHk9InNhbnMtc2VyaWYiIGZvbnQtc2l6ZT0iMTQiIGZvbnQtd2VpZ2h0PSJib2xkIiBsZW5ndGhBZGp1c3Q9InNwYWNpbmciIHRleHRMZW5ndGg9IjIzNSIgeD0iMjEyMyIgeT0iOTguMjE4OCI+U2VydmVyIFJvb20gKDQgU2VydmVycywgMSBTd2l0Y2gpPC90ZXh0PjwvZz48IS0tZW50aXR5IFBDMS0tPjxnIGlkPSJlbGVtX1BDMSI+PHJlY3QgZmlsbD0iI0YxRjFGMSIgaGVpZ2h0PSI0NC45ODQ0IiByeD0iMi41IiByeT0iMi41IiBzdHlsZT0ic3Ryb2tlOiMxODE4MTg7c3Ryb2tlLXdpZHRoOjAuNTsiIHdpZHRoPSI2MSIgeD0iNzM1LjUiIHk9IjExNS45ODQ0Ii8+PHJlY3QgZmlsbD0iI0YxRjFGMSIgaGVpZ2h0PSIxMCIgc3R5bGU9InN0cm9rZTojMTgxODE4O3N0cm9rZS13aWR0aDowLjU7IiB3aWR0aD0iMTUiIHg9Ijc3Ni41IiB5PSIxMjAuOTg0NCIvPjxyZWN0IGZpbGw9IiNGMUYxRjEiIGhlaWdodD0iMiIgc3R5bGU9InN0cm9rZTojMTgxODE4O3N0cm9rZS13aWR0aDowLjU7IiB3aWR0aD0iNCIgeD0iNzc0LjUiIHk9IjEyMi45ODQ0Ii8+PHJlY3QgZmlsbD0iI0YxRjFGMSIgaGVpZ2h0PSIyIiBzdHlsZT0ic3Ryb2tlOiMxODE4MTg7c3Ryb2tlLXdpZHRoOjAuNTsiIHdpZHRoPSI0IiB4PSI3NzQuNSIgeT0iMTI2Ljk4NDQiLz48dGV4dCBmaWxsPSIjMDAwMDAwIiBmb250LWZhbWlseT0ic2Fucy1zZXJpZiIgZm9udC1zaXplPSIxNCIgbGVuZ3RoQWRqdXN0PSJzcGFjaW5nIiB0ZXh0TGVuZ3RoPSIyMSIgeD0iNzUwLjUiIHk9IjE0OS4yMTg4Ij5QQzE8L3RleHQ+PC9nPjwhLS1lbnRpdHkgU3dpdGNoLS0+PGcgaWQ9ImVsZW1fU3dpdGNoIj48cmVjdCBmaWxsPSIjRjFGMUYxIiBoZWlnaHQ9IjQ0Ljk4NDQiIHJ4PSIyLjUiIHJ5PSIyLjUiIHN0eWxlPSJzdHJva2U6IzE4MTgxODtzdHJva2Utd2lkdGg6MC41OyIgd2lkdGg9IjgzIiB4PSI3MTMuNSIgeT0iMjc0Ljk4NDQiLz48cmVjdCBmaWxsPSIjRjFGMUYxIiBoZWlnaHQ9IjEwIiBzdHlsZT0ic3Ryb2tlOiMxODE4MTg7c3Ryb2tlLXdpZHRoOjAuNTsiIHdpZHRoPSIxNSIgeD0iNzc2LjUiIHk9IjI3OS45ODQ0Ii8+PHJlY3QgZmlsbD0iI0YxRjFGMSIgaGVpZ2h0PSIyIiBzdHlsZT0ic3Ryb2tlOiMxODE4MTg7c3Ryb2tlLXdpZHRoOjAuNTsiIHdpZHRoPSI0IiB4PSI3NzQuNSIgeT0iMjgxLjk4NDQiLz48cmVjdCBmaWxsPSIjRjFGMUYxIiBoZWlnaHQ9IjIiIHN0eWxlPSJzdHJva2U6IzE4MTgxODtzdHJva2Utd2lkdGg6MC41OyIgd2lkdGg9IjQiIHg9Ijc3NC41IiB5PSIyODUuOTg0NCIvPjx0ZXh0IGZpbGw9IiMwMDAwMDAiIGZvbnQtZmFtaWx5PSJzYW5zLXNlcmlmIiBmb250LXNpemU9IjE0IiBsZW5ndGhBZGp1c3Q9InNwYWNpbmciIHRleHRMZW5ndGg9IjQzIiB4PSI3MjguNSIgeT0iMzA4LjIxODgiPlN3aXRjaDwvdGV4dD48L2c+PCEtLWVudGl0eSBQQzItLT48ZyBpZD0iZWxlbV9QQzIiPjxyZWN0IGZpbGw9IiNGMUYxRjEiIGhlaWdodD0iNDQuOTg0NCIgcng9IjIuNSIgcnk9IjIuNSIgc3R5bGU9InN0cm9rZTojMTgxODE4O3N0cm9rZS13aWR0aDowLjU7IiB3aWR0aD0iNjEiIHg9IjYzOS41IiB5PSIxMTUuOTg0NCIvPjxyZWN0IGZpbGw9IiNGMUYxRjEiIGhlaWdodD0iMTAiIHN0eWxlPSJzdHJva2U6IzE4MTgxODtzdHJva2Utd2lkdGg6MC41OyIgd2lkdGg9IjE1IiB4PSI2ODAuNSIgeT0iMTIwLjk4NDQiLz48cmVjdCBmaWxsPSIjRjFGMUYxIiBoZWlnaHQ9IjIiIHN0eWxlPSJzdHJva2U6IzE4MTgxODtzdHJva2Utd2lkdGg6MC41OyIgd2lkdGg9IjQiIHg9IjY3OC41IiB5PSIxMjIuOTg0NCIvPjxyZWN0IGZpbGw9IiNGMUYxRjEiIGhlaWdodD0iMiIgc3R5bGU9InN0cm9rZTojMTgxODE4O3N0cm9rZS13aWR0aDowLjU7IiB3aWR0aD0iNCIgeD0iNjc4LjUiIHk9IjEyNi45ODQ0Ii8+PHRleHQgZmlsbD0iIzAwMDAwMCIgZm9udC1mYW1pbHk9InNhbnMtc2VyaWYiIGZvbnQtc2l6ZT0iMTQiIGxlbmd0aEFkanVzdD0ic3BhY2luZyIgdGV4dExlbmd0aD0iMjEiIHg9IjY1NC41IiB5PSIxNDkuMjE4OCI+UEMyPC90ZXh0PjwvZz48IS0tZW50aXR5IFByaW50ZXItLT48ZyBpZD0iZWxlbV9QcmludGVyIj48cmVjdCBmaWxsPSIjRjFGMUYxIiBoZWlnaHQ9IjQ0Ljk4NDQiIHJ4PSIyLjUiIHJ5PSIyLjUiIHN0eWxlPSJzdHJva2U6IzE4MTgxODtzdHJva2Utd2lkdGg6MC41OyIgd2lkdGg9Ijg5IiB4PSI1MTUuNSIgeT0iMTE1Ljk4NDQiLz48cmVjdCBmaWxsPSIjRjFGMUYxIiBoZWlnaHQ9IjEwIiBzdHlsZT0ic3Ryb2tlOiMxODE4MTg7c3Ryb2tlLXdpZHRoOjAuNTsiIHdpZHRoPSIxNSIgeD0iNTg0LjUiIHk9IjEyMC45ODQ0Ii8+PHJlY3QgZmlsbD0iI0YxRjFGMSIgaGVpZ2h0PSIyIiBzdHlsZT0ic3Ryb2tlOiMxODE4MTg7c3Ryb2tlLXdpZHRoOjAuNTsiIHdpZHRoPSI0IiB4PSI1ODIuNSIgeT0iMTIyLjk4NDQiLz48cmVjdCBmaWxsPSIjRjFGMUYxIiBoZWlnaHQ9IjIiIHN0eWxlPSJzdHJva2U6IzE4MTgxODtzdHJva2Utd2lkdGg6MC41OyIgd2lkdGg9IjQiIHg9IjU4Mi41IiB5PSIxMjYuOTg0NCIvPjx0ZXh0IGZpbGw9IiMwMDAwMDAiIGZvbnQtZmFtaWx5PSJzYW5zLXNlcmlmIiBmb250LXNpemU9IjE0IiBsZW5ndGhBZGp1c3Q9InNwYWNpbmciIHRleHRMZW5ndGg9IjQ5IiB4PSI1MzAuNSIgeT0iMTQ5LjIxODgiPlByaW50ZXI8L3RleHQ+PC9nPjwhLS1lbnRpdHkgU3dpdGNoMS0tPjxnIGlkPSJlbGVtX1N3aXRjaDEiPjxyZWN0IGZpbGw9IiNGMUYxRjEiIGhlaWdodD0iNDQuOTg0NCIgcng9IjIuNSIgcnk9IjIuNSIgc3R5bGU9InN0cm9rZTojMTgxODE4O3N0cm9rZS13aWR0aDowLjU7IiB3aWR0aD0iOTAiIHg9IjM3MCIgeT0iMjc0Ljk4NDQiLz48cmVjdCBmaWxsPSIjRjFGMUYxIiBoZWlnaHQ9IjEwIiBzdHlsZT0ic3Ryb2tlOiMxODE4MTg7c3Ryb2tlLXdpZHRoOjAuNTsiIHdpZHRoPSIxNSIgeD0iNDQwIiB5PSIyNzkuOTg0NCIvPjxyZWN0IGZpbGw9IiNGMUYxRjEiIGhlaWdodD0iMiIgc3R5bGU9InN0cm9rZTojMTgxODE4O3N0cm9rZS13aWR0aDowLjU7IiB3aWR0aD0iNCIgeD0iNDM4IiB5PSIyODEuOTg0NCIvPjxyZWN0IGZpbGw9IiNGMUYxRjEiIGhlaWdodD0iMiIgc3R5bGU9InN0cm9rZTojMTgxODE4O3N0cm9rZS13aWR0aDowLjU7IiB3aWR0aD0iNCIgeD0iNDM4IiB5PSIyODUuOTg0NCIvPjx0ZXh0IGZpbGw9IiMwMDAwMDAiIGZvbnQtZmFtaWx5PSJzYW5zLXNlcmlmIiBmb250LXNpemU9IjE0IiBsZW5ndGhBZGp1c3Q9InNwYWNpbmciIHRleHRMZW5ndGg9IjUwIiB4PSIzODUiIHk9IjMwOC4yMTg4Ij5Td2l0Y2gxPC90ZXh0PjwvZz48IS0tZW50aXR5IFBDMjAtLT48ZyBpZD0iZWxlbV9QQzIwIj48cmVjdCBmaWxsPSIjRjFGMUYxIiBoZWlnaHQ9IjQ0Ljk4NDQiIHJ4PSIyLjUiIHJ5PSIyLjUiIHN0eWxlPSJzdHJva2U6IzE4MTgxODtzdHJva2Utd2lkdGg6MC41OyIgd2lkdGg9IjY4IiB4PSIyNjciIHk9IjI3NC45ODQ0Ii8+PHJlY3QgZmlsbD0iI0YxRjFGMSIgaGVpZ2h0PSIxMCIgc3R5bGU9InN0cm9rZTojMTgxODE4O3N0cm9rZS13aWR0aDowLjU7IiB3aWR0aD0iMTUiIHg9IjMxNSIgeT0iMjc5Ljk4NDQiLz48cmVjdCBmaWxsPSIjRjFGMUYxIiBoZWlnaHQ9IjIiIHN0eWxlPSJzdHJva2U6IzE4MTgxODtzdHJva2Utd2lkdGg6MC41OyIgd2lkdGg9IjQiIHg9IjMxMyIgeT0iMjgxLjk4NDQiLz48cmVjdCBmaWxsPSIjRjFGMUYxIiBoZWlnaHQ9IjIiIHN0eWxlPSJzdHJva2U6IzE4MTgxODtzdHJva2Utd2lkdGg6MC41OyIgd2lkdGg9IjQiIHg9IjMxMyIgeT0iMjg1Ljk4NDQiLz48dGV4dCBmaWxsPSIjMDAwMDAwIiBmb250LWZhbWlseT0ic2Fucy1zZXJpZiIgZm9udC1zaXplPSIxNCIgbGVuZ3RoQWRqdXN0PSJzcGFjaW5nIiB0ZXh0TGVuZ3RoPSIyOCIgeD0iMjgyIiB5PSIzMDguMjE4OCI+UEMyMDwvdGV4dD48L2c+PCEtLWVudGl0eSBTd2l0Y2gyLS0+PGcgaWQ9ImVsZW1fU3dpdGNoMiI+PHJlY3QgZmlsbD0iI0YxRjFGMSIgaGVpZ2h0PSI0NC45ODQ0IiByeD0iMi41IiByeT0iMi41IiBzdHlsZT0ic3Ryb2tlOiMxODE4MTg7c3Ryb2tlLXdpZHRoOjAuNTsiIHdpZHRoPSI5MCIgeD0iMjU2IiB5PSIzNzkuOTg0NCIvPjxyZWN0IGZpbGw9IiNGMUYxRjEiIGhlaWdodD0iMTAiIHN0eWxlPSJzdHJva2U6IzE4MTgxODtzdHJva2Utd2lkdGg6MC41OyIgd2lkdGg9IjE1IiB4PSIzMjYiIHk9IjM4NC45ODQ0Ii8+PHJlY3QgZmlsbD0iI0YxRjFGMSIgaGVpZ2h0PSIyIiBzdHlsZT0ic3Ryb2tlOiMxODE4MTg7c3Ryb2tlLXdpZHRoOjAuNTsiIHdpZHRoPSI0IiB4PSIzMjQiIHk9IjM4Ni45ODQ0Ii8+PHJlY3QgZmlsbD0iI0YxRjFGMSIgaGVpZ2h0PSIyIiBzdHlsZT0ic3Ryb2tlOiMxODE4MTg7c3Ryb2tlLXdpZHRoOjAuNTsiIHdpZHRoPSI0IiB4PSIzMjQiIHk9IjM5MC45ODQ0Ii8+PHRleHQgZmlsbD0iIzAwMDAwMCIgZm9udC1mYW1pbHk9InNhbnMtc2VyaWYiIGZvbnQtc2l6ZT0iMTQiIGxlbmd0aEFkanVzdD0ic3BhY2luZyIgdGV4dExlbmd0aD0iNTAiIHg9IjI3MSIgeT0iNDEzLjIxODgiPlN3aXRjaDI8L3RleHQ+PC9nPjwhLS1lbnRpdHkgU2VydmVyLS0+PGcgaWQ9ImVsZW1fU2VydmVyIj48cmVjdCBmaWxsPSIjRjFGMUYxIiBoZWlnaHQ9IjQ0Ljk4NDQiIHJ4PSIyLjUiIHJ5PSIyLjUiIHN0eWxlPSJzdHJva2U6IzE4MTgxODtzdHJva2Utd2lkdGg6MC41OyIgd2lkdGg9IjgyIiB4PSIxNTAiIHk9IjI3NC45ODQ0Ii8+PHJlY3QgZmlsbD0iI0YxRjFGMSIgaGVpZ2h0PSIxMCIgc3R5bGU9InN0cm9rZTojMTgxODE4O3N0cm9rZS13aWR0aDowLjU7IiB3aWR0aD0iMTUiIHg9IjIxMiIgeT0iMjc5Ljk4NDQiLz48cmVjdCBmaWxsPSIjRjFGMUYxIiBoZWlnaHQ9IjIiIHN0eWxlPSJzdHJva2U6IzE4MTgxODtzdHJva2Utd2lkdGg6MC41OyIgd2lkdGg9IjQiIHg9IjIxMCIgeT0iMjgxLjk4NDQiLz48cmVjdCBmaWxsPSIjRjFGMUYxIiBoZWlnaHQ9IjIiIHN0eWxlPSJzdHJva2U6IzE4MTgxODtzdHJva2Utd2lkdGg6MC41OyIgd2lkdGg9IjQiIHg9IjIxMCIgeT0iMjg1Ljk4NDQiLz48dGV4dCBmaWxsPSIjMDAwMDAwIiBmb250LWZhbWlseT0ic2Fucy1zZXJpZiIgZm9udC1zaXplPSIxNCIgbGVuZ3RoQWRqdXN0PSJzcGFjaW5nIiB0ZXh0TGVuZ3RoPSI0MiIgeD0iMTY1IiB5PSIzMDguMjE4OCI+U2VydmVyPC90ZXh0PjwvZz48IS0tZW50aXR5IFBDMjUtLT48ZyBpZD0iZWxlbV9QQzI1Ij48cmVjdCBmaWxsPSIjRjFGMUYxIiBoZWlnaHQ9IjQ0Ljk4NDQiIHJ4PSIyLjUiIHJ5PSIyLjUiIHN0eWxlPSJzdHJva2U6IzE4MTgxODtzdHJva2Utd2lkdGg6MC41OyIgd2lkdGg9IjY4IiB4PSIxNTA4IiB5PSIyNzQuOTg0NCIvPjxyZWN0IGZpbGw9IiNGMUYxRjEiIGhlaWdodD0iMTAiIHN0eWxlPSJzdHJva2U6IzE4MTgxODtzdHJva2Utd2lkdGg6MC41OyIgd2lkdGg9IjE1IiB4PSIxNTU2IiB5PSIyNzkuOTg0NCIvPjxyZWN0IGZpbGw9IiNGMUYxRjEiIGhlaWdodD0iMiIgc3R5bGU9InN0cm9rZTojMTgxODE4O3N0cm9rZS13aWR0aDowLjU7IiB3aWR0aD0iNCIgeD0iMTU1NCIgeT0iMjgxLjk4NDQiLz48cmVjdCBmaWxsPSIjRjFGMUYxIiBoZWlnaHQ9IjIiIHN0eWxlPSJzdHJva2U6IzE4MTgxODtzdHJva2Utd2lkdGg6MC41OyIgd2lkdGg9IjQiIHg9IjE1NTQiIHk9IjI4NS45ODQ0Ii8+PHRleHQgZmlsbD0iIzAwMDAwMCIgZm9udC1mYW1pbHk9InNhbnMtc2VyaWYiIGZvbnQtc2l6ZT0iMTQiIGxlbmd0aEFkanVzdD0ic3BhY2luZyIgdGV4dExlbmd0aD0iMjgiIHg9IjE1MjMiIHk9IjMwOC4yMTg4Ij5QQzI1PC90ZXh0PjwvZz48IS0tZW50aXR5IExlZ2FsICg1IFBDcywgMSBQcmludGVyLCAxIFN3aXRjaCktLT48ZyBpZD0iZWxlbV9MZWdhbCAoNSBQQ3MsIDEgUHJpbnRlciwgMSBTd2l0Y2gpIj48cGF0aCBkPSJNMTE5MiwyNzguNDg0NCBMMTQ0NiwyNzguNDg0NCBBMy43NSwzLjc1IDAgMCAxIDE0NDguNSwyODAuOTg0NCBMMTQ1NS41LDI5OS40Njg4IEwxNDcwLDI5OS40Njg4IEEyLjUsMi41IDAgMCAxIDE0NzIuNSwzMDEuOTY4OCBMMTQ3Mi41LDMxMy45Njg4IEEyLjUsMi41IDAgMCAxIDE0NzAsMzE2LjQ2ODggTDExOTIsMzE2LjQ2ODggQTIuNSwyLjUgMCAwIDEgMTE4OS41LDMxMy45Njg4IEwxMTg5LjUsMjgwLjk4NDQgQTIuNSwyLjUgMCAwIDEgMTE5MiwyNzguNDg0NCAiIGZpbGw9IiNGMUYxRjEiIHN0eWxlPSJzdHJva2U6IzE4MTgxODtzdHJva2Utd2lkdGg6MC41OyIvPjxsaW5lIHN0eWxlPSJzdHJva2U6IzE4MTgxODtzdHJva2Utd2lkdGg6MC41OyIgeDE9IjExODkuNSIgeDI9IjE0NTUuNSIgeTE9IjI5OS40Njg4IiB5Mj0iMjk5LjQ2ODgiLz48dGV4dCBmaWxsPSIjMDAwMDAwIiBmb250LWZhbWlseT0ic2Fucy1zZXJpZiIgZm9udC1zaXplPSIxNCIgZm9udC13ZWlnaHQ9ImJvbGQiIGxlbmd0aEFkanVzdD0ic3BhY2luZyIgdGV4dExlbmd0aD0iMjQxIiB4PSIxMTk5LjUiIHk9IjI5NC43MTg4Ij5MZWdhbCAoNSBQQ3MsIDEgUHJpbnRlciwgMSBTd2l0Y2gpPC90ZXh0PjwvZz48IS0tZW50aXR5IEhSICgxMCBQQ3MsIDEgUHJpbnRlciwgMSBTd2l0Y2gpLS0+PGcgaWQ9ImVsZW1fSFIgKDEwIFBDcywgMSBQcmludGVyLCAxIFN3aXRjaCkiPjxwYXRoIGQ9Ik04ODgsMjc4LjQ4NDQgTDExMjgsMjc4LjQ4NDQgQTMuNzUsMy43NSAwIDAgMSAxMTMwLjUsMjgwLjk4NDQgTDExMzcuNSwyOTkuNDY4OCBMMTE1MiwyOTkuNDY4OCBBMi41LDIuNSAwIDAgMSAxMTU0LjUsMzAxLjk2ODggTDExNTQuNSwzMTMuOTY4OCBBMi41LDIuNSAwIDAgMSAxMTUyLDMxNi40Njg4IEw4ODgsMzE2LjQ2ODggQTIuNSwyLjUgMCAwIDEgODg1LjUsMzEzLjk2ODggTDg4NS41LDI4MC45ODQ0IEEyLjUsMi41IDAgMCAxIDg4OCwyNzguNDg0NCAiIGZpbGw9IiNGMUYxRjEiIHN0eWxlPSJzdHJva2U6IzE4MTgxODtzdHJva2Utd2lkdGg6MC41OyIvPjxsaW5lIHN0eWxlPSJzdHJva2U6IzE4MTgxODtzdHJva2Utd2lkdGg6MC41OyIgeDE9Ijg4NS41IiB4Mj0iMTEzNy41IiB5MT0iMjk5LjQ2ODgiIHkyPSIyOTkuNDY4OCIvPjx0ZXh0IGZpbGw9IiMwMDAwMDAiIGZvbnQtZmFtaWx5PSJzYW5zLXNlcmlmIiBmb250LXNpemU9IjE0IiBmb250LXdlaWdodD0iYm9sZCIgbGVuZ3RoQWRqdXN0PSJzcGFjaW5nIiB0ZXh0TGVuZ3RoPSIyMjciIHg9Ijg5NS41IiB5PSIyOTQuNzE4OCI+SFIgKDEwIFBDcywgMSBQcmludGVyLCAxIFN3aXRjaCk8L3RleHQ+PC9nPjwhLS1lbnRpdHkgUEM1NS0tPjxnIGlkPSJlbGVtX1BDNTUiPjxyZWN0IGZpbGw9IiNGMUYxRjEiIGhlaWdodD0iNDQuOTg0NCIgcng9IjIuNSIgcnk9IjIuNSIgc3R5bGU9InN0cm9rZTojMTgxODE4O3N0cm9rZS13aWR0aDowLjU7IiB3aWR0aD0iNjgiIHg9IjI1MTYiIHk9IjExNS45ODQ0Ii8+PHJlY3QgZmlsbD0iI0YxRjFGMSIgaGVpZ2h0PSIxMCIgc3R5bGU9InN0cm9rZTojMTgxODE4O3N0cm9rZS13aWR0aDowLjU7IiB3aWR0aD0iMTUiIHg9IjI1NjQiIHk9IjEyMC45ODQ0Ii8+PHJlY3QgZmlsbD0iI0YxRjFGMSIgaGVpZ2h0PSIyIiBzdHlsZT0ic3Ryb2tlOiMxODE4MTg7c3Ryb2tlLXdpZHRoOjAuNTsiIHdpZHRoPSI0IiB4PSIyNTYyIiB5PSIxMjIuOTg0NCIvPjxyZWN0IGZpbGw9IiNGMUYxRjEiIGhlaWdodD0iMiIgc3R5bGU9InN0cm9rZTojMTgxODE4O3N0cm9rZS13aWR0aDowLjU7IiB3aWR0aD0iNCIgeD0iMjU2MiIgeT0iMTI2Ljk4NDQiLz48dGV4dCBmaWxsPSIjMDAwMDAwIiBmb250LWZhbWlseT0ic2Fucy1zZXJpZiIgZm9udC1zaXplPSIxNCIgbGVuZ3RoQWRqdXN0PSJzcGFjaW5nIiB0ZXh0TGVuZ3RoPSIyOCIgeD0iMjUzMSIgeT0iMTQ5LjIxODgiPlBDNTU8L3RleHQ+PC9nPjwhLS1lbnRpdHkgU3dpdGNoMy0tPjxnIGlkPSJlbGVtX1N3aXRjaDMiPjxyZWN0IGZpbGw9IiNGMUYxRjEiIGhlaWdodD0iNDQuOTg0NCIgcng9IjIuNSIgcnk9IjIuNSIgc3R5bGU9InN0cm9rZTojMTgxODE4O3N0cm9rZS13aWR0aDowLjU7IiB3aWR0aD0iOTAiIHg9IjI1MDUiIHk9IjI3NC45ODQ0Ii8+PHJlY3QgZmlsbD0iI0YxRjFGMSIgaGVpZ2h0PSIxMCIgc3R5bGU9InN0cm9rZTojMTgxODE4O3N0cm9rZS13aWR0aDowLjU7IiB3aWR0aD0iMTUiIHg9IjI1NzUiIHk9IjI3OS45ODQ0Ii8+PHJlY3QgZmlsbD0iI0YxRjFGMSIgaGVpZ2h0PSIyIiBzdHlsZT0ic3Ryb2tlOiMxODE4MTg7c3Ryb2tlLXdpZHRoOjAuNTsiIHdpZHRoPSI0IiB4PSIyNTczIiB5PSIyODEuOTg0NCIvPjxyZWN0IGZpbGw9IiNGMUYxRjEiIGhlaWdodD0iMiIgc3R5bGU9InN0cm9rZTojMTgxODE4O3N0cm9rZS13aWR0aDowLjU7IiB3aWR0aD0iNCIgeD0iMjU3MyIgeT0iMjg1Ljk4NDQiLz48dGV4dCBmaWxsPSIjMDAwMDAwIiBmb250LWZhbWlseT0ic2Fucy1zZXJpZiIgZm9udC1zaXplPSIxNCIgbGVuZ3RoQWRqdXN0PSJzcGFjaW5nIiB0ZXh0TGVuZ3RoPSI1MCIgeD0iMjUyMCIgeT0iMzA4LjIxODgiPlN3aXRjaDM8L3RleHQ+PC9nPjwhLS1lbnRpdHkgTmV0d29yayBUZWFtICg1IFBDcywgMSBTd2l0Y2gpLS0+PGcgaWQ9ImVsZW1fTmV0d29yayBUZWFtICg1IFBDcywgMSBTd2l0Y2gpIj48cGF0aCBkPSJNMTg0OCwxMTkuNDg0NCBMMjA3NiwxMTkuNDg0NCBBMy43NSwzLjc1IDAgMCAxIDIwNzguNSwxMjEuOTg0NCBMMjA4NS41LDE0MC40Njg4IEwyMTAwLDE0MC40Njg4IEEyLjUsMi41IDAgMCAxIDIxMDIuNSwxNDIuOTY4OCBMMjEwMi41LDE1NC45Njg4IEEyLjUsMi41IDAgMCAxIDIxMDAsMTU3LjQ2ODggTDE4NDgsMTU3LjQ2ODggQTIuNSwyLjUgMCAwIDEgMTg0NS41LDE1NC45Njg4IEwxODQ1LjUsMTIxLjk4NDQgQTIuNSwyLjUgMCAwIDEgMTg0OCwxMTkuNDg0NCAiIGZpbGw9IiNGMUYxRjEiIHN0eWxlPSJzdHJva2U6IzE4MTgxODtzdHJva2Utd2lkdGg6MC41OyIvPjxsaW5lIHN0eWxlPSJzdHJva2U6IzE4MTgxODtzdHJva2Utd2lkdGg6MC41OyIgeDE9IjE4NDUuNSIgeDI9IjIwODUuNSIgeTE9IjE0MC40Njg4IiB5Mj0iMTQwLjQ2ODgiLz48dGV4dCBmaWxsPSIjMDAwMDAwIiBmb250LWZhbWlseT0ic2Fucy1zZXJpZiIgZm9udC1zaXplPSIxNCIgZm9udC13ZWlnaHQ9ImJvbGQiIGxlbmd0aEFkanVzdD0ic3BhY2luZyIgdGV4dExlbmd0aD0iMjE1IiB4PSIxODU1LjUiIHk9IjEzNS43MTg4Ij5OZXR3b3JrIFRlYW0gKDUgUENzLCAxIFN3aXRjaCk8L3RleHQ+PC9nPjwhLS1lbnRpdHkgU2VydmVyMS0tPjxnIGlkPSJlbGVtX1NlcnZlcjEiPjxyZWN0IGZpbGw9IiNGMUYxRjEiIGhlaWdodD0iNDQuOTg0NCIgcng9IjIuNSIgcnk9IjIuNSIgc3R5bGU9InN0cm9rZTojMTgxODE4O3N0cm9rZS13aWR0aDowLjU7IiB3aWR0aD0iODkiIHg9IjIyNjEuNSIgeT0iMTE1Ljk4NDQiLz48cmVjdCBmaWxsPSIjRjFGMUYxIiBoZWlnaHQ9IjEwIiBzdHlsZT0ic3Ryb2tlOiMxODE4MTg7c3Ryb2tlLXdpZHRoOjAuNTsiIHdpZHRoPSIxNSIgeD0iMjMzMC41IiB5PSIxMjAuOTg0NCIvPjxyZWN0IGZpbGw9IiNGMUYxRjEiIGhlaWdodD0iMiIgc3R5bGU9InN0cm9rZTojMTgxODE4O3N0cm9rZS13aWR0aDowLjU7IiB3aWR0aD0iNCIgeD0iMjMyOC41IiB5PSIxMjIuOTg0NCIvPjxyZWN0IGZpbGw9IiNGMUYxRjEiIGhlaWdodD0iMiIgc3R5bGU9InN0cm9rZTojMTgxODE4O3N0cm9rZS13aWR0aDowLjU7IiB3aWR0aD0iNCIgeD0iMjMyOC41IiB5PSIxMjYuOTg0NCIvPjx0ZXh0IGZpbGw9IiMwMDAwMDAiIGZvbnQtZmFtaWx5PSJzYW5zLXNlcmlmIiBmb250LXNpemU9IjE0IiBsZW5ndGhBZGp1c3Q9InNwYWNpbmciIHRleHRMZW5ndGg9IjQ5IiB4PSIyMjc2LjUiIHk9IjE0OS4yMTg4Ij5TZXJ2ZXIxPC90ZXh0PjwvZz48IS0tZW50aXR5IFNlcnZlcjQtLT48ZyBpZD0iZWxlbV9TZXJ2ZXI0Ij48cmVjdCBmaWxsPSIjRjFGMUYxIiBoZWlnaHQ9IjQ0Ljk4NDQiIHJ4PSIyLjUiIHJ5PSIyLjUiIHN0eWxlPSJzdHJva2U6IzE4MTgxODtzdHJva2Utd2lkdGg6MC41OyIgd2lkdGg9Ijg5IiB4PSIyMTM3LjUiIHk9IjExNS45ODQ0Ii8+PHJlY3QgZmlsbD0iI0YxRjFGMSIgaGVpZ2h0PSIxMCIgc3R5bGU9InN0cm9rZTojMTgxODE4O3N0cm9rZS13aWR0aDowLjU7IiB3aWR0aD0iMTUiIHg9IjIyMDYuNSIgeT0iMTIwLjk4NDQiLz48cmVjdCBmaWxsPSIjRjFGMUYxIiBoZWlnaHQ9IjIiIHN0eWxlPSJzdHJva2U6IzE4MTgxODtzdHJva2Utd2lkdGg6MC41OyIgd2lkdGg9IjQiIHg9IjIyMDQuNSIgeT0iMTIyLjk4NDQiLz48cmVjdCBmaWxsPSIjRjFGMUYxIiBoZWlnaHQ9IjIiIHN0eWxlPSJzdHJva2U6IzE4MTgxODtzdHJva2Utd2lkdGg6MC41OyIgd2lkdGg9IjQiIHg9IjIyMDQuNSIgeT0iMTI2Ljk4NDQiLz48dGV4dCBmaWxsPSIjMDAwMDAwIiBmb250LWZhbWlseT0ic2Fucy1zZXJpZiIgZm9udC1zaXplPSIxNCIgbGVuZ3RoQWRqdXN0PSJzcGFjaW5nIiB0ZXh0TGVuZ3RoPSI0OSIgeD0iMjE1Mi41IiB5PSIxNDkuMjE4OCI+U2VydmVyNDwvdGV4dD48L2c+PCEtLWxpbmsgUEMxIHRvIFN3aXRjaC0tPjxnIGlkPSJsaW5rX1BDMV9Td2l0Y2giPjxwYXRoIGQ9Ik03MzYuNjYsMTYwLjk4NDQgQzcxOS43MiwxOTAuODg0NCA3MTMuNTY3LDIzOS4xODY1IDcyNi4yMzcsMjY5LjIwNjUgIiBmaWxsPSJub25lIiBpZD0iUEMxLXRvLVN3aXRjaCIgc3R5bGU9InN0cm9rZTojMTgxODE4O3N0cm9rZS13aWR0aDoxLjA7Ii8+PHBvbHlnb24gZmlsbD0iIzE4MTgxOCIgcG9pbnRzPSI3MjguNTcsMjc0LjczNDQsNzI4Ljc1NTcsMjY0Ljg4NzMsNzI2LjYyNTgsMjcwLjEyNzgsNzIxLjM4NTIsMjY3Ljk5OCw3MjguNTcsMjc0LjczNDQiIHN0eWxlPSJzdHJva2U6IzE4MTgxODtzdHJva2Utd2lkdGg6MS4wOyIvPjwvZz48IS0tbGluayBQQzEgdG8gU3dpdGNoLS0+PGcgaWQ9ImxpbmtfUEMxX1N3aXRjaCI+PHBhdGggZD0iTTc1NS40LDE2MC45ODQ0IEM3NDguNDQsMTkwLjg4NDQgNzQ0LjExNjYsMjM4LjczOSA3NDYuODQ2NiwyNjguNzU5ICIgZmlsbD0ibm9uZSIgaWQ9IlBDMS10by1Td2l0Y2gtMSIgc3R5bGU9InN0cm9rZTojMTgxODE4O3N0cm9rZS13aWR0aDoxLjA7Ii8+PHBvbHlnb24gZmlsbD0iIzE4MTgxOCIgcG9pbnRzPSI3NDcuMzksMjc0LjczNDQsNzUwLjU1ODUsMjY1LjQwOTEsNzQ2LjkzNzIsMjY5Ljc1NDksNzQyLjU5MTMsMjY2LjEzMzYsNzQ3LjM5LDI3NC43MzQ0IiBzdHlsZT0ic3Ryb2tlOiMxODE4MTg7c3Ryb2tlLXdpZHRoOjEuMDsiLz48L2c+PCEtLWxpbmsgUEMxIHRvIFN3aXRjaC0tPjxnIGlkPSJsaW5rX1BDMV9Td2l0Y2giPjxwYXRoIGQ9Ik03NzQuMTMsMTYwLjk4NDQgQzc3Ny4xNywxOTAuODg0NCA3NzQuODIzLDIzOC44ODA3IDc2Ny42MDMsMjY4LjkwMDcgIiBmaWxsPSJub25lIiBpZD0iUEMxLXRvLVN3aXRjaC0yIiBzdHlsZT0ic3Ryb2tlOiMxODE4MTg7c3Ryb2tlLXdpZHRoOjEuMDsiLz48cG9seWdvbiBmaWxsPSIjMTgxODE4IiBwb2ludHM9Ijc2Ni4yLDI3NC43MzQ0LDc3Mi4xOTM2LDI2Ni45MTkyLDc2Ny4zNjkyLDI2OS44NzMsNzY0LjQxNTQsMjY1LjA0ODUsNzY2LjIsMjc0LjczNDQiIHN0eWxlPSJzdHJva2U6IzE4MTgxODtzdHJva2Utd2lkdGg6MS4wOyIvPjwvZz48IS0tbGluayBQQzEgdG8gU3dpdGNoLS0+PGcgaWQ9ImxpbmtfUEMxX1N3aXRjaCI+PHBhdGggZD0iTTc5Mi44NiwxNjAuOTg0NCBDODA1LjksMTkwLjg4NDQgODA1LjE0NzYsMjM5LjUwNTMgNzg3Ljk4NzYsMjY5LjUyNTMgIiBmaWxsPSJub25lIiBpZD0iUEMxLXRvLVN3aXRjaC0zIiBzdHlsZT0ic3Ryb2tlOiMxODE4MTg7c3Ryb2tlLXdpZHRoOjEuMDsiLz48cG9seWdvbiBmaWxsPSIjMTgxODE4IiBwb2ludHM9Ijc4NS4wMSwyNzQuNzM0NCw3OTIuOTQ5MSwyNjguOTA1OSw3ODcuNDkxMywyNzAuMzkzNSw3ODYuMDAzNywyNjQuOTM1OCw3ODUuMDEsMjc0LjczNDQiIHN0eWxlPSJzdHJva2U6IzE4MTgxODtzdHJva2Utd2lkdGg6MS4wOyIvPjwvZz48IS0tbGluayBQQzIgdG8gU3dpdGNoLS0+PGcgaWQ9ImxpbmtfUEMyX1N3aXRjaCI+PHBhdGggZD0iTTY4MS42NCwxNjAuOTg0NCBDNjk3LjgzLDE5MC44ODQ0IDcyNC4xMTI0LDIzOS40Mzg2IDc0MC4zNzI0LDI2OS40NTg2ICIgZmlsbD0ibm9uZSIgaWQ9IlBDMi10by1Td2l0Y2giIHN0eWxlPSJzdHJva2U6IzE4MTgxODtzdHJva2Utd2lkdGg6MS4wOyIvPjxwb2x5Z29uIGZpbGw9IiMxODE4MTgiIHBvaW50cz0iNzQzLjIzLDI3NC43MzQ0LDc0Mi40NjA4LDI2NC45MTU2LDc0MC44NDg3LDI3MC4zMzc5LDczNS40MjY0LDI2OC43MjU3LDc0My4yMywyNzQuNzM0NCIgc3R5bGU9InN0cm9rZTojMTgxODE4O3N0cm9rZS13aWR0aDoxLjA7Ii8+PC9nPjwhLS1saW5rIFByaW50ZXIgdG8gU3dpdGNoLS0+PGcgaWQ9ImxpbmtfUHJpbnRlcl9Td2l0Y2giPjxwYXRoIGQ9Ik01NjcuOTcsMTYwLjk4NDQgQzU5NS45NSwxOTEuODA0NCA2NjEuMDExLDI0NC45MDIxIDcwOC40MDEsMjc0LjI5MjEgIiBmaWxsPSJub25lIiBpZD0iUHJpbnRlci10by1Td2l0Y2giIHN0eWxlPSJzdHJva2U6IzE4MTgxODtzdHJva2Utd2lkdGg6MS4wOyIvPjxwb2x5Z29uIGZpbGw9IiMxODE4MTgiIHBvaW50cz0iNzEzLjUsMjc3LjQ1NDQsNzA3Ljk1OTcsMjY5LjMxMTYsNzA5LjI1MDgsMjc0LjgxOTEsNzAzLjc0MzMsMjc2LjExMDMsNzEzLjUsMjc3LjQ1NDQiIHN0eWxlPSJzdHJva2U6IzE4MTgxODtzdHJva2Utd2lkdGg6MS4wOyIvPjwvZz48IS0tbGluayBQcmludGVyIHRvIFN3aXRjaC0tPjxnIGlkPSJsaW5rX1ByaW50ZXJfU3dpdGNoIj48cGF0aCBkPSJNNTg2LjcxLDE2MC45ODQ0IEM2MjMuODQsMTkwLjg4NDQgNjg2LjAyNjMsMjQwLjk1MTkgNzIzLjMxNjMsMjcwLjk3MTkgIiBmaWxsPSJub25lIiBpZD0iUHJpbnRlci10by1Td2l0Y2gtMSIgc3R5bGU9InN0cm9rZTojMTgxODE4O3N0cm9rZS13aWR0aDoxLjA7Ii8+PHBvbHlnb24gZmlsbD0iIzE4MTgxOCIgcG9pbnRzPSI3MjcuOTksMjc0LjczNDQsNzIzLjQ4NzgsMjY1Ljk3NDgsNzI0LjA5NTMsMjcxLjU5ODksNzE4LjQ3MTEsMjcyLjIwNjQsNzI3Ljk5LDI3NC43MzQ0IiBzdHlsZT0ic3Ryb2tlOiMxODE4MTg7c3Ryb2tlLXdpZHRoOjEuMDsiLz48L2c+PCEtLWxpbmsgUHJpbnRlciB0byBTd2l0Y2gtLT48ZyBpZD0ibGlua19QcmludGVyX1N3aXRjaCI+PHBhdGggZD0iTTYwNC42NiwxNjAuNDk0NCBDNjUxLjg5LDE5MC4zMjQ0IDcxNS40MjI5LDI0MC4yMzU3IDc0Mi44NjI5LDI3MC40MDU3ICIgZmlsbD0ibm9uZSIgaWQ9IlByaW50ZXItdG8tU3dpdGNoLTIiIHN0eWxlPSJzdHJva2U6IzE4MTgxODtzdHJva2Utd2lkdGg6MS4wOyIvPjxwb2x5Z29uIGZpbGw9IiMxODE4MTgiIHBvaW50cz0iNzQ2LjksMjc0Ljg0NDQsNzQzLjgwMzUsMjY1LjQ5NDksNzQzLjUzNTgsMjcxLjE0NTUsNzM3Ljg4NTMsMjcwLjg3NzcsNzQ2LjksMjc0Ljg0NDQiIHN0eWxlPSJzdHJva2U6IzE4MTgxODtzdHJva2Utd2lkdGg6MS4wOyIvPjwvZz48IS0tbGluayBQQzEgdG8gU3dpdGNoMS0tPjxnIGlkPSJsaW5rX1BDMV9Td2l0Y2gxIj48cGF0aCBkPSJNNzM1LjM4LDE0OC40OTQ0IEM3MTYuNjIsMTU5LjQyNDQgNzAxLjIxLDE3Ny4zMzQ0IDY4MywxODQuOTg0NCBDNjM4LjMxLDIwMy43NTQ0IDUwOC40NCwxNzEuNDY0NCA0NjUsMTkyLjk4NDQgQzQyOS43OSwyMTAuNDI0NCA0MDQuODI2MywyNDMuOTk4OCA0MDEuNDU2MywyNjguODQ4OCAiIGZpbGw9Im5vbmUiIGlkPSJQQzEtdG8tU3dpdGNoMSIgc3R5bGU9InN0cm9rZTojMTgxODE4O3N0cm9rZS13aWR0aDoxLjA7Ii8+PHBvbHlnb24gZmlsbD0iIzE4MTgxOCIgcG9pbnRzPSI0MDAuNjUsMjc0Ljc5NDQsNDA1LjgyMzIsMjY2LjQxMzUsNDAxLjMyMTksMjY5LjgzOTcsMzk3Ljg5NTcsMjY1LjMzODUsNDAwLjY1LDI3NC43OTQ0IiBzdHlsZT0ic3Ryb2tlOiMxODE4MTg7c3Ryb2tlLXdpZHRoOjEuMDsiLz48L2c+PCEtLWxpbmsgUEMxIHRvIFN3aXRjaDEtLT48ZyBpZD0ibGlua19QQzFfU3dpdGNoMSI+PHBhdGggZD0iTTc0OS4yMiwxNjEuMjc0NCBDNzQwLjkxLDE3MC4zMzQ0IDczMC4wNywxNzkuOTE0NCA3MTgsMTg0Ljk4NDQgQzY3My4zMSwyMDMuNzU0NCA1NDMuNDQsMTcxLjQ2NDQgNTAwLDE5Mi45ODQ0IEM0NjQuNzksMjEwLjQyNDQgNDQxLjg3NDMsMjQ0LjY2NjggNDI4LjQzNDMsMjY5LjUxNjggIiBmaWxsPSJub25lIiBpZD0iUEMxLXRvLVN3aXRjaDEtMSIgc3R5bGU9InN0cm9rZTojMTgxODE4O3N0cm9rZS13aWR0aDoxLjA7Ii8+PHBvbHlnb24gZmlsbD0iIzE4MTgxOCIgcG9pbnRzPSI0MjUuNTgsMjc0Ljc5NDQsNDMzLjM3OTksMjY4Ljc4MDksNDI3Ljk1ODYsMjcwLjM5NjQsNDI2LjM0MzEsMjY0Ljk3NTEsNDI1LjU4LDI3NC43OTQ0IiBzdHlsZT0ic3Ryb2tlOiMxODE4MTg7c3Ryb2tlLXdpZHRoOjEuMDsiLz48L2c+PCEtLWxpbmsgUEMxIHRvIFN3aXRjaDEtLT48ZyBpZD0ibGlua19QQzFfU3dpdGNoMSI+PHBhdGggZD0iTTc4MS4xMywxNjEuMjc0NCBDNzc1LjkxLDE3MC4zMzQ0IDc2NS4wNywxNzkuOTE0NCA3NTMsMTg0Ljk4NDQgQzcwOC4zMSwyMDMuNzU0NCA1NzguNDQsMTcxLjQ2NDQgNTM1LDE5Mi45ODQ0IEM0OTkuNzksMjEwLjQyNDQgNDc4LjE0MzUsMjQ1LjU4NTggNDU0LjYzMzUsMjcwLjQzNTggIiBmaWxsPSJub25lIiBpZD0iUEMxLXRvLVN3aXRjaDEtMiIgc3R5bGU9InN0cm9rZTojMTgxODE4O3N0cm9rZS13aWR0aDoxLjA7Ii8+PHBvbHlnb24gZmlsbD0iIzE4MTgxOCIgcG9pbnRzPSI0NTAuNTEsMjc0Ljc5NDQsNDU5LjYwMDksMjcxLjAwNTYsNDUzLjk0NjIsMjcxLjE2MjMsNDUzLjc4OTYsMjY1LjUwNzYsNDUwLjUxLDI3NC43OTQ0IiBzdHlsZT0ic3Ryb2tlOiMxODE4MTg7c3Ryb2tlLXdpZHRoOjEuMDsiLz48L2c+PCEtLWxpbmsgUEMyIHRvIFN3aXRjaDEtLT48ZyBpZD0ibGlua19QQzJfU3dpdGNoMSI+PHBhdGggZD0iTTY1My4xNSwxNjEuMTE0NCBDNjQ0LjgyLDE3MC4xNDQ0IDYzMy45OSwxNzkuNzQ0NCA2MjIsMTg0Ljk4NDQgQzU5Ny4xLDE5NS44NjQ0IDUyNC4xNywxODAuNTc0NCA1MDAsMTkyLjk4NDQgQzQ2NS4wNCwyMTAuOTM0NCA0NDIuMDg1MiwyNDUuMDMzNiA0MjguNTU1MiwyNjkuNzAzNiAiIGZpbGw9Im5vbmUiIGlkPSJQQzItdG8tU3dpdGNoMSIgc3R5bGU9InN0cm9rZTojMTgxODE4O3N0cm9rZS13aWR0aDoxLjA7Ii8+PHBvbHlnb24gZmlsbD0iIzE4MTgxOCIgcG9pbnRzPSI0MjUuNjcsMjc0Ljk2NDQsNDMzLjUwNSwyNjguOTk2Nyw0MjguMDc0MywyNzAuNTgwNCw0MjYuNDkwNiwyNjUuMTQ5OCw0MjUuNjcsMjc0Ljk2NDQiIHN0eWxlPSJzdHJva2U6IzE4MTgxODtzdHJva2Utd2lkdGg6MS4wOyIvPjwvZz48IS0tbGluayBQQzIwIHRvIFN3aXRjaDItLT48ZyBpZD0ibGlua19QQzIwX1N3aXRjaDIiPjxwYXRoIGQ9Ik0zMDEsMzIwLjMyNDQgQzMwMSwzMzcuODA0NCAzMDEsMzU2LjIwNDQgMzAxLDM3My42NzQ0ICIgZmlsbD0ibm9uZSIgaWQ9IlBDMjAtdG8tU3dpdGNoMiIgc3R5bGU9InN0cm9rZTojMTgxODE4O3N0cm9rZS13aWR0aDoxLjA7Ii8+PHBvbHlnb24gZmlsbD0iIzE4MTgxOCIgcG9pbnRzPSIzMDEsMzc5LjY3NDQsMzA1LDM3MC42NzQ0LDMwMSwzNzQuNjc0NCwyOTcsMzcwLjY3NDQsMzAxLDM3OS42NzQ0IiBzdHlsZT0ic3Ryb2tlOiMxODE4MTg7c3Ryb2tlLXdpZHRoOjEuMDsiLz48L2c+PCEtLWxpbmsgUHJpbnRlciB0byBTd2l0Y2gxLS0+PGcgaWQ9ImxpbmtfUHJpbnRlcl9Td2l0Y2gxIj48cGF0aCBkPSJNNTE1LjIxLDE1Mi43MDQ0IEM0OTYuNCwxNjMuMTY0NCA0NzkuMDIsMTc4LjM4NDQgNDY1LDE5Mi45ODQ0IEM0MzkuMzksMjE5LjY1NDQgNDE0LjkxOTYsMjQ3LjQ5NzUgNDA2LjgyOTYsMjY5LjAzNzUgIiBmaWxsPSJub25lIiBpZD0iUHJpbnRlci10by1Td2l0Y2gxIiBzdHlsZT0ic3Ryb2tlOiMxODE4MTg7c3Ryb2tlLXdpZHRoOjEuMDsiLz48cG9seWdvbiBmaWxsPSIjMTgxODE4IiBwb2ludHM9IjQwNC43MiwyNzQuNjU0NCw0MTEuNjI5LDI2Ny42MzU0LDQwNi40NzgsMjY5Ljk3MzYsNDA0LjEzOTgsMjY0LjgyMjYsNDA0LjcyLDI3NC42NTQ0IiBzdHlsZT0ic3Ryb2tlOiMxODE4MTg7c3Ryb2tlLXdpZHRoOjEuMDsiLz48L2c+PCEtLWxpbmsgUHJpbnRlciB0byBTd2l0Y2gxLS0+PGcgaWQ9ImxpbmtfUHJpbnRlcl9Td2l0Y2gxIj48cGF0aCBkPSJNNTM0LjA5LDE2MS4wMzQ0IEM1MjMuMjEsMTcwLjQ3NDQgNTEwLjYzLDE4MS45MTQ0IDUwMCwxOTIuOTg0NCBDNDc0LjM5LDIxOS42NTQ0IDQ1MS40NTU5LDI0OC4zNDkxIDQzNC45NzU5LDI2OS44ODkxICIgZmlsbD0ibm9uZSIgaWQ9IlByaW50ZXItdG8tU3dpdGNoMS0xIiBzdHlsZT0ic3Ryb2tlOiMxODE4MTg7c3Ryb2tlLXdpZHRoOjEuMDsiLz48cG9seWdvbiBmaWxsPSIjMTgxODE4IiBwb2ludHM9IjQzMS4zMywyNzQuNjU0NCw0MzkuOTc1NiwyNjkuOTM3LDQzNC4zNjgyLDI3MC42ODMzLDQzMy42MjE5LDI2NS4wNzU5LDQzMS4zMywyNzQuNjU0NCIgc3R5bGU9InN0cm9rZTojMTgxODE4O3N0cm9rZS13aWR0aDoxLjA7Ii8+PC9nPjwhLS1saW5rIFByaW50ZXIgdG8gU3dpdGNoMS0tPjxnIGlkPSJsaW5rX1ByaW50ZXJfU3dpdGNoMSI+PHBhdGggZD0iTTU2Ni4zMSwxNjEuMDM0NCBDNTU4LjIxLDE3MC40NzQ0IDU0NS42MywxODEuOTE0NCA1MzUsMTkyLjk4NDQgQzUwOS4zOSwyMTkuNjU0NCA0ODcuMzQ0NiwyNDkuMTg1MyA0NjIuNDg0NiwyNzAuNzI1MyAiIGZpbGw9Im5vbmUiIGlkPSJQcmludGVyLXRvLVN3aXRjaDEtMiIgc3R5bGU9InN0cm9rZTojMTgxODE4O3N0cm9rZS13aWR0aDoxLjA7Ii8+PHBvbHlnb24gZmlsbD0iIzE4MTgxOCIgcG9pbnRzPSI0NTcuOTUsMjc0LjY1NDQsNDY3LjM3MTMsMjcxLjc4MzksNDYxLjcyODgsMjcxLjM4MDIsNDYyLjEzMjYsMjY1LjczNzgsNDU3Ljk1LDI3NC42NTQ0IiBzdHlsZT0ic3Ryb2tlOiMxODE4MTg7c3Ryb2tlLXdpZHRoOjEuMDsiLz48L2c+PCEtLWxpbmsgU2VydmVyIHRvIFN3aXRjaDItLT48ZyBpZD0ibGlua19TZXJ2ZXJfU3dpdGNoMiI+PHBhdGggZD0iTTIwNi4yNSwzMjAuMDE0NCBDMjE3LjE3LDMzNC41NDQ0IDIzMi43NSwzNTMuNjI0NCAyNDksMzY3Ljk4NDQgQzI1My43NSwzNzIuMTg0NCAyNTQuMTM5MiwzNzIuODA1OCAyNTkuNTE5MiwzNzYuNTM1OCAiIGZpbGw9Im5vbmUiIGlkPSJTZXJ2ZXItdG8tU3dpdGNoMiIgc3R5bGU9InN0cm9rZTojMTgxODE4O3N0cm9rZS13aWR0aDoxLjA7Ii8+PHBvbHlnb24gZmlsbD0iIzE4MTgxOCIgcG9pbnRzPSIyNjQuNDUsMzc5Ljk1NDQsMjU5LjMzMjgsMzcxLjUzOTMsMjYwLjM0MSwzNzcuMTA1NSwyNTQuNzc0NywzNzguMTEzNywyNjQuNDUsMzc5Ljk1NDQiIHN0eWxlPSJzdHJva2U6IzE4MTgxODtzdHJva2Utd2lkdGg6MS4wOyIvPjwvZz48IS0tbGluayBQQzI1IHRvIFN3aXRjaDItLT48ZyBpZD0ibGlua19QQzI1X1N3aXRjaDIiPjxwYXRoIGQ9Ik0xNTM2LjQ3LDMyMC4xNDQ0IEMxNTMxLjA4LDMzNi4zNzQ0IDE1MjEuMTMsMzU3LjUwNDQgMTUwNCwzNjcuOTg0NCBDMTQ1My43NywzOTguNzI0NCA1NjQuNjEsNDAxLjI5OTMgMzUyLjAyLDQwMS40NzkzICIgZmlsbD0ibm9uZSIgaWQ9IlBDMjUtdG8tU3dpdGNoMiIgc3R5bGU9InN0cm9rZTojMTgxODE4O3N0cm9rZS13aWR0aDoxLjA7Ii8+PHBvbHlnb24gZmlsbD0iIzE4MTgxOCIgcG9pbnRzPSIzNDYuMDIsNDAxLjQ4NDQsMzU1LjAyLDQwNS40ODQ0LDM1MS4wMiw0MDEuNDg0NCwzNTUuMDIsMzk3LjQ4NDQsMzQ2LjAyLDQwMS40ODQ0IiBzdHlsZT0ic3Ryb2tlOiMxODE4MTg7c3Ryb2tlLXdpZHRoOjEuMDsiLz48L2c+PCEtLWxpbmsgUEM1NSB0byBTd2l0Y2gzLS0+PGcgaWQ9ImxpbmtfUEM1NV9Td2l0Y2gzIj48cGF0aCBkPSJNMjU1MCwxNjAuOTg0NCBDMjU1MCwxOTAuODg0NCAyNTUwLDIzOC43MTQ0IDI1NTAsMjY4LjczNDQgIiBmaWxsPSJub25lIiBpZD0iUEM1NS10by1Td2l0Y2gzIiBzdHlsZT0ic3Ryb2tlOiMxODE4MTg7c3Ryb2tlLXdpZHRoOjEuMDsiLz48cG9seWdvbiBmaWxsPSIjMTgxODE4IiBwb2ludHM9IjI1NTAsMjc0LjczNDQsMjU1NCwyNjUuNzM0NCwyNTUwLDI2OS43MzQ0LDI1NDYsMjY1LjczNDQsMjU1MCwyNzQuNzM0NCIgc3R5bGU9InN0cm9rZTojMTgxODE4O3N0cm9rZS13aWR0aDoxLjA7Ii8+PC9nPjwhLS1saW5rIFNlcnZlcjEgdG8gU3dpdGNoLS0+PGcgaWQ9ImxpbmtfU2VydmVyMV9Td2l0Y2giPjxwYXRoIGQ9Ik0yMjgzLjg1LDE2MS4wNjQ0IEMyMjcyLjgxLDE3MC4zMjQ0IDIyNTguNywxODAuMTI0NCAyMjQ0LDE4NC45ODQ0IEMyMjA3Ljc0LDE5Ni45ODQ0IDkwNC41OSwxNzkuMTI0NCA4NjksMTkyLjk4NDQgQzgyNi42NiwyMDkuNDg0NCA3OTMuOTczNCwyNDQuOTc1OSA3NzQuMzEzNCwyNzAuMTQ1OSAiIGZpbGw9Im5vbmUiIGlkPSJTZXJ2ZXIxLXRvLVN3aXRjaCIgc3R5bGU9InN0cm9rZTojMTgxODE4O3N0cm9rZS13aWR0aDoxLjA7Ii8+PHBvbHlnb24gZmlsbD0iIzE4MTgxOCIgcG9pbnRzPSI3NzAuNjIsMjc0Ljg3NDQsNzc5LjMxMjQsMjcwLjI0MzksNzczLjY5NzgsMjcwLjkzMzksNzczLjAwNzcsMjY1LjMxOTMsNzcwLjYyLDI3NC44NzQ0IiBzdHlsZT0ic3Ryb2tlOiMxODE4MTg7c3Ryb2tlLXdpZHRoOjEuMDsiLz48L2c+PCEtLWxpbmsgU2VydmVyNCB0byBTd2l0Y2gtLT48ZyBpZD0ibGlua19TZXJ2ZXI0X1N3aXRjaCI+PHBhdGggZD0iTTIxNjUuMjksMTYxLjQ0NDQgQzIxNTYuOTksMTcwLjU0NDQgMjE0Ni4xNCwxODAuMDk0NCAyMTM0LDE4NC45ODQ0IEMyMTAxLjQsMTk4LjEwNDQgOTAxLjc0LDE4MC4yMjQ0IDg2OSwxOTIuOTg0NCBDODI2LjY2LDIwOS40OTQ0IDc5My45NzM0LDI0NC45ODU5IDc3NC4zMTM0LDI3MC4xNTU5ICIgZmlsbD0ibm9uZSIgaWQ9IlNlcnZlcjQtdG8tU3dpdGNoIiBzdHlsZT0ic3Ryb2tlOiMxODE4MTg7c3Ryb2tlLXdpZHRoOjEuMDsiLz48cG9seWdvbiBmaWxsPSIjMTgxODE4IiBwb2ludHM9Ijc3MC42MiwyNzQuODg0NCw3NzkuMzEyNCwyNzAuMjUzOSw3NzMuNjk3OCwyNzAuOTQzOSw3NzMuMDA3NywyNjUuMzI5Myw3NzAuNjIsMjc0Ljg4NDQiIHN0eWxlPSJzdHJva2U6IzE4MTgxODtzdHJva2Utd2lkdGg6MS4wOyIvPjwvZz48IS0tU1JDPVtmTEZCUWVEMDVEdHg1UFRpUWc2MVFFQXM2cU13UThsNHg0OE1LdGluV3UtSHdwSVg1Ri16bmVjanB3MWFEdnAzZEpjRmtQQkI2RTRUdkxiRzEwdmQ4UjQ0Rmh4MVpPS1dPRWFkRTlXbmFXY2NLakNVbUVNS0l5TGc2R2lZNVk4aTZrMDJWWkkwRnlSLW9nTDhhQzFjWEEwUkFfM2lfMGFDeThZZDRrYm96Q3pTMWlUN0RHY216c3BaMENsYkMtbUxTd1hYU24xTTVfTWVlWWQzUHA3Y2JQaXRIWDVBZGVRV2N0cW52YktDTGgyRlQ0OFE1c1FDQTZsV2duUFh0ajFTM3diNy1zRTVMYnBvenA0R2ZPckUwS3NxcXUzQkt2TzZQVlFjVFNGazk5Rk1GM0VqMWJ1blAzN2VyWHR6Sm9kd1BObGQ5bmp6ZjRmX1QtSksyeHkxVGg5dHk4SW5vOTNvcWRkVi1kZk1fNU94X2xNaS1FaUR0czZ2dGx5ako0Y2JsS1pMeHVJajRFS3JjLWs2MzV3YmdDNkc1UktQMmxhTl0tLT48L2c+PC9zdmc+;" vertex="1" parent="1">
            <mxGeometry x="-990" y="10" width="2738" height="471" as="geometry" />
          </mxCell>
        </UserObject>
      </root>
    </mxGraphModel>
  </diagram>
</mxfile>
